{
.appVersion = "1265";
classes = (
{
automatic = 1;

glyphs = (
{
glyphname = A;
lastChange = "2019-09-19 11:05:06 +0000";
layers = (
{
anchors = (
{
name = bottom;
position = "{359, 0}";
},
{
name = ogonek;
position = "{682, 0}";
},
{
name = top;
position = "{359, 705}";
}
);
background = {
anchors = (
{
name = bottom;
position = "{359, 0}";
},
{
name = ogonek;
position = "{682, 0}";
},
{
name = top;
position = "{359, 705}";
}
);
paths = (
{
closed = 1;
nodes = (
"378 705 LINE",
"338 705 LINE",
"35 0 LINE",
"80 0 LINE",
"167 204 LINE",
"139 195 LINE",
"575 195 LINE",
"548 204 LINE",
"636 0 LINE",
"681 0 LINE"
);
},
{
closed = 1;
nodes = (
"558 234 LINE",
"156 234 LINE",
"178 228 LINE",
"371 680 LINE",
"345 680 LINE",
"538 228 LINE"
);
}
);
};
layerId = "F1F93986-3ED8-4AAE-84C4-CA3EEECDDFA0";
paths = (
{
closed = 1;
nodes = (
"378 705 LINE",
"338 705 LINE",
"35 0 LINE",
"80 0 LINE",
"167 204 LINE",
"139 195 LINE",
"575 195 LINE",
"548 204 LINE",
"636 0 LINE",
"681 0 LINE"
);
},
{
closed = 1;
nodes = (
"558 234 LINE",
"156 234 LINE",
"178 228 LINE",
"371 680 LINE",
"345 680 LINE",
"538 228 LINE"
);
}
);
width = 716;
},
{
anchors = (
{
name = bottom;
position = "{387, 0}";
},
{
name = ogonek;
position = "{722, 0}";
},
{
name = top;
position = "{386, 705}";
}
);
background = {
anchors = (
{
name = bottom;
position = "{387, 0}";
},
{
name = ogonek;
position = "{722, 0}";
},
{
name = top;
position = "{386, 705}";
}
);
paths = (
{
closed = 1;
nodes = (
"471 705 LINE",
"302 705 LINE",
"-33 0 LINE",
"181 0 LINE",
"263 191 LINE",
"183 131 LINE",
"590 131 LINE",
"510 191 LINE",
"592 0 LINE",
"806 0 LINE"
);
},
{
closed = 1;
nodes = (
"520 295 LINE",
"253 295 LINE",
"283 238 LINE",
"405 530 LINE",
"368 530 LINE",
"490 238 LINE"
);
}
);
};
layerId = "4121B50C-FD42-45C5-8FBE-41E76D98F91E";
paths = (
{
closed = 1;
nodes = (
"471 705 LINE",
"302 705 LINE",
"-33 0 LINE",
"181 0 LINE",
"263 191 LINE",
"183 131 LINE",
"590 131 LINE",
"510 191 LINE",
"592 0 LINE",
"806 0 LINE"
);
},
{
closed = 1;
nodes = (
"520 295 LINE",
"253 295 LINE",
"283 238 LINE",
"405 530 LINE",
"368 530 LINE",
"490 238 LINE"
);
}
);
width = 773;
},
{
anchors = (
{
name = bottom;
position = "{359, 0}";
},
{
name = ogonek;
position = "{682, 0}";
},
{
name = top;
position = "{359, 559.065}";
}
);
layerId = master01;
paths = (
{
closed = 1;
nodes = (
"378 559.065 LINE",
"338 559.065 LINE",
"35 0 LINE",
"80 0 LINE",
"167 160.887 LINE",
"139 150.277 LINE",
"575 150.277 LINE",
"548 160.887 LINE",
"636 0 LINE",
"681 0 LINE"
);
},
{
closed = 1;
nodes = (
"558 189.716 LINE",
"156 189.716 LINE",
"178 181.485 LINE",
"371 529.026 LINE",
"345 529.026 LINE",
"538 181.485 LINE"
);
}
);
width = 716;
},
{
anchors = (
{
name = bottom;
position = "{359, 0}";
},
{
name = ogonek;
position = "{682, 0}";
},
{
name = top;
position = "{359, 850.708}";
}
);
layerId = "E44A8709-89A6-4355-8E1B-0C9D43FBEF88";
paths = (
{
closed = 1;
nodes = (
"378 850.708 LINE",
"338 850.708 LINE",
"35 0 LINE",
"80 0 LINE",
"167 247.048 LINE",
"139 239.664 LINE",
"575 239.664 LINE",
"548 247.048 LINE",
"636 0 LINE",
"681 0 LINE"
);
},
{
closed = 1;
nodes = (
"558 278.205 LINE",
"156 278.205 LINE",
"178 274.441 LINE",
"371 830.765 LINE",
"345 830.765 LINE",
"538 274.441 LINE"
);
}
);
width = 716;
},
{
anchors = (
{
name = bottom;
position = "{387, 0}";
},
{
name = ogonek;
position = "{722, 0}";
},
{
name = top;
position = "{386, 562.447}";
}
);
layerId = "55E98211-8D07-4C6F-9443-D57FA90BECD2";
paths = (
{
closed = 1;
nodes = (
"471 562.447 LINE",
"302 562.447 LINE",
"-33 0 LINE",
"181 0 LINE",
"263 149.365 LINE",
"183 89.673 LINE",
"590 89.673 LINE",
"510 149.365 LINE",
"592 0 LINE",
"806 0 LINE"
);
},
{
closed = 1;
nodes = (
"520 249.494 LINE",
"253 249.494 LINE",
"283 192.194 LINE",
"405 388.054 LINE",
"368 388.054 LINE",
"490 192.194 LINE"
);
}
);
width = 773;
},
{
anchors = (
{
name = bottom;
position = "{387, 0}";
},
{
name = ogonek;
position = "{722, 0}";
},
{
name = top;
position = "{386, 847.732}";
}
);
layerId = "E57D9CFB-71CF-4090-BA17-28A43A9C1B36";
paths = (
{
closed = 1;
nodes = (
"471 847.732 LINE",
"302 847.732 LINE",
"-33 0 LINE",
"181 0 LINE",
"263 233.208 LINE",
"183 174.942 LINE",
"590 174.942 LINE",
"510 233.208 LINE",
"592 0 LINE",
"806 0 LINE"
);
},
{
closed = 1;
nodes = (
"520 338.121 LINE",
"253 338.121 LINE",
"283 283.463 LINE",
"405 678.132 LINE",
"368 678.132 LINE",
"490 283.463 LINE"
);
}
);
width = 773;
}
);
leftKerningGroup = A;
rightKerningGroup = A;
unicode = 0041;
userData = {
anchors = (
);
b = {
};
com.typemytype.robofont.layerData = {
b = {
anchors = (
);
components = (
);
contours = (
{
points = (
{
segmentType = line;
smooth = 0;
x = 403;
y = 502;
},
{
segmentType = line;
smooth = 0;
x = 703;
y = 1275;
},
{
segmentType = line;
smooth = 0;
x = 705;
y = 1275;
},
{
segmentType = line;
smooth = 0;
x = 1004;
y = 502;
}
);
},
{
points = (
{
segmentType = curve;
smooth = 1;
x = 150;
y = 0;
},
{
smooth = 0;
x = 181;
y = 0;
},
{
smooth = 0;
x = 214;
y = 15;
},
{
segmentType = curve;
smooth = 1;
x = 229;
y = 53;
},
{
segmentType = line;
smooth = 0;
x = 356;
y = 373;
},
{
segmentType = line;
smooth = 0;
x = 1051;
y = 373;
},
{
segmentType = line;
smooth = 1;
x = 1179;
y = 53;
},
{
smooth = 0;
x = 1193;
y = 17;
},
{
smooth = 0;
x = 1228;
y = 0;
},
{
segmentType = curve;
smooth = 1;
x = 1260;
y = 0;
},
{
smooth = 0;
x = 1306;
y = 0;
},
{
smooth = 0;
x = 1354;
y = 31;
},
{
segmentType = curve;
smooth = 1;
x = 1354;
y = 80;
},
{
smooth = 0;
x = 1354;
y = 87;
},
{
smooth = 0;
x = 1352;
y = 97;
},
{
segmentType = curve;
smooth = 0;
x = 1349;
y = 108;
},
{
segmentType = line;
smooth = 1;
x = 871;
y = 1288;
},
{
smooth = 0;
x = 817;
y = 1420;
},
{
smooth = 0;
x = 777;
y = 1430;
},
{
segmentType = curve;
smooth = 1;
x = 710;
y = 1430;
},
{
smooth = 0;
x = 644;
y = 1430;
},
{
smooth = 0;
x = 596;
y = 1413;
},
{
segmentType = curve;
smooth = 1;
x = 542;
y = 1280;
},
{
segmentType = line;
smooth = 1;
x = 66;
y = 108;
},
{
smooth = 0;
x = 62;
y = 97;
},
{
smooth = 0;
x = 60;
y = 87;
},
{
segmentType = curve;
smooth = 1;
x = 60;
y = 78;
},
{
smooth = 0;
x = 60;
y = 32;
},
{
smooth = 0;
x = 106;
y = 0;
}
);
}
);
lib = {
};
name = A;
unicodes = (
);
width = 1414;
};
};
components = (
);
contours = {
};
lib = {
};
name = A;
points = {
};
segmentType = line;
unicodes = (
);
width = 1445;
x = 718;
y = 1232;
};
},
{
glyphname = AE;
lastChange = "2019-09-19 11:05:06 +0000";
layers = (
{
anchors = (
{
name = bottom;
position = "{487, 0}";
},
{
name = top;
position = "{486, 705}";
}
);
background = {
anchors = (
{
name = bottom;
position = "{487, 0}";
},
{
name = top;
position = "{486, 705}";
}
);
paths = (
{
closed = 1;
nodes = (
"49 0 LINE",
"172 207 LINE",
"153 195 LINE",
"548 195 LINE",
"528 207 LINE",
"571 0 LINE",
"921 0 LINE",
"921 39 LINE",
"586 39 LINE",
"607 20 LINE",
"538 348 LINE",
"525 338 LINE",
"901 338 LINE",
"901 377 LINE",
"517 377 LINE",
"534 366 LINE",
"466 690 LINE",
"459 666 LINE",
"921 666 LINE",
"921 705 LINE",
"422 705 LINE",
"2 0 LINE"
);
},
{
closed = 1;
nodes = (
"182 224 LINE",
"450 676 LINE",
"429 676 LINE",
"524 225 LINE",
"530 234 LINE",
"173 234 LINE"
);
}
);
};
guideLines = (
{
angle = 101.863;
position = "{499, 338}";
},
{
angle = 239.3238;
position = "{250, 338}";
}
);
layerId = "F1F93986-3ED8-4AAE-84C4-CA3EEECDDFA0";
paths = (
{
closed = 1;
nodes = (
"49 0 LINE",
"172 207 LINE",
"153 195 LINE",
"548 195 LINE",
"528 207 LINE",
"571 0 LINE",
"921 0 LINE",
"921 39 LINE",
"586 39 LINE",
"607 20 LINE",
"538 348 LINE",
"525 338 LINE",
"901 338 LINE",
"901 377 LINE",
"517 377 LINE",
"534 366 LINE",
"466 690 LINE",
"459 666 LINE",
"921 666 LINE",
"921 705 LINE",
"422 705 LINE",
"2 0 LINE"
);
},
{
closed = 1;
nodes = (
"182 224 LINE",
"450 676 LINE",
"429 676 LINE",
"524 225 LINE",
"530 234 LINE",
"173 234 LINE"
);
}
);
width = 971;
},
{
anchors = (
{
name = bottom;
position = "{489, 0}";
},
{
name = top;
position = "{490, 705}";
}
);
background = {
anchors = (
{
name = bottom;
position = "{489, 0}";
},
{
name = top;
position = "{490, 705}";
}
);
paths = (
{
closed = 1;
nodes = (
"150 0 LINE",
"261 186 LINE",
"184 131 LINE",
"562 131 LINE",
"498 194 LINE",
"541 0 LINE",
"961 0 LINE",
"961 164 LINE",
"636 164 LINE",
"706 109 LINE",
"655 335 LINE",
"613 276 LINE",
"938 276 LINE",
"938 440 LINE",
"576 440 LINE",
"645 381 LINE",
"600 584 LINE",
"546 541 LINE",
"961 541 LINE",
"961 705 LINE",
"382 705 LINE",
"-74 0 LINE"
);
},
{
closed = 1;
nodes = (
"294 243 LINE",
"461 523 LINE",
"424 523 LINE",
"489 235 LINE",
"531 295 LINE",
"285 295 LINE"
);
}
);
};
guideLines = (
{
angle = 102.61;
position = "{478, 262}";
},
{
angle = 102.61;
position = "{672, 261}";
},
{
angle = 59.2623;
position = "{306, 262}";
}
);
layerId = "4121B50C-FD42-45C5-8FBE-41E76D98F91E";
paths = (
{
closed = 1;
nodes = (
"150 0 LINE",
"261 186 LINE",
"184 131 LINE",
"562 131 LINE",
"498 194 LINE",
"541 0 LINE",
"961 0 LINE",
"961 164 LINE",
"636 164 LINE",
"706 109 LINE",
"655 335 LINE",
"613 276 LINE",
"938 276 LINE",
"938 440 LINE",
"576 440 LINE",
"645 381 LINE",
"600 584 LINE",
"546 541 LINE",
"961 541 LINE",
"961 705 LINE",
"382 705 LINE",
"-74 0 LINE"
);
},
{
closed = 1;
nodes = (
"294 243 LINE",
"461 523 LINE",
"424 523 LINE",
"489 235 LINE",
"531 295 LINE",
"285 295 LINE"
);
}
);
width = 1014;
},
{
anchors = (
{
name = bottom;
position = "{487, 0}";
},
{
name = top;
position = "{486, 559.065}";
}
);
layerId = master01;
paths = (
{
closed = 1;
nodes = (
"49 0 LINE",
"172 162.721 LINE",
"153 150.277 LINE",
"548 150.277 LINE",
"528 163.266 LINE",
"571 0 LINE",
"921 0 LINE",
"921 39.439 LINE",
"586 39.439 LINE",
"607 21.921 LINE",
"538 275.079 LINE",
"525 263.812 LINE",
"901 263.812 LINE",
"901 303.251 LINE",
"517 303.251 LINE",
"534 291.259 LINE",
"466 539.952 LINE",
"459 519.626 LINE",
"921 519.626 LINE",
"921 559.065 LINE",
"422 559.065 LINE",
"2 0 LINE"
);
},
{
closed = 1;
nodes = (
"182 178.926 LINE",
"450 525.649 LINE",
"429 525.649 LINE",
"524 179.106 LINE",
"530 189.716 LINE",
"173 189.716 LINE"
);
}
);
width = 971;
},
{
anchors = (
{
name = bottom;
position = "{487, 0}";
},
{
name = top;
position = "{486, 850.708}";
}
);
layerId = "E44A8709-89A6-4355-8E1B-0C9D43FBEF88";
paths = (
{
closed = 1;
nodes = (
"49 0 LINE",
"172 251.214 LINE",
"153 239.664 LINE",
"548 239.664 LINE",
"528 250.668 LINE",
"571 0 LINE",
"921 0 LINE",
"921 38.54 LINE",
"586 38.54 LINE",
"607 18.067 LINE",
"538 420.81 LINE",
"525 412.083 LINE",
"901 412.083 LINE",
"901 450.623 LINE",
"517 450.623 LINE",
"534 440.622 LINE",
"466 839.832 LINE",
"459 812.167 LINE",
"921 812.167 LINE",
"921 850.708 LINE",
"422 850.708 LINE",
"2 0 LINE"
);
},
{
closed = 1;
nodes = (
"182 269 LINE",
"450 826.143 LINE",
"429 826.143 LINE",
"524 270.821 LINE",
"530 278.205 LINE",
"173 278.205 LINE"
);
}
);
width = 971;
},
{
anchors = (
{
name = bottom;
position = "{489, 0}";
},
{
name = top;
position = "{490, 562.447}";
}
);
layerId = "55E98211-8D07-4C6F-9443-D57FA90BECD2";
paths = (
{
closed = 1;
nodes = (
"150 0 LINE",
"261 143.521 LINE",
"184 89.673 LINE",
"562 89.673 LINE",
"498 151.759 LINE",
"541 0 LINE",
"961 0 LINE",
"961 159.821 LINE",
"636 159.821 LINE",
"706 107.595 LINE",
"655 264.248 LINE",
"613 205.817 LINE",
"938 205.817 LINE",
"938 365.638 LINE",
"576 365.638 LINE",
"645 307.439 LINE",
"600 441.337 LINE",
"546 402.627 LINE",
"961 402.627 LINE",
"961 562.447 LINE",
"382 562.447 LINE",
"-74 0 LINE"
);
},
{
closed = 1;
nodes = (
"294 198.27 LINE",
"461 381.774 LINE",
"424 381.774 LINE",
"489 189.801 LINE",
"531 249.494 LINE",
"285 249.494 LINE"
);
}
);
width = 1014;
},
{
anchors = (
{
name = bottom;
position = "{489, 0}";
},
{
name = top;
position = "{490, 847.732}";
}
);
layerId = "E57D9CFB-71CF-4090-BA17-28A43A9C1B36";
paths = (
{
closed = 1;
nodes = (
"150 0 LINE",
"261 229.373 LINE",
"184 174.942 LINE",
"562 174.942 LINE",
"498 236.815 LINE",
"541 0 LINE",
"961 0 LINE",
"961 163.178 LINE",
"636 163.178 LINE",
"706 106.842 LINE",
"655 406.362 LINE",
"613 348.754 LINE",
"938 348.754 LINE",
"938 511.933 LINE",
"576 511.933 LINE",
"645 454.053 LINE",
"600 731.088 LINE",
"546 684.554 LINE",
"961 684.554 LINE",
"961 847.732 LINE",
"382 847.732 LINE",
"-74 0 LINE"
);
},
{
closed = 1;
nodes = (
"294 287.025 LINE",
"461 670.531 LINE",
"424 670.531 LINE",
"489 279.855 LINE",
"531 338.121 LINE",
"285 338.121 LINE"
);
}
);
width = 1014;
}
);
leftKerningGroup = A;
rightKerningGroup = E;
rightMetricsKey = E;
unicode = 00C6;
userData = {
com.typemytype.robofont.layerData = {
b = {
anchors = (
);
components = (
);
contours = (
);
lib = {
};
name = AE;
unicodes = (
);
width = 1976;
};
};
};
},
{
glyphname = B;
lastChange = "2019-09-19 11:05:06 +0000";
layers = (
{
anchors = (
{
name = bottom;
position = "{337, 0}";
},
{
name = top;
position = "{336, 705}";
}
);
background = {
anchors = (
{
name = bottom;
position = "{337, 0}";
},
{
name = top;
position = "{336, 705}";
}
);
paths = (
{
closed = 1;
nodes = (
"524 372 OFFCURVE",
"579 431 OFFCURVE",
"579 520 CURVE SMOOTH",
"579 641 OFFCURVE",
"498 705 OFFCURVE",
"356 705 CURVE SMOOTH",
"96 705 LINE",
"96 0 LINE",
"367 0 LINE SMOOTH",
"513 0 OFFCURVE",
"595 65 OFFCURVE",
"595 191 CURVE SMOOTH",
"595 292 OFFCURVE",
"535 357 OFFCURVE",
"433 367 CURVE",
"433 353 LINE"
);
},
{
closed = 1;
nodes = (
"475 666 OFFCURVE",
"535 619 OFFCURVE",
"535 526 CURVE SMOOTH",
"535 430 OFFCURVE",
"471 376 OFFCURVE",
"351 376 CURVE SMOOTH",
"138 376 LINE",
"138 666 LINE",
"351 666 LINE SMOOTH"
);
},
{
closed = 1;
nodes = (
"138 39 LINE",
"138 338 LINE",
"366 338 LINE SMOOTH",
"489 338 OFFCURVE",
"551 286 OFFCURVE",
"551 186 CURVE SMOOTH",
"551 86 OFFCURVE",
"491 39 OFFCURVE",
"366 39 CURVE SMOOTH"
);
},
{
closed = 1;
nodes = (
"613 377 LINE",
"138 377 LINE",
"138 705 LINE",
"96 705 LINE",
"96 0 LINE",
"138 0 LINE",
"138 338 LINE",
"613 338 LINE",
"613 0 LINE",
"655 0 LINE",
"655 705 LINE",
"613 705 LINE"
);
}
);
};
layerId = "F1F93986-3ED8-4AAE-84C4-CA3EEECDDFA0";
paths = (
{
closed = 1;
nodes = (
"521 370 OFFCURVE",
"579 431 OFFCURVE",
"579 520 CURVE SMOOTH",
"579 639 OFFCURVE",
"497 705 OFFCURVE",
"354 705 CURVE SMOOTH",
"96 705 LINE",
"96 0 LINE",
"367 0 LINE SMOOTH",
"513 0 OFFCURVE",
"595 65 OFFCURVE",
"595 191 CURVE SMOOTH",
"595 292 OFFCURVE",
"531 355 OFFCURVE",
"431 365 CURVE",
"431 351 LINE"
);
},
{
closed = 1;
nodes = (
"471 666 OFFCURVE",
"535 615 OFFCURVE",
"535 521 CURVE SMOOTH",
"535 427 OFFCURVE",
"471 376 OFFCURVE",
"351 376 CURVE SMOOTH",
"138 376 LINE",
"138 666 LINE",
"351 666 LINE SMOOTH"
);
},
{
closed = 1;
nodes = (
"138 39 LINE",
"138 337 LINE",
"366 337 LINE SMOOTH",
"489 337 OFFCURVE",
"551 290 OFFCURVE",
"551 188 CURVE SMOOTH",
"551 86 OFFCURVE",
"489 39 OFFCURVE",
"366 39 CURVE SMOOTH"
);
}
);
width = 666;
},
{
anchors = (
{
name = bottom;
position = "{353, 0}";
},
{
name = top;
position = "{353, 705}";
}
);
background = {
anchors = (
{
name = bottom;
position = "{355, 0}";
},
{
name = top;
position = "{355, 705}";
}
);
paths = (
{
closed = 1;
nodes = (
"522 445 LINE",
"272 445 LINE",
"272 705 LINE",
"57 705 LINE",
"57 0 LINE",
"272 0 LINE",
"272 269 LINE",
"522 269 LINE",
"522 0 LINE",
"737 0 LINE",
"737 705 LINE",
"522 705 LINE"
);
}
);
};
layerId = "4121B50C-FD42-45C5-8FBE-41E76D98F91E";
paths = (
{
closed = 1;
nodes = (
"608 379 OFFCURVE",
"657 441 OFFCURVE",
"657 523 CURVE SMOOTH",
"657 633 OFFCURVE",
"569 705 OFFCURVE",
"415 705 CURVE SMOOTH",
"57 705 LINE",
"57 0 LINE",
"424 0 LINE SMOOTH",
"579 0 OFFCURVE",
"676 79 OFFCURVE",
"676 202 CURVE SMOOTH",
"676 294 OFFCURVE",
"624 355 OFFCURVE",
"529 375 CURVE",
"529 358 LINE"
);
},
{
closed = 1;
nodes = (
"431 549 OFFCURVE",
"453 533 OFFCURVE",
"453 493 CURVE SMOOTH",
"453 453 OFFCURVE",
"431 436 OFFCURVE",
"375 436 CURVE SMOOTH",
"262 436 LINE",
"262 549 LINE",
"375 549 LINE SMOOTH"
);
},
{
closed = 1;
nodes = (
"262 156 LINE",
"262 280 LINE",
"394 280 LINE SMOOTH",
"450 280 OFFCURVE",
"473 259 OFFCURVE",
"473 218 CURVE SMOOTH",
"473 177 OFFCURVE",
"450 156 OFFCURVE",
"394 156 CURVE SMOOTH"
);
}
);
width = 710;
},
{
anchors = (
{
name = bottom;
position = "{337, 0}";
},
{
name = top;
position = "{336, 559.065}";
}
);
layerId = master01;
paths = (
{
closed = 1;
nodes = (
"521 294.023 OFFCURVE",
"579 342.464 OFFCURVE",
"579 412.564 CURVE SMOOTH",
"579 506.318 OFFCURVE",
"497 559.065 OFFCURVE",
"354 559.065 CURVE SMOOTH",
"96 559.065 LINE",
"96 0 LINE",
"367 0 LINE SMOOTH",
"513 0 OFFCURVE",
"595 52.498 OFFCURVE",
"595 152.212 CURVE SMOOTH",
"595 231.692 OFFCURVE",
"531 281.515 OFFCURVE",
"431 290.126 CURVE",
"431 278.82 LINE"
);
},
{
closed = 1;
nodes = (
"471 520.171 OFFCURVE",
"535 482.111 OFFCURVE",
"535 411.246 CURVE SMOOTH",
"535 340.382 OFFCURVE",
"471 302.254 OFFCURVE",
"351 302.254 CURVE SMOOTH",
"138 302.254 LINE",
"138 520.171 LINE",
"351 520.171 LINE"
);
},
{
closed = 1;
nodes = (
"138 38.894 LINE",
"138 263.36 LINE",
"366 263.36 LINE SMOOTH",
"489 263.36 OFFCURVE",
"551 227.859 OFFCURVE",
"551 151.127 CURVE SMOOTH",
"551 74.395 OFFCURVE",
"489 38.894 OFFCURVE",
"366 38.894 CURVE SMOOTH"
);
}
);
width = 666;
},
{
anchors = (
{
name = bottom;
position = "{337, 0}";
},
{
name = top;
position = "{336, 850.708}";
}
);
layerId = "E44A8709-89A6-4355-8E1B-0C9D43FBEF88";
paths = (
{
closed = 1;
nodes = (
"521 445.857 OFFCURVE",
"579 519.396 OFFCURVE",
"579 627.268 CURVE SMOOTH",
"579 771.476 OFFCURVE",
"497 850.708 OFFCURVE",
"354 850.708 CURVE SMOOTH",
"96 850.708 LINE",
"96 0 LINE",
"367 0 LINE SMOOTH",
"513 0 OFFCURVE",
"595 77.48 OFFCURVE",
"595 229.726 CURVE SMOOTH",
"595 352.214 OFFCURVE",
"531 428.371 OFFCURVE",
"431 439.756 CURVE",
"431 423.067 LINE"
);
},
{
closed = 1;
nodes = (
"471 811.622 OFFCURVE",
"535 747.696 OFFCURVE",
"535 630.587 CURVE SMOOTH",
"535 513.479 OFFCURVE",
"471 449.621 OFFCURVE",
"351 449.621 CURVE SMOOTH",
"138 449.621 LINE",
"138 811.622 LINE",
"351 811.622 LINE"
);
},
{
closed = 1;
nodes = (
"138 39.086 LINE",
"138 410.535 LINE",
"366 410.535 LINE SMOOTH",
"489 410.535 OFFCURVE",
"551 352.049 OFFCURVE",
"551 224.811 CURVE SMOOTH",
"551 97.572 OFFCURVE",
"489 39.086 OFFCURVE",
"366 39.086 CURVE SMOOTH"
);
}
);
width = 666;
},
{
anchors = (
{
name = bottom;
position = "{353, 0}";
},
{
name = top;
position = "{353, 562.447}";
}
);
layerId = "55E98211-8D07-4C6F-9443-D57FA90BECD2";
paths = (
{
closed = 1;
nodes = (
"608 304.452 OFFCURVE",
"657 354.147 OFFCURVE",
"657 417.944 CURVE SMOOTH",
"657 503.615 OFFCURVE",
"569 562.447 OFFCURVE",
"415 562.447 CURVE SMOOTH",
"57 562.447 LINE",
"57 0 LINE",
"424 0 LINE SMOOTH",
"579 0 OFFCURVE",
"676 66.272 OFFCURVE",
"676 163.706 CURVE SMOOTH",
"676 235.016 OFFCURVE",
"624 283.218 OFFCURVE",
"529 301.493 CURVE",
"529 287.235 LINE"
);
},
{
closed = 1;
nodes = (
"431 410.864 OFFCURVE",
"453 406.214 OFFCURVE",
"453 386.822 CURVE SMOOTH",
"453 367.431 OFFCURVE",
"431 361.751 OFFCURVE",
"375 361.751 CURVE SMOOTH",
"262 361.751 LINE",
"262 410.864 LINE",
"375 410.864 LINE"
);
},
{
closed = 1;
nodes = (
"262 151.584 LINE",
"262 210.168 LINE",
"394 210.168 LINE SMOOTH",
"450 210.168 OFFCURVE",
"473 199.442 OFFCURVE",
"473 180.876 CURVE SMOOTH",
"473 162.309 OFFCURVE",
"450 151.584 OFFCURVE",
"394 151.584 CURVE SMOOTH"
);
}
);
width = 710;
},
{
anchors = (
{
name = bottom;
position = "{353, 0}";
},
{
name = top;
position = "{353, 847.732}";
}
);
layerId = "E57D9CFB-71CF-4090-BA17-28A43A9C1B36";
paths = (
{
closed = 1;
nodes = (
"608 453.281 OFFCURVE",
"657 527.562 OFFCURVE",
"657 628.068 CURVE SMOOTH",
"657 762.788 OFFCURVE",
"569 847.732 OFFCURVE",
"415 847.732 CURVE SMOOTH",
"57 847.732 LINE",
"57 0 LINE",
"424 0 LINE SMOOTH",
"579 0 OFFCURVE",
"676 91.183 OFFCURVE",
"676 239.902 CURVE SMOOTH",
"676 352.978 OFFCURVE",
"624 426.872 OFFCURVE",
"529 448.199 CURVE",
"529 428.574 LINE"
);
},
{
closed = 1;
nodes = (
"431 691.996 OFFCURVE",
"453 663.23 OFFCURVE",
"453 600.433 CURVE SMOOTH",
"453 537.636 OFFCURVE",
"431 507.939 OFFCURVE",
"375 507.939 CURVE SMOOTH",
"262 507.939 LINE",
"262 691.996 LINE",
"375 691.996 LINE"
);
},
{
closed = 1;
nodes = (
"262 155.736 LINE",
"262 352.203 LINE",
"394 352.203 LINE SMOOTH",
"450 352.203 OFFCURVE",
"473 319.874 OFFCURVE",
"473 253.97 CURVE SMOOTH",
"473 188.065 OFFCURVE",
"450 155.736 OFFCURVE",
"394 155.736 CURVE SMOOTH"
);
}
);
width = 710;
}
);
leftKerningGroup = H;
leftMetricsKey = H;
rightKerningGroup = B;
unicode = 0042;
userData = {
anchors = (
);
b = {
};
com.typemytype.robofont.layerData = {
b = {
anchors = (
);
components = (
);
contours = (
{
points = (
{
segmentType = curve;
smooth = 1;
x = 266;
y = 0;
},
{
segmentType = line;
smooth = 1;
x = 1035;
y = 0;
},
{
smooth = 0;
x = 1084;
y = 0;
},
{
smooth = 0;
x = 1108;
y = 36;
},
{
segmentType = curve;
smooth = 1;
x = 1108;
y = 73;
},
{
smooth = 0;
x = 1108;
y = 109;
},
{
smooth = 0;
x = 1084;
y = 145;
},
{
segmentType = curve;
smooth = 1;
x = 1035;
y = 145;
},
{
segmentType = line;
smooth = 0;
x = 353;
y = 145;
},
{
segmentType = line;
smooth = 0;
x = 353;
y = 662;
},
{
segmentType = line;
smooth = 1;
x = 975;
y = 662;
},
{
smooth = 0;
x = 1024;
y = 662;
},
{
smooth = 0;
x = 1049;
y = 698;
},
{
segmentType = curve;
smooth = 1;
x = 1049;
y = 734;
},
{
smooth = 0;
x = 1049;
y = 770;
},
{
smooth = 0;
x = 1026;
y = 806;
},
{
segmentType = curve;
smooth = 1;
x = 975;
y = 806;
},
{
segmentType = line;
smooth = 0;
x = 353;
y = 806;
},
{
segmentType = line;
smooth = 0;
x = 353;
y = 1281;
},
{
segmentType = line;
smooth = 1;
x = 1007;
y = 1281;
},
{
smooth = 0;
x = 1056;
y = 1281;
},
{
smooth = 0;
x = 1080;
y = 1317;
},
{
segmentType = curve;
smooth = 1;
x = 1080;
y = 1354;
},
{
smooth = 0;
x = 1080;
y = 1390;
},
{
smooth = 0;
x = 1056;
y = 1426;
},
{
segmentType = curve;
smooth = 1;
x = 1007;
y = 1426;
},
{
segmentType = line;
smooth = 1;
x = 261;
y = 1426;
},
{
smooth = 0;
x = 213;
y = 1426;
},
{
smooth = 0;
x = 178;
y = 1383;
},
{
segmentType = curve;
smooth = 1;
x = 178;
y = 1340;
},
{
segmentType = line;
smooth = 1;
x = 178;
y = 86;
},
{
smooth = 0;
x = 178;
y = 41;
},
{
smooth = 0;
x = 222;
y = 0;
}
);
}
);
lib = {
};
name = B;
unicodes = (
);
width = 1292;
};
};
components = (
);
contours = {
};
lib = {
};
name = B;
points = {
};
segmentType = curve;
unicodes = (
);
width = 1395;
x = 676;
y = 1260;
};
},
{
glyphname = C;
lastChange = "2019-09-19 11:05:06 +0000";
layers = (
{
anchors = (
{
name = bottom;
position = "{380, 0}";
},
{
name = top;
position = "{382, 705}";
}
);
background = {
anchors = (
{
name = bottom;
position = "{1180, 0}";
},
{
name = top;
position = "{1182, 705}";
}
);
paths = (
{
closed = 1;
nodes = (
"566 -8 OFFCURVE",
"684 130 OFFCURVE",
"684 354 CURVE SMOOTH",
"684 576 OFFCURVE",
"567 713 OFFCURVE",
"375 713 CURVE SMOOTH",
"183 713 OFFCURVE",
"67 576 OFFCURVE",
"67 353 CURVE SMOOTH",
"67 130 OFFCURVE",
"185 -8 OFFCURVE",
"375 -8 CURVE SMOOTH"
);
},
{
closed = 1;
nodes = (
"208 33 OFFCURVE",
"112 151 OFFCURVE",
"112 353 CURVE SMOOTH",
"112 555 OFFCURVE",
"208 672 OFFCURVE",
"375 672 CURVE SMOOTH",
"544 672 OFFCURVE",
"639 556 OFFCURVE",
"639 353 CURVE SMOOTH",
"639 150 OFFCURVE",
"543 33 OFFCURVE",
"375 33 CURVE SMOOTH"
);
}
);
};
layerId = "F1F93986-3ED8-4AAE-84C4-CA3EEECDDFA0";
paths = (
{
closed = 1;
nodes = (
"479 -8 OFFCURVE",
"561 24 OFFCURVE",
"619 87 CURVE",
"597 122 LINE",
"534 59 OFFCURVE",
"468 33 OFFCURVE",
"380 33 CURVE SMOOTH",
"208 33 OFFCURVE",
"112 150 OFFCURVE",
"112 353 CURVE SMOOTH",
"112 555 OFFCURVE",
"208 672 OFFCURVE",
"380 672 CURVE SMOOTH",
"468 672 OFFCURVE",
"534 646 OFFCURVE",
"597 583 CURVE",
"619 618 LINE",
"561 681 OFFCURVE",
"479 713 OFFCURVE",
"381 713 CURVE SMOOTH",
"183 713 OFFCURVE",
"67 576 OFFCURVE",
"67 353 CURVE SMOOTH",
"67 129 OFFCURVE",
"183 -8 OFFCURVE",
"381 -8 CURVE SMOOTH"
);
}
);
width = 667;
},
{
anchors = (
{
name = bottom;
position = "{402, 0}";
},
{
name = top;
position = "{401, 705}";
}
);
background = {
paths = (
{
closed = 1;
nodes = (
"629 -12 OFFCURVE",
"779 135 OFFCURVE",
"779 353 CURVE SMOOTH",
"779 571 OFFCURVE",
"629 717 OFFCURVE",
"410 717 CURVE SMOOTH",
"191 717 OFFCURVE",
"41 571 OFFCURVE",
"41 353 CURVE SMOOTH",
"41 136 OFFCURVE",
"191 -12 OFFCURVE",
"410 -12 CURVE SMOOTH"
);
},
{
closed = 1;
nodes = (
"319 167 OFFCURVE",
"264 236 OFFCURVE",
"264 353 CURVE SMOOTH",
"264 470 OFFCURVE",
"319 538 OFFCURVE",
"410 538 CURVE SMOOTH",
"501 538 OFFCURVE",
"556 469 OFFCURVE",
"556 353 CURVE SMOOTH",
"556 237 OFFCURVE",
"501 167 OFFCURVE",
"410 167 CURVE SMOOTH"
);
}
);
};
layerId = "4121B50C-FD42-45C5-8FBE-41E76D98F91E";
paths = (
{
closed = 1;
nodes = (
"521 -12 OFFCURVE",
"617 19 OFFCURVE",
"669 63 CURVE",
"607 232 LINE",
"549 193 OFFCURVE",
"493 175 OFFCURVE",
"437 175 CURVE SMOOTH",
"323 175 OFFCURVE",
"268 237 OFFCURVE",
"268 353 CURVE SMOOTH",
"268 468 OFFCURVE",
"323 530 OFFCURVE",
"437 530 CURVE SMOOTH",
"493 530 OFFCURVE",
"549 512 OFFCURVE",
"607 473 CURVE",
"669 642 LINE",
"617 686 OFFCURVE",
"521 717 OFFCURVE",
"429 717 CURVE SMOOTH",
"187 717 OFFCURVE",
"41 572 OFFCURVE",
"41 353 CURVE SMOOTH",
"41 133 OFFCURVE",
"187 -12 OFFCURVE",
"429 -12 CURVE SMOOTH"
);
}
);
width = 692;
},
{
anchors = (
{
name = bottom;
position = "{380, 0}";
},
{
name = top;
position = "{382, 559.065}";
}
);
layerId = master01;
paths = (
{
closed = 1;
nodes = (
"479 -6.616 OFFCURVE",
"561 18.692 OFFCURVE",
"619 67.357 CURVE",
"597 104.237 LINE",
"534 55.912 OFFCURVE",
"468 35.839 OFFCURVE",
"380 35.839 CURVE SMOOTH",
"208 35.839 OFFCURVE",
"112 124.874 OFFCURVE",
"112 279.929 CURVE SMOOTH",
"112 434.191 OFFCURVE",
"208 523.226 OFFCURVE",
"380 523.226 CURVE SMOOTH",
"468 523.226 OFFCURVE",
"534 503.153 OFFCURVE",
"597 454.828 CURVE",
"619 491.708 LINE",
"561 540.374 OFFCURVE",
"479 565.681 OFFCURVE",
"381 565.681 CURVE SMOOTH",
"183 565.681 OFFCURVE",
"67 456.496 OFFCURVE",
"67 279.929 CURVE SMOOTH",
"67 102.569 OFFCURVE",
"183 -6.616 OFFCURVE",
"381 -6.616 CURVE SMOOTH"
);
}
);
width = 667;
},
{
anchors = (
{
name = bottom;
position = "{380, 0}";
},
{
name = top;
position = "{382, 850.708}";
}
);
layerId = "E44A8709-89A6-4355-8E1B-0C9D43FBEF88";
paths = (
{
closed = 1;
nodes = (
"479 -9.381 OFFCURVE",
"561 29.301 OFFCURVE",
"619 106.617 CURVE",
"597 139.717 LINE",
"534 62.061 OFFCURVE",
"468 30.142 OFFCURVE",
"380 30.142 CURVE SMOOTH",
"208 30.142 OFFCURVE",
"112 175.072 OFFCURVE",
"112 425.957 CURVE SMOOTH",
"112 675.636 OFFCURVE",
"208 820.566 OFFCURVE",
"380 820.566 CURVE SMOOTH",
"468 820.566 OFFCURVE",
"534 788.647 OFFCURVE",
"597 710.991 CURVE",
"619 744.091 LINE",
"561 821.407 OFFCURVE",
"479 860.088 OFFCURVE",
"381 860.088 CURVE SMOOTH",
"183 860.088 OFFCURVE",
"67 695.319 OFFCURVE",
"67 425.957 CURVE SMOOTH",
"67 155.389 OFFCURVE",
"183 -9.381 OFFCURVE",
"381 -9.381 CURVE SMOOTH"
);
}
);
width = 667;
},
{
anchors = (
{
name = bottom;
position = "{402, 0}";
},
{
name = top;
position = "{401, 562.447}";
}
);
layerId = "55E98211-8D07-4C6F-9443-D57FA90BECD2";
paths = (
{
closed = 1;
nodes = (
"521 -10.501 OFFCURVE",
"617 13.999 OFFCURVE",
"669 44.697 CURVE",
"607 210.593 LINE",
"549 185.044 OFFCURVE",
"493 172.538 OFFCURVE",
"437 172.538 CURVE SMOOTH",
"323 172.538 OFFCURVE",
"268 209.249 OFFCURVE",
"268 281.623 CURVE SMOOTH",
"268 353.198 OFFCURVE",
"323 389.909 OFFCURVE",
"437 389.909 CURVE SMOOTH",
"493 389.909 OFFCURVE",
"549 377.404 OFFCURVE",
"607 351.854 CURVE",
"669 517.751 LINE",
"617 548.448 OFFCURVE",
"521 572.948 OFFCURVE",
"429 572.948 CURVE SMOOTH",
"187 572.948 OFFCURVE",
"41 455.413 OFFCURVE",
"41 281.623 CURVE SMOOTH",
"41 107.035 OFFCURVE",
"187 -10.501 OFFCURVE",
"429 -10.501 CURVE SMOOTH"
);
}
);
width = 692;
},
{
anchors = (
{
name = bottom;
position = "{402, 0}";
},
{
name = top;
position = "{401, 847.732}";
}
);
layerId = "E57D9CFB-71CF-4090-BA17-28A43A9C1B36";
paths = (
{
closed = 1;
nodes = (
"521 -13.341 OFFCURVE",
"617 24.208 OFFCURVE",
"669 82.288 CURVE",
"607 249.028 LINE",
"549 195.6 OFFCURVE",
"493 171.778 OFFCURVE",
"437 171.778 CURVE SMOOTH",
"323 171.778 OFFCURVE",
"268 261.301 OFFCURVE",
"268 424.467 CURVE SMOOTH",
"268 586.431 OFFCURVE",
"323 675.954 OFFCURVE",
"437 675.954 CURVE SMOOTH",
"493 675.954 OFFCURVE",
"549 652.132 OFFCURVE",
"607 598.704 CURVE",
"669 765.445 LINE",
"617 823.524 OFFCURVE",
"521 861.073 OFFCURVE",
"429 861.073 CURVE SMOOTH",
"187 861.073 OFFCURVE",
"41 688.894 OFFCURVE",
"41 424.467 CURVE SMOOTH",
"41 158.838 OFFCURVE",
"187 -13.341 OFFCURVE",
"429 -13.341 CURVE SMOOTH"
);
}
);
width = 692;
}
);
leftKerningGroup = O;
leftMetricsKey = O;
rightKerningGroup = C;
unicode = 0043;
userData = {
anchors = (
);
b = {
};
com.typemytype.robofont.layerData = {
b = {
anchors = (
);
components = (
);
contours = (
);
lib = {
};
name = C;
unicodes = (
);
width = 1353.89001;
};
};
components = (
);
contours = (
);
lib = {
};
name = C;
unicodes = (
);
width = 1354;
};
},
{
glyphname = D;
lastChange = "2019-09-19 11:05:06 +0000";
layers = (
{
anchors = (
{
name = bottom;
position = "{363, 0}";
},
{
name = center;
position = "{173, 358}";
},
{
name = top;
position = "{362, 705}";
}
);
background = {
anchors = (
{
name = bottom;
position = "{363, 0}";
},
{
name = center;
position = "{173, 358}";
},
{
name = top;
position = "{362, 705}";
}
);
paths = (
{
closed = 1;
nodes = (
"313 0 LINE SMOOTH",
"533 0 OFFCURVE",
"658 127 OFFCURVE",
"658 353 CURVE SMOOTH",
"658 579 OFFCURVE",
"535 705 OFFCURVE",
"313 705 CURVE SMOOTH",
"96 705 LINE",
"96 0 LINE"
);
},
{
closed = 1;
nodes = (
"138 666 LINE",
"312 666 LINE SMOOTH",
"512 666 OFFCURVE",
"613 561 OFFCURVE",
"613 353 CURVE SMOOTH",
"613 145 OFFCURVE",
"511 39 OFFCURVE",
"312 39 CURVE SMOOTH",
"138 39 LINE"
);
}
);
};
layerId = "F1F93986-3ED8-4AAE-84C4-CA3EEECDDFA0";
paths = (
{
closed = 1;
nodes = (
"313 0 LINE SMOOTH",
"534 0 OFFCURVE",
"658 123 OFFCURVE",
"658 353 CURVE SMOOTH",
"658 583 OFFCURVE",
"534 705 OFFCURVE",
"313 705 CURVE SMOOTH",
"96 705 LINE",
"96 0 LINE"
);
},
{
closed = 1;
nodes = (
"138 666 LINE",
"309 666 LINE SMOOTH",
"512 666 OFFCURVE",
"613 561 OFFCURVE",
"613 353 CURVE SMOOTH",
"613 145 OFFCURVE",
"512 39 OFFCURVE",
"309 39 CURVE SMOOTH",
"138 39 LINE"
);
}
);
width = 725;
},
{
anchors = (
{
name = bottom;
position = "{395, 0}";
},
{
name = center;
position = "{214, 358}";
},
{
name = top;
position = "{395, 705}";
}
);
background = {
anchors = (
{
name = bottom;
position = "{391, 0}";
},
{
name = center;
position = "{214, 358}";
},
{
name = top;
position = "{391, 705}";
}
);
paths = (
{
closed = 1;
nodes = (
"360 0 LINE SMOOTH",
"599 0 OFFCURVE",
"743 132 OFFCURVE",
"743 353 CURVE SMOOTH",
"743 571 OFFCURVE",
"598 705 OFFCURVE",
"360 705 CURVE SMOOTH",
"57 705 LINE",
"57 0 LINE"
);
},
{
closed = 1;
nodes = (
"272 533 LINE",
"344 533 LINE SMOOTH",
"468 533 OFFCURVE",
"528 475 OFFCURVE",
"528 353 CURVE SMOOTH",
"528 231 OFFCURVE",
"469 172 OFFCURVE",
"344 172 CURVE SMOOTH",
"272 172 LINE"
);
}
);
};
layerId = "4121B50C-FD42-45C5-8FBE-41E76D98F91E";
paths = (
{
closed = 1;
nodes = (
"365 0 LINE SMOOTH",
"615 0 OFFCURVE",
"759 130 OFFCURVE",
"759 353 CURVE SMOOTH",
"759 575 OFFCURVE",
"615 705 OFFCURVE",
"365 705 CURVE SMOOTH",
"57 705 LINE",
"57 0 LINE"
);
},
{
closed = 1;
nodes = (
"272 531 LINE",
"352 531 LINE SMOOTH",
"476 531 OFFCURVE",
"536 475 OFFCURVE",
"536 353 CURVE SMOOTH",
"536 231 OFFCURVE",
"477 174 OFFCURVE",
"352 174 CURVE SMOOTH",
"272 174 LINE"
);
}
);
width = 800;
},
{
anchors = (
{
name = bottom;
position = "{363, 0}";
},
{
name = center;
position = "{173, 283.894}";
},
{
name = top;
position = "{362, 559.065}";
}
);
layerId = master01;
paths = (
{
closed = 1;
nodes = (
"313 0 LINE SMOOTH",
"534 0 OFFCURVE",
"658 98.016 OFFCURVE",
"658 279.929 CURVE SMOOTH",
"658 461.774 OFFCURVE",
"534 559.065 OFFCURVE",
"313 559.065 CURVE SMOOTH",
"96 559.065 LINE",
"96 0 LINE"
);
},
{
closed = 1;
nodes = (
"138 518.945 LINE",
"309 518.945 LINE SMOOTH",
"512 518.945 OFFCURVE",
"613 439.017 OFFCURVE",
"613 279.929 CURVE SMOOTH",
"613 120.841 OFFCURVE",
"512 40.12 OFFCURVE",
"309 40.12 CURVE SMOOTH",
"138 40.12 LINE"
);
}
);
width = 725;
},
{
anchors = (
{
name = bottom;
position = "{363, 0}";
},
{
name = center;
position = "{173, 431.991}";
},
{
name = top;
position = "{362, 850.708}";
}
);
layerId = "E44A8709-89A6-4355-8E1B-0C9D43FBEF88";
paths = (
{
closed = 1;
nodes = (
"313 0 LINE SMOOTH",
"534 0 OFFCURVE",
"658 147.944 OFFCURVE",
"658 425.957 CURVE SMOOTH",
"658 704.038 OFFCURVE",
"534 850.708 OFFCURVE",
"313 850.708 CURVE SMOOTH",
"96 850.708 LINE",
"96 0 LINE"
);
},
{
closed = 1;
nodes = (
"138 812.849 LINE",
"309 812.849 LINE SMOOTH",
"512 812.849 OFFCURVE",
"613 682.808 OFFCURVE",
"613 425.957 CURVE SMOOTH",
"613 169.106 OFFCURVE",
"512 37.859 OFFCURVE",
"309 37.859 CURVE SMOOTH",
"138 37.859 LINE"
);
}
);
width = 725;
},
{
anchors = (
{
name = bottom;
position = "{395, 0}";
},
{
name = center;
position = "{214, 285.612}";
},
{
name = top;
position = "{395, 562.447}";
}
);
layerId = "55E98211-8D07-4C6F-9443-D57FA90BECD2";
paths = (
{
closed = 1;
nodes = (
"365 0 LINE SMOOTH",
"615 0 OFFCURVE",
"759 105.337 OFFCURVE",
"759 281.623 CURVE SMOOTH",
"759 456.879 OFFCURVE",
"615 562.447 OFFCURVE",
"365 562.447 CURVE SMOOTH",
"57 562.447 LINE",
"57 0 LINE"
);
},
{
closed = 1;
nodes = (
"272 392.33 LINE",
"352 392.33 LINE SMOOTH",
"476 392.33 OFFCURVE",
"536 359.014 OFFCURVE",
"536 281.623 CURVE SMOOTH",
"536 204.231 OFFCURVE",
"477 170.117 OFFCURVE",
"352 170.117 CURVE SMOOTH",
"272 170.117 LINE"
);
}
);
width = 800;
},
{
anchors = (
{
name = bottom;
position = "{395, 0}";
},
{
name = center;
position = "{214, 430.48}";
},
{
name = top;
position = "{395, 847.732}";
}
);
layerId = "E57D9CFB-71CF-4090-BA17-28A43A9C1B36";
paths = (
{
closed = 1;
nodes = (
"365 0 LINE SMOOTH",
"615 0 OFFCURVE",
"759 154.414 OFFCURVE",
"759 424.467 CURVE SMOOTH",
"759 693.59 OFFCURVE",
"615 847.732 OFFCURVE",
"365 847.732 CURVE SMOOTH",
"57 847.732 LINE",
"57 0 LINE"
);
},
{
closed = 1;
nodes = (
"272 675.251 LINE",
"352 675.251 LINE SMOOTH",
"476 675.251 OFFCURVE",
"536 594.576 OFFCURVE",
"536 424.467 CURVE SMOOTH",
"536 254.359 OFFCURVE",
"477 172.481 OFFCURVE",
"352 172.481 CURVE SMOOTH",
"272 172.481 LINE"
);
}
);
width = 800;
}
);
leftKerningGroup = H;
leftMetricsKey = H;
rightKerningGroup = O;
rightMetricsKey = O;
unicode = 0044;
userData = {
anchors = (
);
b = {
};
com.typemytype.robofont.layerData = {
b = {
anchors = (
);
components = (
);
contours = (
{
points = (
{
segmentType = curve;
smooth = 1;
x = 266;
y = 0;
},
{
segmentType = line;
smooth = 1;
x = 1035;
y = 0;
},
{
smooth = 0;
x = 1084;
y = 0;
},
{
smooth = 0;
x = 1108;
y = 34;
},
{
segmentType = curve;
smooth = 1;
x = 1108;
y = 71;
},
{
smooth = 0;
x = 1108;
y = 107;
},
{
smooth = 0;
x = 1084;
y = 141;
},
{
segmentType = curve;
smooth = 1;
x = 1035;
y = 141;
},
{
segmentType = line;
smooth = 0;
x = 356;
y = 141;
},
{
segmentType = line;
smooth = 0;
x = 356;
y = 665;
},
{
segmentType = line;
smooth = 1;
x = 975;
y = 665;
},
{
smooth = 0;
x = 1024;
y = 665;
},
{
smooth = 0;
x = 1049;
y = 698;
},
{
segmentType = curve;
smooth = 1;
x = 1049;
y = 734;
},
{
smooth = 0;
x = 1049;
y = 770;
},
{
smooth = 0;
x = 1026;
y = 803;
},
{
segmentType = curve;
smooth = 1;
x = 975;
y = 803;
},
{
segmentType = line;
smooth = 0;
x = 356;
y = 803;
},
{
segmentType = line;
smooth = 0;
x = 356;
y = 1285;
},
{
segmentType = line;
smooth = 1;
x = 1007;
y = 1285;
},
{
smooth = 0;
x = 1056;
y = 1285;
},
{
smooth = 0;
x = 1080;
y = 1319;
},
{
segmentType = curve;
smooth = 1;
x = 1080;
y = 1356;
},
{
smooth = 0;
x = 1080;
y = 1392;
},
{
smooth = 0;
x = 1056;
y = 1426;
},
{
segmentType = curve;
smooth = 1;
x = 1007;
y = 1426;
},
{
segmentType = line;
smooth = 1;
x = 261;
y = 1426;
},
{
smooth = 0;
x = 213;
y = 1426;
},
{
smooth = 0;
x = 178;
y = 1383;
},
{
segmentType = curve;
smooth = 1;
x = 178;
y = 1340;
},
{
segmentType = line;
smooth = 1;
x = 178;
y = 86;
},
{
smooth = 0;
x = 178;
y = 41;
},
{
smooth = 0;
x = 222;
y = 0;
}
);
}
);
lib = {
};
name = D;
unicodes = (
);
width = 1499;
};
};
components = (
);
contours = (
);
lib = {
};
name = D;
unicodes = (
);
width = 1535;
};
},
{
glyphname = E;
lastChange = "2019-09-19 11:05:06 +0000";
layers = (
{
anchors = (
{
name = bottom;
position = "{320, 0}";
},
{
name = ogonek;
position = "{490, 0}";
},
{
name = top;
position = "{320, 705}";
},
{
name = topleft;
position = "{27, 705}";
}
);
background = {
anchors = (
{
name = bottom;
position = "{320, 0}";
},
{
name = ogonek;
position = "{490, 0}";
},
{
name = top;
position = "{320, 705}";
},
{
name = topleft;
position = "{27, 705}";
}
);
paths = (
{
closed = 1;
nodes = (
"520 705 LINE",
"96 705 LINE",
"96 0 LINE",
"520 0 LINE",
"520 39 LINE",
"138 39 LINE",
"138 338 LINE",
"500 338 LINE",
"500 377 LINE",
"138 377 LINE",
"138 666 LINE",
"520 666 LINE"
);
}
);
};
guideLines = (
{
angle = 270;
position = "{520, 353}";
}
);
layerId = "F1F93986-3ED8-4AAE-84C4-CA3EEECDDFA0";
paths = (
{
closed = 1;
nodes = (
"520 705 LINE",
"96 705 LINE",
"96 0 LINE",
"520 0 LINE",
"520 39 LINE",
"138 39 LINE",
"138 338 LINE",
"500 338 LINE",
"500 377 LINE",
"138 377 LINE",
"138 666 LINE",
"520 666 LINE"
);
}
);
width = 570;
},
{
anchors = (
{
name = bottom;
position = "{336, 0}";
},
{
name = ogonek;
position = "{541, 0}";
},
{
name = top;
position = "{336, 705}";
},
{
name = topleft;
position = "{18, 705}";
}
);
background = {
anchors = (
{
name = bottom;
position = "{336, 0}";
},
{
name = ogonek;
position = "{545, 0}";
},
{
name = top;
position = "{336, 705}";
},
{
name = topleft;
position = "{18, 705}";
}
);
paths = (
{
closed = 1;
nodes = (
"575 705 LINE",
"57 705 LINE",
"57 0 LINE",
"575 0 LINE",
"575 164 LINE",
"265 164 LINE",
"265 274 LINE",
"555 274 LINE",
"555 438 LINE",
"265 438 LINE",
"265 541 LINE",
"575 541 LINE"
);
}
);
};
guideLines = (
{
angle = 270;
position = "{575, 353}";
}
);
layerId = "4121B50C-FD42-45C5-8FBE-41E76D98F91E";
paths = (
{
closed = 1;
nodes = (
"571 705 LINE",
"57 705 LINE",
"57 0 LINE",
"571 0 LINE",
"571 164 LINE",
"262 164 LINE",
"262 276 LINE",
"548 276 LINE",
"548 440 LINE",
"262 440 LINE",
"262 541 LINE",
"571 541 LINE"
);
}
);
width = 624;
},
{
anchors = (
{
name = bottom;
position = "{320, 0}";
},
{
name = ogonek;
position = "{490, 0}";
},
{
name = top;
position = "{320, 559.065}";
},
{
name = topleft;
position = "{27, 559.065}";
}
);
layerId = master01;
paths = (
{
closed = 1;
nodes = (
"520 559.065 LINE",
"96 559.065 LINE",
"96 0 LINE",
"520 0 LINE",
"520 39.439 LINE",
"138 39.439 LINE",
"138 263.812 LINE",
"500 263.812 LINE",
"500 303.251 LINE",
"138 303.251 LINE",
"138 519.626 LINE",
"520 519.626 LINE"
);
}
);
width = 570;
},
{
anchors = (
{
name = bottom;
position = "{320, 0}";
},
{
name = ogonek;
position = "{490, 0}";
},
{
name = top;
position = "{320, 850.708}";
},
{
name = topleft;
position = "{27, 850.708}";
}
);
layerId = "E44A8709-89A6-4355-8E1B-0C9D43FBEF88";
paths = (
{
closed = 1;
nodes = (
"520 850.708 LINE",
"96 850.708 LINE",
"96 0 LINE",
"520 0 LINE",
"520 38.54 LINE",
"138 38.54 LINE",
"138 412.083 LINE",
"500 412.083 LINE",
"500 450.623 LINE",
"138 450.623 LINE",
"138 812.167 LINE",
"520 812.167 LINE"
);
}
);
width = 570;
},
{
anchors = (
{
name = bottom;
position = "{336, 0}";
},
{
name = ogonek;
position = "{541, 0}";
},
{
name = top;
position = "{336, 562.447}";
},
{
name = topleft;
position = "{18, 562.447}";
}
);
layerId = "55E98211-8D07-4C6F-9443-D57FA90BECD2";
paths = (
{
closed = 1;
nodes = (
"571 562.447 LINE",
"57 562.447 LINE",
"57 0 LINE",
"571 0 LINE",
"571 159.821 LINE",
"262 159.821 LINE",
"262 205.817 LINE",
"548 205.817 LINE",
"548 365.638 LINE",
"262 365.638 LINE",
"262 402.627 LINE",
"571 402.627 LINE"
);
}
);
width = 624;
},
{
anchors = (
{
name = bottom;
position = "{336, 0}";
},
{
name = ogonek;
position = "{541, 0}";
},
{
name = top;
position = "{336, 847.732}";
},
{
name = topleft;
position = "{18, 847.732}";
}
);
layerId = "E57D9CFB-71CF-4090-BA17-28A43A9C1B36";
paths = (
{
closed = 1;
nodes = (
"571 847.732 LINE",
"57 847.732 LINE",
"57 0 LINE",
"571 0 LINE",
"571 163.178 LINE",
"262 163.178 LINE",
"262 348.754 LINE",
"548 348.754 LINE",
"548 511.933 LINE",
"262 511.933 LINE",
"262 684.554 LINE",
"571 684.554 LINE"
);
}
);
width = 624;
}
);
leftKerningGroup = H;
leftMetricsKey = H;
rightKerningGroup = E;
unicode = 0045;
userData = {
anchors = (
);
b = {
};
com.typemytype.robofont.layerData = {
b = {
anchors = (
);
components = (
);
contours = (
);
lib = {
};
name = E;
unicodes = (
);
width = 1234;
};
};
components = (
);
contours = (
);
lib = {
};
name = E;
unicodes = (
);
width = 1258;
};
},
{
glyphname = F;
lastChange = "2019-09-19 11:05:06 +0000";
layers = (
{
anchors = (
{
name = bottom;
position = "{293, 0}";
},
{
name = top;
position = "{293, 705}";
}
);
background = {
anchors = (
{
name = bottom;
position = "{293, 0}";
},
{
name = top;
position = "{293, 705}";
}
);
paths = (
{
closed = 1;
nodes = (
"510 705 LINE",
"96 705 LINE",
"96 0 LINE",
"138 0 LINE",
"138 338 LINE",
"490 338 LINE",
"490 377 LINE",
"138 377 LINE",
"138 666 LINE",
"510 666 LINE"
);
}
);
};
layerId = "F1F93986-3ED8-4AAE-84C4-CA3EEECDDFA0";
paths = (
{
closed = 1;
nodes = (
"510 705 LINE",
"96 705 LINE",
"96 0 LINE",
"138 0 LINE",
"138 338 LINE",
"490 338 LINE",
"490 377 LINE",
"138 377 LINE",
"138 666 LINE",
"510 666 LINE"
);
}
);
width = 536;
},
{
anchors = (
{
name = bottom;
position = "{306, 0}";
},
{
name = top;
position = "{312, 705}";
}
);
background = {
anchors = (
{
name = bottom;
position = "{306, 0}";
},
{
name = top;
position = "{306, 705}";
}
);
paths = (
{
closed = 1;
nodes = (
"569 705 LINE",
"61 705 LINE",
"61 0 LINE",
"272 0 LINE",
"272 267 LINE",
"549 267 LINE",
"549 431 LINE",
"272 431 LINE",
"272 541 LINE",
"569 541 LINE"
);
}
);
};
layerId = "4121B50C-FD42-45C5-8FBE-41E76D98F91E";
paths = (
{
closed = 1;
nodes = (
"566 705 LINE",
"57 705 LINE",
"57 0 LINE",
"272 0 LINE",
"272 267 LINE",
"543 267 LINE",
"543 431 LINE",
"272 431 LINE",
"272 541 LINE",
"566 541 LINE"
);
}
);
width = 588;
},
{
anchors = (
{
name = bottom;
position = "{293, 0}";
},
{
name = top;
position = "{293, 559.065}";
}
);
layerId = master01;
paths = (
{
closed = 1;
nodes = (
"510 559.065 LINE",
"96 559.065 LINE",
"96 0 LINE",
"138 0 LINE",
"138 263.199 LINE",
"490 263.199 LINE",
"490 302.638 LINE",
"138 302.638 LINE",
"138 519.626 LINE",
"510 519.626 LINE"
);
}
);
width = 536;
},
{
anchors = (
{
name = bottom;
position = "{293, 0}";
},
{
name = top;
position = "{293, 850.708}";
}
);
layerId = "E44A8709-89A6-4355-8E1B-0C9D43FBEF88";
paths = (
{
closed = 1;
nodes = (
"510 850.708 LINE",
"96 850.708 LINE",
"96 0 LINE",
"138 0 LINE",
"138 412.696 LINE",
"490 412.696 LINE",
"490 451.237 LINE",
"138 451.237 LINE",
"138 812.167 LINE",
"510 812.167 LINE"
);
}
);
width = 536;
},
{
anchors = (
{
name = bottom;
position = "{306, 0}";
},
{
name = top;
position = "{312, 562.447}";
}
);
layerId = "55E98211-8D07-4C6F-9443-D57FA90BECD2";
paths = (
{
closed = 1;
nodes = (
"566 562.447 LINE",
"57 562.447 LINE",
"57 0 LINE",
"272 0 LINE",
"272 196.55 LINE",
"543 196.55 LINE",
"543 356.371 LINE",
"272 356.371 LINE",
"272 402.627 LINE",
"566 402.627 LINE"
);
}
);
width = 588;
},
{
anchors = (
{
name = bottom;
position = "{306, 0}";
},
{
name = top;
position = "{312, 847.732}";
}
);
layerId = "E57D9CFB-71CF-4090-BA17-28A43A9C1B36";
paths = (
{
closed = 1;
nodes = (
"566 847.732 LINE",
"57 847.732 LINE",
"57 0 LINE",
"272 0 LINE",
"272 340.382 LINE",
"543 340.382 LINE",
"543 503.56 LINE",
"272 503.56 LINE",
"272 684.554 LINE",
"566 684.554 LINE"
);
}
);
width = 588;
}
);
leftKerningGroup = H;
leftMetricsKey = H;
rightKerningGroup = F;
unicode = 0046;
userData = {
anchors = (
);
b = {
};
com.typemytype.robofont.layerData = {
b = {
anchors = (
);
components = (
);
contours = (
{
points = (
{
segmentType = curve;
smooth = 1;
x = 266;
y = 0;
},
{
segmentType = line;
smooth = 1;
x = 1035;
y = 0;
},
{
smooth = 0;
x = 1084;
y = 0;
},
{
smooth = 0;
x = 1108;
y = 34;
},
{
segmentType = curve;
smooth = 1;
x = 1108;
y = 71;
},
{
smooth = 0;
x = 1108;
y = 107;
},
{
smooth = 0;
x = 1084;
y = 141;
},
{
segmentType = curve;
smooth = 1;
x = 1035;
y = 141;
},
{
segmentType = line;
smooth = 0;
x = 353;
y = 141;
},
{
segmentType = line;
smooth = 0;
x = 353;
y = 665;
},
{
segmentType = line;
smooth = 1;
x = 975;
y = 665;
},
{
smooth = 0;
x = 1024;
y = 665;
},
{
smooth = 0;
x = 1049;
y = 698;
},
{
segmentType = curve;
smooth = 1;
x = 1049;
y = 734;
},
{
smooth = 0;
x = 1049;
y = 770;
},
{
smooth = 0;
x = 1026;
y = 803;
},
{
segmentType = curve;
smooth = 1;
x = 975;
y = 803;
},
{
segmentType = line;
smooth = 0;
x = 353;
y = 803;
},
{
segmentType = line;
smooth = 0;
x = 353;
y = 1285;
},
{
segmentType = line;
smooth = 1;
x = 1007;
y = 1285;
},
{
smooth = 0;
x = 1056;
y = 1285;
},
{
smooth = 0;
x = 1080;
y = 1319;
},
{
segmentType = curve;
smooth = 1;
x = 1080;
y = 1356;
},
{
smooth = 0;
x = 1080;
y = 1392;
},
{
smooth = 0;
x = 1056;
y = 1426;
},
{
segmentType = curve;
smooth = 1;
x = 1007;
y = 1426;
},
{
segmentType = line;
smooth = 1;
x = 261;
y = 1426;
},
{
smooth = 0;
x = 213;
y = 1426;
},
{
smooth = 0;
x = 178;
y = 1383;
},
{
segmentType = curve;
smooth = 1;
x = 178;
y = 1340;
},
{
segmentType = line;
smooth = 1;
x = 178;
y = 86;
},
{
smooth = 0;
x = 178;
y = 41;
},
{
smooth = 0;
x = 222;
y = 0;
}
);
}
);
lib = {
};
name = F;
unicodes = (
);
width = 1142;
};
};
components = (
);
contours = (
);
lib = {
};
name = F;
unicodes = (
);
width = 1175;
};
},
{
glyphname = G;
lastChange = "2019-09-19 11:05:06 +0000";
layers = (
{
anchors = (
{
name = bottom;
position = "{390, 0}";
},
{
name = top;
position = "{383, 705}";
}
);
background = {
paths = (
{
closed = 1;
nodes = (
"479 -8 OFFCURVE",
"561 24 OFFCURVE",
"619 87 CURVE",
"597 122 LINE",
"534 59 OFFCURVE",
"468 33 OFFCURVE",
"380 33 CURVE SMOOTH",
"208 33 OFFCURVE",
"112 150 OFFCURVE",
"112 353 CURVE SMOOTH",
"112 555 OFFCURVE",
"208 672 OFFCURVE",
"380 672 CURVE SMOOTH",
"468 672 OFFCURVE",
"534 646 OFFCURVE",
"597 583 CURVE",
"619 618 LINE",
"561 681 OFFCURVE",
"479 713 OFFCURVE",
"381 713 CURVE SMOOTH",
"183 713 OFFCURVE",
"67 576 OFFCURVE",
"67 353 CURVE SMOOTH",
"67 129 OFFCURVE",
"183 -8 OFFCURVE",
"381 -8 CURVE SMOOTH"
);
}
);
};
layerId = "F1F93986-3ED8-4AAE-84C4-CA3EEECDDFA0";
paths = (
{
closed = 1;
nodes = (
"482 -8 OFFCURVE",
"579 13 OFFCURVE",
"628 40 CURVE",
"628 355 LINE",
"394 355 LINE",
"394 316 LINE",
"588 316 LINE",
"588 35 LINE",
"600 73 LINE",
"543 47 OFFCURVE",
"475 33 OFFCURVE",
"401 33 CURVE SMOOTH",
"208 33 OFFCURVE",
"112 145 OFFCURVE",
"112 353 CURVE SMOOTH",
"112 555 OFFCURVE",
"208 672 OFFCURVE",
"380 672 CURVE SMOOTH",
"470 672 OFFCURVE",
"537 646 OFFCURVE",
"602 583 CURVE",
"624 618 LINE",
"564 681 OFFCURVE",
"481 713 OFFCURVE",
"381 713 CURVE SMOOTH",
"183 713 OFFCURVE",
"67 576 OFFCURVE",
"67 353 CURVE SMOOTH",
"67 124 OFFCURVE",
"183 -8 OFFCURVE",
"402 -8 CURVE SMOOTH"
);
}
);
width = 718;
},
{
anchors = (
{
name = bottom;
position = "{426, 0}";
},
{
name = top;
position = "{419, 705}";
}
);
background = {
paths = (
{
closed = 1;
nodes = (
"521 -12 OFFCURVE",
"617 19 OFFCURVE",
"669 63 CURVE",
"607 232 LINE",
"549 193 OFFCURVE",
"493 175 OFFCURVE",
"437 175 CURVE SMOOTH",
"323 175 OFFCURVE",
"268 237 OFFCURVE",
"268 353 CURVE SMOOTH",
"268 468 OFFCURVE",
"329 530 OFFCURVE",
"457 530 CURVE SMOOTH",
"520 530 OFFCURVE",
"582 512 OFFCURVE",
"647 473 CURVE",
"709 642 LINE",
"654 686 OFFCURVE",
"552 717 OFFCURVE",
"454 717 CURVE SMOOTH",
"196 717 OFFCURVE",
"41 572 OFFCURVE",
"41 353 CURVE SMOOTH",
"41 133 OFFCURVE",
"187 -12 OFFCURVE",
"429 -12 CURVE SMOOTH"
);
}
);
};
layerId = "4121B50C-FD42-45C5-8FBE-41E76D98F91E";
paths = (
{
closed = 1;
nodes = (
"525 -12 OFFCURVE",
"621 7 OFFCURVE",
"701 44 CURVE",
"701 406 LINE",
"397 406 LINE",
"397 258 LINE",
"527 258 LINE",
"527 110 LINE",
"565 187 LINE",
"519 174 OFFCURVE",
"475 167 OFFCURVE",
"442 167 CURVE SMOOTH",
"326 167 OFFCURVE",
"264 228 OFFCURVE",
"264 348 CURVE SMOOTH",
"264 470 OFFCURVE",
"323 534 OFFCURVE",
"450 534 CURVE SMOOTH",
"516 534 OFFCURVE",
"575 519 OFFCURVE",
"636 484 CURVE",
"699 649 LINE",
"645 689 OFFCURVE",
"546 717 OFFCURVE",
"448 717 CURVE SMOOTH",
"192 717 OFFCURVE",
"41 572 OFFCURVE",
"41 348 CURVE SMOOTH",
"41 136 OFFCURVE",
"181 -12 OFFCURVE",
"429 -12 CURVE SMOOTH"
);
}
);
width = 754;
},
{
anchors = (
{
name = bottom;
position = "{390, 0}";
},
{
name = top;
position = "{383, 559.065}";
}
);
layerId = master01;
paths = (
{
closed = 1;
nodes = (
"482 -6.616 OFFCURVE",
"579 9.9 OFFCURVE",
"628 31.992 CURVE",
"628 284.988 LINE",
"394 284.988 LINE",
"394 246.638 LINE",
"588 246.638 LINE",
"588 32.862 LINE",
"600 65.652 LINE",
"543 45.919 OFFCURVE",
"475 35.294 OFFCURVE",
"401 35.294 CURVE SMOOTH",
"208 35.294 OFFCURVE",
"112 120.637 OFFCURVE",
"112 279.589 CURVE SMOOTH",
"112 434.327 OFFCURVE",
"208 523.499 OFFCURVE",
"380 523.499 CURVE SMOOTH",
"470 523.499 OFFCURVE",
"537 503.63 OFFCURVE",
"602 455.577 CURVE",
"624 492.185 LINE",
"564 540.578 OFFCURVE",
"481 565.681 OFFCURVE",
"381 565.681 CURVE SMOOTH",
"183 565.681 OFFCURVE",
"67 456.496 OFFCURVE",
"67 279.589 CURVE SMOOTH",
"67 99.149 OFFCURVE",
"183 -6.616 OFFCURVE",
"402 -6.616 CURVE SMOOTH"
);
}
);
width = 718;
},
{
anchors = (
{
name = bottom;
position = "{390, 0}";
},
{
name = top;
position = "{383, 850.708}";
}
);
layerId = "E44A8709-89A6-4355-8E1B-0C9D43FBEF88";
paths = (
{
closed = 1;
nodes = (
"482 -9.381 OFFCURVE",
"579 16.096 OFFCURVE",
"628 47.994 CURVE",
"628 424.894 LINE",
"394 424.894 LINE",
"394 385.263 LINE",
"588 385.263 LINE",
"588 37.122 LINE",
"600 80.317 LINE",
"543 48.058 OFFCURVE",
"475 30.687 OFFCURVE",
"401 30.687 CURVE SMOOTH",
"208 30.687 OFFCURVE",
"112 169.311 OFFCURVE",
"112 426.298 CURVE SMOOTH",
"112 675.5 OFFCURVE",
"208 820.293 OFFCURVE",
"380 820.293 CURVE SMOOTH",
"470 820.293 OFFCURVE",
"537 788.17 OFFCURVE",
"602 710.241 CURVE",
"624 743.614 LINE",
"564 821.202 OFFCURVE",
"481 860.088 OFFCURVE",
"381 860.088 CURVE SMOOTH",
"183 860.088 OFFCURVE",
"67 695.319 OFFCURVE",
"67 426.298 CURVE SMOOTH",
"67 148.81 OFFCURVE",
"183 -9.381 OFFCURVE",
"402 -9.381 CURVE SMOOTH"
);
}
);
width = 718;
},
{
anchors = (
{
name = bottom;
position = "{426, 0}";
},
{
name = top;
position = "{419, 562.447}";
}
);
layerId = "55E98211-8D07-4C6F-9443-D57FA90BECD2";
paths = (
{
closed = 1;
nodes = (
"525 -10.501 OFFCURVE",
"621 4.193 OFFCURVE",
"701 36.031 CURVE",
"701 335.73 LINE",
"397 335.73 LINE",
"397 192.384 LINE",
"527 192.384 LINE",
"527 105.147 LINE",
"565 175.62 LINE",
"519 168.262 OFFCURVE",
"475 164.301 OFFCURVE",
"442 164.301 CURVE SMOOTH",
"326 164.301 OFFCURVE",
"264 201.142 OFFCURVE",
"264 276.474 CURVE SMOOTH",
"264 355.257 OFFCURVE",
"323 394.028 OFFCURVE",
"450 394.028 CURVE SMOOTH",
"516 394.028 OFFCURVE",
"575 384.611 OFFCURVE",
"636 363.18 CURVE",
"699 524.958 LINE",
"645 551.537 OFFCURVE",
"546 572.948 OFFCURVE",
"448 572.948 CURVE SMOOTH",
"192 572.948 OFFCURVE",
"41 455.413 OFFCURVE",
"41 276.474 CURVE SMOOTH",
"41 111.283 OFFCURVE",
"181 -10.501 OFFCURVE",
"429 -10.501 CURVE SMOOTH"
);
}
);
width = 754;
},
{
anchors = (
{
name = bottom;
position = "{426, 0}";
},
{
name = top;
position = "{419, 847.732}";
}
);
layerId = "E57D9CFB-71CF-4090-BA17-28A43A9C1B36";
paths = (
{
closed = 1;
nodes = (
"525 -13.341 OFFCURVE",
"621 10.05 OFFCURVE",
"701 51.819 CURVE",
"701 474.315 LINE",
"397 474.315 LINE",
"397 326.021 LINE",
"527 326.021 LINE",
"527 111.855 LINE",
"565 193.829 LINE",
"519 174.658 OFFCURVE",
"475 164.336 OFFCURVE",
"442 164.336 CURVE SMOOTH",
"326 164.336 OFFCURVE",
"264 251.568 OFFCURVE",
"264 419.816 CURVE SMOOTH",
"264 588.292 OFFCURVE",
"323 679.675 OFFCURVE",
"450 679.675 CURVE SMOOTH",
"516 679.675 OFFCURVE",
"575 658.644 OFFCURVE",
"636 608.937 CURVE",
"699 771.956 LINE",
"645 826.315 OFFCURVE",
"546 861.073 OFFCURVE",
"448 861.073 CURVE SMOOTH",
"192 861.073 OFFCURVE",
"41 688.894 OFFCURVE",
"41 419.816 CURVE SMOOTH",
"41 160.268 OFFCURVE",
"181 -13.341 OFFCURVE",
"429 -13.341 CURVE SMOOTH"
);
}
);
width = 754;
}
);
leftKerningGroup = O;
leftMetricsKey = O;
rightKerningGroup = G;
unicode = 0047;
userData = {
anchors = (
);
b = {
};
com.typemytype.robofont.layerData = {
b = {
anchors = (
);
components = (
);
contours = (
{
points = (
{
segmentType = curve;
smooth = 1;
x = 783;
y = "-22";
},
{
smooth = 0;
x = 965;
y = "-22";
},
{
smooth = 0;
x = 1086;
y = 34;
},
{
segmentType = curve;
smooth = 1;
x = 1166;
y = 86;
},
{
smooth = 0;
x = 1270;
y = 154;
},
{
smooth = 0;
x = 1186;
y = 258;
},
{
segmentType = curve;
smooth = 1;
x = 1112;
y = 214;
},
{
smooth = 0;
x = 1024;
y = 162;
},
{
smooth = 0;
x = 939;
y = 120;
},
{
segmentType = curve;
smooth = 1;
x = 806;
y = 120;
},
{
smooth = 0;
x = 446;
y = 120;
},
{
smooth = 0;
x = 316;
y = 406;
},
{
segmentType = curve;
smooth = 1;
x = 316;
y = 706;
},
{
smooth = 0;
x = 316;
y = 1005;
},
{
smooth = 0;
x = 450;
y = 1296;
},
{
segmentType = curve;
smooth = 1;
x = 801;
y = 1296;
},
{
smooth = 0;
x = 980;
y = 1296;
},
{
smooth = 0;
x = 1053;
y = 1246;
},
{
segmentType = curve;
smooth = 1;
x = 1094;
y = 1225;
},
{
smooth = 0;
x = 1174;
y = 1184;
},
{
smooth = 0;
x = 1231;
y = 1300;
},
{
segmentType = curve;
smooth = 1;
x = 1156;
y = 1343;
},
{
smooth = 0;
x = 1106;
y = 1372;
},
{
smooth = 0;
x = 995;
y = 1438;
},
{
segmentType = curve;
smooth = 1;
x = 797;
y = 1438;
},
{
smooth = 0;
x = 359;
y = 1438;
},
{
smooth = 0;
x = 128;
y = 1093;
},
{
segmentType = curve;
smooth = 1;
x = 128;
y = 704;
},
{
smooth = 0;
x = 128;
y = 307;
},
{
smooth = 0;
x = 350;
y = "-22";
}
);
}
);
lib = {
};
name = G;
unicodes = (
);
width = 1448;
};
};
components = (
);
contours = (
);
lib = {
};
name = G;
unicodes = (
);
width = 1538;
};
},
{
glyphname = H;
lastChange = "2019-09-19 11:05:06 +0000";
layers = (
{
anchors = (
{
name = bottom;
position = "{376, 0}";
},
{
name = center;
position = "{376, 546}";
},
{
name = top;
position = "{375, 705}";
},
{
name = topleft;
position = "{27, 705}";
}
);
background = {
anchors = (
{
name = bottom;
position = "{376, 0}";
},
{
name = center;
position = "{376, 546}";
},
{
name = top;
position = "{375, 705}";
},
{
name = topleft;
position = "{27, 705}";
}
);
paths = (
{
closed = 1;
nodes = (
"613 377 LINE",
"138 377 LINE",
"138 705 LINE",
"96 705 LINE",
"96 0 LINE",
"138 0 LINE",
"138 338 LINE",
"613 338 LINE",
"613 0 LINE",
"655 0 LINE",
"655 705 LINE",
"613 705 LINE"
);
}
);
};
layerId = "F1F93986-3ED8-4AAE-84C4-CA3EEECDDFA0";
paths = (
{
closed = 1;
nodes = (
"613 377 LINE",
"138 377 LINE",
"138 705 LINE",
"96 705 LINE",
"96 0 LINE",
"138 0 LINE",
"138 338 LINE",
"613 338 LINE",
"613 0 LINE",
"655 0 LINE",
"655 705 LINE",
"613 705 LINE"
);
}
);
width = 751;
},
{
anchors = (
{
name = bottom;
position = "{397, 0}";
},
{
name = center;
position = "{397, 575}";
},
{
name = top;
position = "{397, 705}";
},
{
name = topleft;
position = "{18, 705}";
}
);
background = {
anchors = (
{
name = bottom;
position = "{395, 0}";
},
{
name = center;
position = "{395, 575}";
},
{
name = top;
position = "{395, 705}";
},
{
name = topleft;
position = "{18, 705}";
}
);
paths = (
{
closed = 1;
nodes = (
"518 445 LINE",
"272 445 LINE",
"272 705 LINE",
"57 705 LINE",
"57 0 LINE",
"272 0 LINE",
"272 271 LINE",
"518 271 LINE",
"518 0 LINE",
"733 0 LINE",
"733 705 LINE",
"518 705 LINE"
);
}
);
};
layerId = "4121B50C-FD42-45C5-8FBE-41E76D98F91E";
paths = (
{
closed = 1;
nodes = (
"522 445 LINE",
"272 445 LINE",
"272 705 LINE",
"57 705 LINE",
"57 0 LINE",
"272 0 LINE",
"272 269 LINE",
"522 269 LINE",
"522 0 LINE",
"737 0 LINE",
"737 705 LINE",
"522 705 LINE"
);
}
);
width = 794;
},
{
anchors = (
{
name = bottom;
position = "{376, 0}";
},
{
name = center;
position = "{376, 434.953}";
},
{
name = top;
position = "{375, 559.065}";
},
{
name = topleft;
position = "{27, 559.065}";
}
);
layerId = master01;
paths = (
{
closed = 1;
nodes = (
"613 303.592 LINE",
"138 303.592 LINE",
"138 559.065 LINE",
"96 559.065 LINE",
"96 0 LINE",
"138 0 LINE",
"138 263.335 LINE",
"613 263.335 LINE",
"613 0 LINE",
"655 0 LINE",
"655 559.065 LINE",
"613 559.065 LINE"
);
}
);
width = 751;
},
{
anchors = (
{
name = bottom;
position = "{376, 0}";
},
{
name = center;
position = "{376, 656.869}";
},
{
name = top;
position = "{375, 850.708}";
},
{
name = topleft;
position = "{27, 850.708}";
}
);
layerId = "E44A8709-89A6-4355-8E1B-0C9D43FBEF88";
paths = (
{
closed = 1;
nodes = (
"613 450.283 LINE",
"138 450.283 LINE",
"138 850.708 LINE",
"96 850.708 LINE",
"96 0 LINE",
"138 0 LINE",
"138 412.56 LINE",
"613 412.56 LINE",
"613 0 LINE",
"655 0 LINE",
"655 850.708 LINE",
"613 850.708 LINE"
);
}
);
width = 751;
},
{
anchors = (
{
name = bottom;
position = "{397, 0}";
},
{
name = center;
position = "{397, 465.457}";
},
{
name = top;
position = "{397, 562.447}";
},
{
name = topleft;
position = "{18, 562.447}";
}
);
layerId = "55E98211-8D07-4C6F-9443-D57FA90BECD2";
paths = (
{
closed = 1;
nodes = (
"522 370.786 LINE",
"272 370.786 LINE",
"272 562.447 LINE",
"57 562.447 LINE",
"57 0 LINE",
"272 0 LINE",
"272 198.61 LINE",
"522 198.61 LINE",
"522 0 LINE",
"737 0 LINE",
"737 562.447 LINE",
"522 562.447 LINE"
);
}
);
width = 794;
},
{
anchors = (
{
name = bottom;
position = "{397, 0}";
},
{
name = center;
position = "{397, 683.519}";
},
{
name = top;
position = "{397, 847.732}";
},
{
name = topleft;
position = "{18, 847.732}";
}
);
layerId = "E57D9CFB-71CF-4090-BA17-28A43A9C1B36";
paths = (
{
closed = 1;
nodes = (
"522 516.584 LINE",
"272 516.584 LINE",
"272 847.732 LINE",
"57 847.732 LINE",
"57 0 LINE",
"272 0 LINE",
"272 342.243 LINE",
"522 342.243 LINE",
"522 0 LINE",
"737 0 LINE",
"737 847.732 LINE",
"522 847.732 LINE"
);
}
);
width = 794;
}
);
leftKerningGroup = H;
rightKerningGroup = H;
rightMetricsKey = "=|";
unicode = 0048;
userData = {
anchors = (
);
b = {
};
com.typemytype.robofont.layerData = {
b = {
anchors = (
);
components = (
);
contours = (
);
lib = {
};
name = H;
unicodes = (
);
width = 1464;
};
};
components = (
);
contours = (
);
lib = {
};
name = H;
unicodes = (
);
width = 1524;
};
},
{
glyphname = Hbar;
lastChange = "2019-09-19 11:05:06 +0000";
layers = (
{
background = {
paths = (
{
closed = 1;
nodes = (
"628 377 LINE",
"153 377 LINE",
"153 705 LINE",
"111 705 LINE",
"111 0 LINE",
"153 0 LINE",
"153 338 LINE",
"628 338 LINE",
"628 0 LINE",
"670 0 LINE",
"670 705 LINE",
"628 705 LINE"
);
},
{
closed = 1;
nodes = (
"766 527 LINE",
"766 565 LINE",
"15 565 LINE",
"15 527 LINE"
);
}
);
};
layerId = "F1F93986-3ED8-4AAE-84C4-CA3EEECDDFA0";
paths = (
{
closed = 1;
nodes = (
"670 565 LINE",
"670 705 LINE",
"628 705 LINE",
"628 565 LINE",
"153 565 LINE",
"153 705 LINE",
"111 705 LINE",
"111 565 LINE",
"15 565 LINE",
"15 527 LINE",
"111 527 LINE",
"111 0 LINE",
"153 0 LINE",
"153 338 LINE",
"628 338 LINE",
"628 0 LINE",
"670 0 LINE",
"670 527 LINE",
"766 527 LINE",
"766 565 LINE"
);
},
{
closed = 1;
nodes = (
"153 377 LINE",
"153 527 LINE",
"628 527 LINE",
"628 377 LINE"
);
}
);
width = 781;
},
{
background = {
paths = (
{
closed = 1;
nodes = (
"552 445 LINE",
"302 445 LINE",
"302 705 LINE",
"87 705 LINE",
"87 0 LINE",
"302 0 LINE",
"302 269 LINE",
"552 269 LINE",
"552 0 LINE",
"767 0 LINE",
"767 705 LINE",
"552 705 LINE"
);
},
{
closed = 1;
nodes = (
"841 500 LINE",
"841 650 LINE",
"13 650 LINE",
"13 500 LINE"
);
}
);
};
layerId = "4121B50C-FD42-45C5-8FBE-41E76D98F91E";
paths = (
{
closed = 1;
nodes = (
"767 650 LINE",
"767 705 LINE",
"552 705 LINE",
"552 650 LINE",
"302 650 LINE",
"302 705 LINE",
"87 705 LINE",
"87 650 LINE",
"13 650 LINE",
"13 500 LINE",
"87 500 LINE",
"87 0 LINE",
"302 0 LINE",
"302 269 LINE",
"552 269 LINE",
"552 0 LINE",
"767 0 LINE",
"767 500 LINE",
"841 500 LINE",
"841 650 LINE"
);
},
{
closed = 1;
nodes = (
"302 445 LINE",
"302 500 LINE",
"552 500 LINE",
"552 445 LINE"
);
}
);
width = 854;
},
{
layerId = master01;
paths = (
{
closed = 1;
nodes = (
"670 453.833 LINE",
"670 559.065 LINE",
"628 559.065 LINE",
"628 453.833 LINE",
"153 453.833 LINE",
"153 559.065 LINE",
"111 559.065 LINE",
"111 453.833 LINE",
"15 453.833 LINE",
"15 416.072 LINE",
"111 416.072 LINE",
"111 0 LINE",
"153 0 LINE",
"153 263.335 LINE",
"628 263.335 LINE",
"628 0 LINE",
"670 0 LINE",
"670 416.072 LINE",
"766 416.072 LINE",
"766 453.833 LINE"
);
},
{
closed = 1;
nodes = (
"153 303.592 LINE",
"153 416.072 LINE",
"628 416.072 LINE",
"628 303.592 LINE"
);
}
);
width = 781;
},
{
layerId = "E44A8709-89A6-4355-8E1B-0C9D43FBEF88";
paths = (
{
closed = 1;
nodes = (
"670 675.979 LINE",
"670 850.708 LINE",
"628 850.708 LINE",
"628 675.979 LINE",
"153 675.979 LINE",
"153 850.708 LINE",
"111 850.708 LINE",
"111 675.979 LINE",
"15 675.979 LINE",
"15 637.759 LINE",
"111 637.759 LINE",
"111 0 LINE",
"153 0 LINE",
"153 412.56 LINE",
"628 412.56 LINE",
"628 0 LINE",
"670 0 LINE",
"670 637.759 LINE",
"766 637.759 LINE",
"766 675.979 LINE"
);
},
{
closed = 1;
nodes = (
"153 450.283 LINE",
"153 637.759 LINE",
"628 637.759 LINE",
"628 450.283 LINE"
);
}
);
width = 781;
},
{
layerId = "55E98211-8D07-4C6F-9443-D57FA90BECD2";
paths = (
{
closed = 1;
nodes = (
"767 538.276 LINE",
"767 562.447 LINE",
"552 562.447 LINE",
"552 538.276 LINE",
"302 538.276 LINE",
"302 562.447 LINE",
"87 562.447 LINE",
"87 538.276 LINE",
"13 538.276 LINE",
"13 392.639 LINE",
"87 392.639 LINE",
"87 0 LINE",
"302 0 LINE",
"302 198.61 LINE",
"552 198.61 LINE",
"552 0 LINE",
"767 0 LINE",
"767 392.639 LINE",
"841 392.639 LINE",
"841 538.276 LINE"
);
},
{
closed = 1;
nodes = (
"302 370.786 LINE",
"302 392.639 LINE",
"552 392.639 LINE",
"552 370.786 LINE"
);
}
);
width = 854;
},
{
layerId = "E57D9CFB-71CF-4090-BA17-28A43A9C1B36";
paths = (
{
closed = 1;
nodes = (
"767 758.46 LINE",
"767 847.732 LINE",
"552 847.732 LINE",
"552 758.46 LINE",
"302 758.46 LINE",
"302 847.732 LINE",
"87 847.732 LINE",
"87 758.46 LINE",
"13 758.46 LINE",
"13 608.578 LINE",
"87 608.578 LINE",
"87 0 LINE",
"302 0 LINE",
"302 342.243 LINE",
"552 342.243 LINE",
"552 0 LINE",
"767 0 LINE",
"767 608.578 LINE",
"841 608.578 LINE",
"841 758.46 LINE"
);
},
{
closed = 1;
nodes = (
"302 516.584 LINE",
"302 608.578 LINE",
"552 608.578 LINE",
"552 516.584 LINE"
);
}
);
width = 854;
}
);
leftKerningGroup = H;
rightKerningGroup = H;
unicode = 0126;
userData = {
com.typemytype.robofont.layerData = {
b = {
anchors = (
);
components = (
);
contours = (
);
lib = {
};
name = Hbar;
unicodes = (
);
width = 1464;
};
};
};
},
{
glyphname = I;
lastChange = "2019-09-19 11:05:06 +0000";
layers = (
{
anchors = (
{
name = bottom;
position = "{117, 0}";
},
{
name = ogonek;
position = "{138, 0}";
},
{
name = top;
position = "{117, 705}";
},
{
name = topleft;
position = "{28, 705}";
}
);
background = {
anchors = (
{
name = bottom;
position = "{117, 0}";
},
{
name = ogonek;
position = "{138, 0}";
},
{
name = top;
position = "{117, 705}";
},
{
name = topleft;
position = "{28, 705}";
}
);
paths = (
{
closed = 1;
nodes = (
"138 0 LINE",
"138 705 LINE",
"96 705 LINE",
"96 0 LINE"
);
}
);
};
layerId = "F1F93986-3ED8-4AAE-84C4-CA3EEECDDFA0";
paths = (
{
closed = 1;
nodes = (
"138 0 LINE",
"138 705 LINE",
"96 705 LINE",
"96 0 LINE"
);
}
);
width = 234;
},
{
anchors = (
{
name = bottom;
position = "{164, 0}";
},
{
name = ogonek;
position = "{215, 0}";
},
{
name = top;
position = "{164, 705}";
},
{
name = topleft;
position = "{18, 705}";
}
);
background = {
anchors = (
{
name = bottom;
position = "{164, 0}";
},
{
name = ogonek;
position = "{215, 0}";
},
{
name = top;
position = "{164, 705}";
},
{
name = topleft;
position = "{18, 705}";
}
);
paths = (
{
closed = 1;
nodes = (
"272 0 LINE",
"272 705 LINE",
"57 705 LINE",
"57 0 LINE"
);
}
);
};
layerId = "4121B50C-FD42-45C5-8FBE-41E76D98F91E";
paths = (
{
closed = 1;
nodes = (
"272 0 LINE",
"272 705 LINE",
"57 705 LINE",
"57 0 LINE"
);
}
);
width = 329;
},
{
anchors = (
{
name = bottom;
position = "{117, 0}";
},
{
name = ogonek;
position = "{138, 0}";
},
{
name = top;
position = "{117, 559.065}";
},
{
name = topleft;
position = "{28, 559.065}";
}
);
layerId = master01;
paths = (
{
closed = 1;
nodes = (
"138 0 LINE",
"138 559.065 LINE",
"96 559.065 LINE",
"96 0 LINE"
);
}
);
width = 234;
},
{
anchors = (
{
name = bottom;
position = "{117, 0}";
},
{
name = ogonek;
position = "{138, 0}";
},
{
name = top;
position = "{117, 850.708}";
},
{
name = topleft;
position = "{28, 850.708}";
}
);
layerId = "E44A8709-89A6-4355-8E1B-0C9D43FBEF88";
paths = (
{
closed = 1;
nodes = (
"138 0 LINE",
"138 850.708 LINE",
"96 850.708 LINE",
"96 0 LINE"
);
}
);
width = 234;
},
{
anchors = (
{
name = bottom;
position = "{164, 0}";
},
{
name = ogonek;
position = "{215, 0}";
},
{
name = top;
position = "{164, 562.447}";
},
{
name = topleft;
position = "{18, 562.447}";
}
);
layerId = "55E98211-8D07-4C6F-9443-D57FA90BECD2";
paths = (
{
closed = 1;
nodes = (
"272 0 LINE",
"272 562.447 LINE",
"57 562.447 LINE",
"57 0 LINE"
);
}
);
width = 329;
},
{
anchors = (
{
name = bottom;
position = "{164, 0}";
},
{
name = ogonek;
position = "{215, 0}";
},
{
name = top;
position = "{164, 847.732}";
},
{
name = topleft;
position = "{18, 847.732}";
}
);
layerId = "E57D9CFB-71CF-4090-BA17-28A43A9C1B36";
paths = (
{
closed = 1;
nodes = (
"272 0 LINE",
"272 847.732 LINE",
"57 847.732 LINE",
"57 0 LINE"
);
}
);
width = 329;
}
);
leftKerningGroup = H;
leftMetricsKey = H;
rightKerningGroup = H;
rightMetricsKey = H;
unicode = 0049;
userData = {
anchors = (
);
b = {
};
com.typemytype.robofont.layerData = {
b = {
anchors = (
);
components = (
);
contours = (
);
lib = {
};
name = I;
unicodes = (
);
width = 592;
};
};
components = (
);
contours = (
);
lib = {
};
name = I;
unicodes = (
);
width = 637;
};
},
{
glyphname = J;
lastChange = "2019-09-19 11:05:06 +0000";
layers = (
{
anchors = (
{
name = bottom;
position = "{181, 0}";
},
{
name = top;
position = "{180, 705}";
}
);
background = {
anchors = (
{
name = bottom;
position = "{181, 0}";
},
{
name = top;
position = "{180, 705}";
}
);
paths = (
{
closed = 1;
nodes = (
"44 -2 LINE SMOOTH",
"145 5 OFFCURVE",
"201 70 OFFCURVE",
"201 177 CURVE SMOOTH",
"201 705 LINE",
"159 705 LINE",
"159 179 LINE SMOOTH",
"159 96 OFFCURVE",
"116 42 OFFCURVE",
"41 36 CURVE SMOOTH",
"-10 32 LINE",
"-6 -6 LINE"
);
}
);
};
layerId = "F1F93986-3ED8-4AAE-84C4-CA3EEECDDFA0";
paths = (
{
closed = 1;
nodes = (
"44 -2 LINE SMOOTH",
"145 5 OFFCURVE",
"201 70 OFFCURVE",
"201 177 CURVE SMOOTH",
"201 705 LINE",
"159 705 LINE",
"159 179 LINE SMOOTH",
"159 96 OFFCURVE",
"116 42 OFFCURVE",
"41 36 CURVE SMOOTH",
"-10 32 LINE",
"-6 -6 LINE"
);
}
);
width = 297;
},
{
anchors = (
{
name = bottom;
position = "{246, 0}";
},
{
name = top;
position = "{246, 705}";
}
);
background = {
anchors = (
{
name = bottom;
position = "{246, 0}";
},
{
name = top;
position = "{246, 705}";
}
);
paths = (
{
closed = 1;
nodes = (
"117 -7 LINE SMOOTH",
"277 2 OFFCURVE",
"354 76 OFFCURVE",
"354 221 CURVE SMOOTH",
"354 705 LINE",
"139 705 LINE",
"139 217 LINE SMOOTH",
"139 177 OFFCURVE",
"123 166 OFFCURVE",
"80 164 CURVE SMOOTH",
"-9 159 LINE",
"4 -12 LINE"
);
}
);
};
layerId = "4121B50C-FD42-45C5-8FBE-41E76D98F91E";
paths = (
{
closed = 1;
nodes = (
"117 -7 LINE SMOOTH",
"277 2 OFFCURVE",
"354 76 OFFCURVE",
"354 221 CURVE SMOOTH",
"354 705 LINE",
"139 705 LINE",
"139 217 LINE SMOOTH",
"139 177 OFFCURVE",
"123 166 OFFCURVE",
"80 164 CURVE SMOOTH",
"-9 159 LINE",
"4 -12 LINE"
);
}
);
width = 411;
},
{
anchors = (
{
name = bottom;
position = "{181, 0}";
},
{
name = top;
position = "{180, 559.065}";
}
);
layerId = master01;
paths = (
{
closed = 1;
nodes = (
"44 -1.926 LINE SMOOTH",
"145 3.761 OFFCURVE",
"201 55.919 OFFCURVE",
"201 143.357 CURVE SMOOTH",
"201 559.065 LINE",
"159 559.065 LINE",
"159 144.535 LINE SMOOTH",
"159 81.644 OFFCURVE",
"116 41.75 OFFCURVE",
"41 37.264 CURVE SMOOTH",
"-10 34.024 LINE",
"-6 -5.167 LINE"
);
}
);
width = 297;
},
{
anchors = (
{
name = bottom;
position = "{181, 0}";
},
{
name = top;
position = "{180, 850.708}";
}
);
layerId = "E44A8709-89A6-4355-8E1B-0C9D43FBEF88";
paths = (
{
closed = 1;
nodes = (
"44 -2.073 LINE SMOOTH",
"145 6.238 OFFCURVE",
"201 84.058 OFFCURVE",
"201 210.583 CURVE SMOOTH",
"201 850.708 LINE",
"159 850.708 LINE",
"159 213.405 LINE SMOOTH",
"159 110.32 OFFCURVE",
"116 42.229 OFFCURVE",
"41 34.716 CURVE SMOOTH",
"-10 29.957 LINE",
"-6 -6.831 LINE"
);
}
);
width = 297;
},
{
anchors = (
{
name = bottom;
position = "{246, 0}";
},
{
name = top;
position = "{246, 562.447}";
}
);
layerId = "55E98211-8D07-4C6F-9443-D57FA90BECD2";
paths = (
{
closed = 1;
nodes = (
"117 -6.744 LINE SMOOTH",
"277 0.9 OFFCURVE",
"354 62.024 OFFCURVE",
"354 186.515 CURVE SMOOTH",
"354 562.447 LINE",
"139 562.447 LINE",
"139 181.933 LINE SMOOTH",
"139 159.99 OFFCURVE",
"123 161.184 OFFCURVE",
"80 160.516 CURVE SMOOTH",
"-9 156.295 LINE",
"4 -10.965 LINE"
);
}
);
width = 411;
},
{
anchors = (
{
name = bottom;
position = "{246, 0}";
},
{
name = top;
position = "{246, 847.732}";
}
);
layerId = "E57D9CFB-71CF-4090-BA17-28A43A9C1B36";
paths = (
{
closed = 1;
nodes = (
"117 -7.056 LINE SMOOTH",
"277 3.222 OFFCURVE",
"354 89.754 OFFCURVE",
"354 253.766 CURVE SMOOTH",
"354 847.732 LINE",
"139 847.732 LINE",
"139 250.59 LINE SMOOTH",
"139 190.787 OFFCURVE",
"123 165.855 OFFCURVE",
"80 162.362 CURVE SMOOTH",
"-9 156.622 LINE",
"4 -12.796 LINE"
);
}
);
width = 411;
}
);
leftKerningGroup = J;
rightKerningGroup = J;
rightMetricsKey = H;
unicode = 004A;
userData = {
anchors = (
);
b = {
};
com.typemytype.robofont.layerData = {
b = {
anchors = (
);
components = (
);
contours = (
);
lib = {
};
name = J;
unicodes = (
);
width = 1003;
};
};
components = (
);
contours = (
);
lib = {
};
name = J;
unicodes = (
);
width = 1126;
};
},
{
glyphname = K;
lastChange = "2019-09-19 11:05:06 +0000";
layers = (
{
anchors = (
{
name = bottom;
position = "{302, 0}";
},
{
name = top;
position = "{301, 705}";
},
{
name = topleft;
position = "{27, 705}";
}
);
background = {
anchors = (
{
name = bottom;
position = "{302, 0}";
},
{
name = top;
position = "{301, 705}";
},
{
name = topleft;
position = "{27, 705}";
}
);
paths = (
{
closed = 1;
nodes = (
"158 376 LINE",
"158 341 LINE",
"569 705 LINE",
"509 705 LINE",
"140 377 LINE",
"138 377 LINE",
"138 705 LINE",
"96 705 LINE",
"96 0 LINE",
"138 0 LINE",
"138 338 LINE",
"140 338 LINE",
"530 0 LINE",
"592 0 LINE"
);
}
);
};
layerId = "F1F93986-3ED8-4AAE-84C4-CA3EEECDDFA0";
paths = (
{
closed = 1;
nodes = (
"160 374 LINE",
"158 342 LINE",
"568 705 LINE",
"509 705 LINE",
"140 377 LINE",
"138 377 LINE",
"138 705 LINE",
"96 705 LINE",
"96 0 LINE",
"138 0 LINE",
"138 338 LINE",
"140 338 LINE",
"532 0 LINE",
"594 0 LINE"
);
}
);
width = 590;
},
{
anchors = (
{
name = bottom;
position = "{362, 0}";
},
{
name = top;
position = "{362, 705}";
},
{
name = topleft;
position = "{18, 705}";
}
);
background = {
anchors = (
{
name = bottom;
position = "{362, 0}";
},
{
name = top;
position = "{362, 705}";
},
{
name = topleft;
position = "{18, 705}";
}
);
paths = (
{
closed = 1;
nodes = (
"446 418 LINE",
"446 331 LINE",
"780 705 LINE",
"527 705 LINE",
"274 408 LINE",
"272 408 LINE",
"272 705 LINE",
"57 705 LINE",
"57 0 LINE",
"272 0 LINE",
"272 314 LINE",
"274 314 LINE",
"532 0 LINE",
"788 0 LINE"
);
}
);
};
layerId = "4121B50C-FD42-45C5-8FBE-41E76D98F91E";
paths = (
{
closed = 1;
nodes = (
"446 416 LINE",
"446 331 LINE",
"780 705 LINE",
"527 705 LINE",
"274 408 LINE",
"272 408 LINE",
"272 705 LINE",
"57 705 LINE",
"57 0 LINE",
"272 0 LINE",
"272 314 LINE",
"274 314 LINE",
"534 0 LINE",
"788 0 LINE"
);
}
);
width = 739;
},
{
anchors = (
{
name = bottom;
position = "{302, 0}";
},
{
name = top;
position = "{301, 559.065}";
},
{
name = topleft;
position = "{27, 559.065}";
}
);
layerId = master01;
paths = (
{
closed = 1;
nodes = (
"160 299.442 LINE",
"158 270.457 LINE",
"568 559.065 LINE",
"509 559.065 LINE",
"140 301.072 LINE",
"138 301.072 LINE",
"138 559.065 LINE",
"96 559.065 LINE",
"96 0 LINE",
"138 0 LINE",
"138 266.4 LINE",
"140 266.4 LINE",
"532 0 LINE",
"594 0 LINE"
);
}
);
width = 590;
},
{
anchors = (
{
name = bottom;
position = "{302, 0}";
},
{
name = top;
position = "{301, 850.708}";
},
{
name = topleft;
position = "{27, 850.708}";
}
);
layerId = "E44A8709-89A6-4355-8E1B-0C9D43FBEF88";
paths = (
{
closed = 1;
nodes = (
"160 448.435 LINE",
"158 413.433 LINE",
"568 850.708 LINE",
"509 850.708 LINE",
"140 452.804 LINE",
"138 452.804 LINE",
"138 850.708 LINE",
"96 850.708 LINE",
"96 0 LINE",
"138 0 LINE",
"138 409.493 LINE",
"140 409.493 LINE",
"532 0 LINE",
"594 0 LINE"
);
}
);
width = 590;
},
{
anchors = (
{
name = bottom;
position = "{362, 0}";
},
{
name = top;
position = "{362, 562.447}";
},
{
name = topleft;
position = "{18, 562.447}";
}
);
layerId = "55E98211-8D07-4C6F-9443-D57FA90BECD2";
paths = (
{
closed = 1;
nodes = (
"446 341.622 LINE",
"446 261.521 LINE",
"780 562.447 LINE",
"527 562.447 LINE",
"274 332.689 LINE",
"272 332.689 LINE",
"272 562.447 LINE",
"57 562.447 LINE",
"57 0 LINE",
"272 0 LINE",
"272 244.944 LINE",
"274 244.944 LINE",
"534 0 LINE",
"788 0 LINE"
);
}
);
width = 739;
},
{
anchors = (
{
name = bottom;
position = "{362, 0}";
},
{
name = top;
position = "{362, 847.732}";
},
{
name = topleft;
position = "{18, 847.732}";
}
);
layerId = "E57D9CFB-71CF-4090-BA17-28A43A9C1B36";
paths = (
{
closed = 1;
nodes = (
"446 488.79 LINE",
"446 401.007 LINE",
"780 847.732 LINE",
"527 847.732 LINE",
"274 482.164 LINE",
"272 482.164 LINE",
"272 847.732 LINE",
"57 847.732 LINE",
"57 0 LINE",
"272 0 LINE",
"272 384.104 LINE",
"274 384.104 LINE",
"534 0 LINE",
"788 0 LINE"
);
}
);
width = 739;
}
);
leftKerningGroup = H;
leftMetricsKey = H;
rightKerningGroup = K;
unicode = 004B;
userData = {
anchors = (
);
b = {
};
com.typemytype.robofont.layerData = {
b = {
anchors = (
);
components = (
);
contours = (
);
lib = {
};
name = K;
unicodes = (
);
width = 1210;
};
};
components = (
);
contours = (
);
lib = {
};
name = K;
unicodes = (
);
width = 1329;
};
},
{
glyphname = L;
lastChange = "2019-09-19 11:05:06 +0000";
layers = (
{
anchors = (
{
name = bottom;
position = "{305, 0}";
},
{
name = center;
position = "{161, 387}";
},
{
name = dot;
position = "{384, 386}";
},
{
name = top;
position = "{117, 705}";
},
{
name = topright;
position = "{260, 705}";
}
);
background = {
anchors = (
{
name = bottom;
position = "{306, 0}";
},
{
name = center;
position = "{161, 387}";
},
{
name = dot;
position = "{379, 386}";
},
{
name = top;
position = "{117, 705}";
},
{
name = topright;
position = "{260, 705}";
}
);
paths = (
{
closed = 1;
nodes = (
"512 0 LINE",
"512 40 LINE",
"138 40 LINE",
"138 705 LINE",
"96 705 LINE",
"96 0 LINE"
);
}
);
};
layerId = "F1F93986-3ED8-4AAE-84C4-CA3EEECDDFA0";
paths = (
{
closed = 1;
nodes = (
"514 0 LINE",
"514 39 LINE",
"138 39 LINE",
"138 705 LINE",
"96 705 LINE",
"96 0 LINE"
);
}
);
width = 527;
},
{
anchors = (
{
name = bottom;
position = "{315, 0}";
},
{
name = center;
position = "{212, 387}";
},
{
name = dot;
position = "{465, 402}";
},
{
name = top;
position = "{164, 705}";
},
{
name = topright;
position = "{362, 705}";
}
);
background = {
anchors = (
{
name = bottom;
position = "{316, 0}";
},
{
name = center;
position = "{212, 387}";
},
{
name = dot;
position = "{456, 402}";
},
{
name = top;
position = "{164, 705}";
},
{
name = topright;
position = "{362, 705}";
}
);
paths = (
{
closed = 1;
nodes = (
"556 0 LINE",
"556 175 LINE",
"272 175 LINE",
"272 705 LINE",
"57 705 LINE",
"57 0 LINE"
);
}
);
};
layerId = "4121B50C-FD42-45C5-8FBE-41E76D98F91E";
paths = (
{
closed = 1;
nodes = (
"572 0 LINE",
"572 178 LINE",
"272 178 LINE",
"272 705 LINE",
"57 705 LINE",
"57 0 LINE"
);
}
);
width = 598;
},
{
anchors = (
{
name = bottom;
position = "{305, 0}";
},
{
name = center;
position = "{161, 306.891}";
},
{
name = dot;
position = "{384, 307.188}";
},
{
name = top;
position = "{117, 559.065}";
},
{
name = topright;
position = "{260, 559.065}";
}
);
layerId = master01;
paths = (
{
closed = 1;
nodes = (
"514 0 LINE",
"514 40.392 LINE",
"138 40.392 LINE",
"138 559.065 LINE",
"96 559.065 LINE",
"96 0 LINE"
);
}
);
width = 527;
},
{
anchors = (
{
name = bottom;
position = "{305, 0}";
},
{
name = center;
position = "{161, 466.984}";
},
{
name = dot;
position = "{384, 464.687}";
},
{
name = top;
position = "{117, 850.708}";
},
{
name = topright;
position = "{260, 850.708}";
}
);
layerId = "E44A8709-89A6-4355-8E1B-0C9D43FBEF88";
paths = (
{
closed = 1;
nodes = (
"514 0 LINE",
"514 37.586 LINE",
"138 37.586 LINE",
"138 850.708 LINE",
"96 850.708 LINE",
"96 0 LINE"
);
}
);
width = 527;
},
{
anchors = (
{
name = bottom;
position = "{315, 0}";
},
{
name = center;
position = "{212, 308.748}";
},
{
name = dot;
position = "{465, 324.424}";
},
{
name = top;
position = "{164, 562.447}";
},
{
name = topright;
position = "{362, 562.447}";
}
);
layerId = "55E98211-8D07-4C6F-9443-D57FA90BECD2";
paths = (
{
closed = 1;
nodes = (
"572 0 LINE",
"572 174.236 LINE",
"272 174.236 LINE",
"272 562.447 LINE",
"57 562.447 LINE",
"57 0 LINE"
);
}
);
width = 598;
},
{
anchors = (
{
name = bottom;
position = "{315, 0}";
},
{
name = center;
position = "{212, 465.351}";
},
{
name = dot;
position = "{465, 479.033}";
},
{
name = top;
position = "{164, 847.732}";
},
{
name = topright;
position = "{362, 847.732}";
}
);
layerId = "E57D9CFB-71CF-4090-BA17-28A43A9C1B36";
paths = (
{
closed = 1;
nodes = (
"572 0 LINE",
"572 176.202 LINE",
"272 176.202 LINE",
"272 847.732 LINE",
"57 847.732 LINE",
"57 0 LINE"
);
}
);
width = 598;
}
);
leftKerningGroup = H;
leftMetricsKey = H;
rightKerningGroup = L;
unicode = 004C;
userData = {
anchors = (
);
b = {
};
com.typemytype.robofont.layerData = {
b = {
anchors = (
);
components = (
);
contours = (
{
points = (
{
segmentType = curve;
smooth = 1;
x = 266;
y = 0;
},
{
segmentType = line;
smooth = 1;
x = 1035;
y = 0;
},
{
smooth = 0;
x = 1084;
y = 0;
},
{
smooth = 0;
x = 1108;
y = 34;
},
{
segmentType = curve;
smooth = 1;
x = 1108;
y = 71;
},
{
smooth = 0;
x = 1108;
y = 107;
},
{
smooth = 0;
x = 1084;
y = 141;
},
{
segmentType = curve;
smooth = 1;
x = 1035;
y = 141;
},
{
segmentType = line;
smooth = 0;
x = 356;
y = 141;
},
{
segmentType = line;
smooth = 0;
x = 356;
y = 665;
},
{
segmentType = line;
smooth = 1;
x = 975;
y = 665;
},
{
smooth = 0;
x = 1024;
y = 665;
},
{
smooth = 0;
x = 1049;
y = 698;
},
{
segmentType = curve;
smooth = 1;
x = 1049;
y = 734;
},
{
smooth = 0;
x = 1049;
y = 770;
},
{
smooth = 0;
x = 1026;
y = 803;
},
{
segmentType = curve;
smooth = 1;
x = 975;
y = 803;
},
{
segmentType = line;
smooth = 0;
x = 356;
y = 803;
},
{
segmentType = line;
smooth = 0;
x = 356;
y = 1285;
},
{
segmentType = line;
smooth = 1;
x = 1007;
y = 1285;
},
{
smooth = 0;
x = 1056;
y = 1285;
},
{
smooth = 0;
x = 1080;
y = 1319;
},
{
segmentType = curve;
smooth = 1;
x = 1080;
y = 1356;
},
{
smooth = 0;
x = 1080;
y = 1392;
},
{
smooth = 0;
x = 1056;
y = 1426;
},
{
segmentType = curve;
smooth = 1;
x = 1007;
y = 1426;
},
{
segmentType = line;
smooth = 1;
x = 261;
y = 1426;
},
{
smooth = 0;
x = 213;
y = 1426;
},
{
smooth = 0;
x = 178;
y = 1383;
},
{
segmentType = curve;
smooth = 1;
x = 178;
y = 1340;
},
{
segmentType = line;
smooth = 1;
x = 178;
y = 86;
},
{
smooth = 0;
x = 178;
y = 41;
},
{
smooth = 0;
x = 222;
y = 0;
}
);
}
);
lib = {
};
name = L;
unicodes = (
);
width = 1095;
};
};
components = (
);
contours = (
);
lib = {
};
name = L;
unicodes = (
);
width = 1169;
};
},
{
glyphname = M;
lastChange = "2019-09-19 11:05:06 +0000";
layers = (
{
anchors = (
{
name = bottom;
position = "{422, 0}";
},
{
name = top;
position = "{422, 705}";
}
);
background = {
anchors = (
{
name = bottom;
position = "{422, 0}";
},
{
name = top;
position = "{422, 705}";
}
);
paths = (
{
closed = 1;
nodes = (
"137 0 LINE",
"137 666 LINE",
"112 666 LINE",
"406 110 LINE",
"441 110 LINE",
"731 665 LINE",
"707 665 LINE",
"707 0 LINE",
"746 0 LINE",
"746 705 LINE",
"710 705 LINE",
"409 127 LINE",
"437 127 LINE",
"134 705 LINE",
"98 705 LINE",
"98 0 LINE"
);
}
);
};
layerId = "F1F93986-3ED8-4AAE-84C4-CA3EEECDDFA0";
paths = (
{
closed = 1;
nodes = (
"137 0 LINE",
"137 666 LINE",
"112 666 LINE",
"406 110 LINE",
"441 110 LINE",
"731 665 LINE",
"707 665 LINE",
"707 0 LINE",
"746 0 LINE",
"746 705 LINE",
"710 705 LINE",
"409 127 LINE",
"437 127 LINE",
"134 705 LINE",
"98 705 LINE",
"98 0 LINE"
);
}
);
width = 844;
},
{
anchors = (
{
name = bottom;
position = "{447, 0}";
},
{
name = top;
position = "{447, 705}";
}
);
background = {
paths = (
{
closed = 1;
nodes = (
"253 0 LINE",
"253 365 LINE",
"230 365 LINE",
"385 103 LINE",
"499 103 LINE",
"654 365 LINE",
"634 365 LINE",
"634 0 LINE",
"828 0 LINE",
"828 705 LINE",
"654 705 LINE",
"428 301 LINE",
"464 301 LINE",
"238 705 LINE",
"59 705 LINE",
"59 0 LINE"
);
}
);
};
layerId = "4121B50C-FD42-45C5-8FBE-41E76D98F91E";
paths = (
{
closed = 1;
nodes = (
"253 0 LINE",
"253 365 LINE",
"230 365 LINE",
"388 103 LINE",
"502 103 LINE",
"660 365 LINE",
"640 365 LINE",
"640 0 LINE",
"834 0 LINE",
"834 705 LINE",
"660 705 LINE",
"431 301 LINE",
"467 301 LINE",
"238 705 LINE",
"59 705 LINE",
"59 0 LINE"
);
}
);
width = 893;
},
{
anchors = (
{
name = bottom;
position = "{422, 0}";
},
{
name = top;
position = "{422, 559.065}";
}
);
layerId = master01;
paths = (
{
closed = 1;
nodes = (
"137 0 LINE",
"137 507.641 LINE",
"112 507.641 LINE",
"406 86.753 LINE",
"441 86.753 LINE",
"731 506.916 LINE",
"707 506.916 LINE",
"707 0 LINE",
"746 0 LINE",
"746 559.065 LINE",
"710 559.065 LINE",
"409 112.56 LINE",
"437 112.56 LINE",
"134 559.065 LINE",
"98 559.065 LINE",
"98 0 LINE"
);
}
);
width = 844;
},
{
anchors = (
{
name = bottom;
position = "{422, 0}";
},
{
name = top;
position = "{422, 850.708}";
}
);
layerId = "E44A8709-89A6-4355-8E1B-0C9D43FBEF88";
paths = (
{
closed = 1;
nodes = (
"137 0 LINE",
"137 824.163 LINE",
"112 824.163 LINE",
"406 133.212 LINE",
"441 133.212 LINE",
"731 822.889 LINE",
"707 822.889 LINE",
"707 0 LINE",
"746 0 LINE",
"746 850.708 LINE",
"710 850.708 LINE",
"409 141.388 LINE",
"437 141.388 LINE",
"134 850.708 LINE",
"98 850.708 LINE",
"98 0 LINE"
);
}
);
width = 844;
},
{
anchors = (
{
name = bottom;
position = "{447, 0}";
},
{
name = top;
position = "{447, 562.447}";
}
);
layerId = "55E98211-8D07-4C6F-9443-D57FA90BECD2";
paths = (
{
closed = 1;
nodes = (
"253 0 LINE",
"253 221.408 LINE",
"230 221.408 LINE",
"388 80.55 LINE",
"502 80.55 LINE",
"660 221.64 LINE",
"640 221.64 LINE",
"640 0 LINE",
"834 0 LINE",
"834 562.447 LINE",
"660 562.447 LINE",
"431 280.48 LINE",
"467 280.48 LINE",
"238 562.447 LINE",
"59 562.447 LINE",
"59 0 LINE"
);
}
);
width = 893;
},
{
anchors = (
{
name = bottom;
position = "{447, 0}";
},
{
name = top;
position = "{447, 847.732}";
}
);
layerId = "E57D9CFB-71CF-4090-BA17-28A43A9C1B36";
paths = (
{
closed = 1;
nodes = (
"253 0 LINE",
"253 520.828 LINE",
"230 520.828 LINE",
"388 125.758 LINE",
"502 125.758 LINE",
"660 520.556 LINE",
"640 520.556 LINE",
"640 0 LINE",
"834 0 LINE",
"834 847.732 LINE",
"660 847.732 LINE",
"431 314.577 LINE",
"467 314.577 LINE",
"238 847.732 LINE",
"59 847.732 LINE",
"59 0 LINE"
);
}
);
width = 893;
}
);
leftKerningGroup = H;
leftMetricsKey = "=H+2";
rightKerningGroup = H;
rightMetricsKey = "=H+2";
unicode = 004D;
userData = {
anchors = (
);
b = {
};
com.typemytype.robofont.layerData = {
b = {
anchors = (
);
components = (
);
contours = (
);
lib = {
};
name = M;
unicodes = (
);
width = 1899;
};
};
components = (
);
contours = (
);
lib = {
};
name = M;
unicodes = (
);
width = 1984;
};
},
{
glyphname = N;
lastChange = "2019-09-19 11:05:06 +0000";
layers = (
{
anchors = (
{
name = bottom;
position = "{366, 0}";
},
{
name = top;
position = "{366, 705}";
}
);
background = {
anchors = (
{
name = bottom;
position = "{366, 0}";
},
{
name = top;
position = "{366, 705}";
}
);
paths = (
{
closed = 1;
nodes = (
"135 0 LINE",
"135 663 LINE",
"114 663 LINE",
"602 0 LINE",
"636 0 LINE",
"636 705 LINE",
"597 705 LINE",
"597 42 LINE",
"619 42 LINE",
"131 705 LINE",
"96 705 LINE",
"96 0 LINE"
);
}
);
};
layerId = "F1F93986-3ED8-4AAE-84C4-CA3EEECDDFA0";
paths = (
{
closed = 1;
nodes = (
"135 0 LINE",
"135 663 LINE",
"114 663 LINE",
"602 0 LINE",
"636 0 LINE",
"636 705 LINE",
"597 705 LINE",
"597 42 LINE",
"619 42 LINE",
"131 705 LINE",
"96 705 LINE",
"96 0 LINE"
);
}
);
width = 732;
},
{
anchors = (
{
name = bottom;
position = "{382, 0}";
},
{
name = top;
position = "{381, 705}";
}
);
background = {
anchors = (
{
name = bottom;
position = "{382, 0}";
},
{
name = top;
position = "{381, 705}";
}
);
paths = (
{
closed = 1;
nodes = (
"257 0 LINE",
"257 390 LINE",
"228 390 LINE",
"547 0 LINE",
"706 0 LINE",
"706 705 LINE",
"506 705 LINE",
"506 314 LINE",
"534 314 LINE",
"212 705 LINE",
"57 705 LINE",
"57 0 LINE"
);
}
);
};
layerId = "4121B50C-FD42-45C5-8FBE-41E76D98F91E";
paths = (
{
closed = 1;
nodes = (
"257 0 LINE",
"257 390 LINE",
"227 390 LINE",
"549 0 LINE",
"706 0 LINE",
"706 705 LINE",
"506 705 LINE",
"506 315 LINE",
"536 315 LINE",
"214 705 LINE",
"57 705 LINE",
"57 0 LINE"
);
}
);
width = 763;
},
{
anchors = (
{
name = bottom;
position = "{366, 0}";
},
{
name = top;
position = "{366, 559.065}";
}
);
layerId = master01;
paths = (
{
closed = 1;
nodes = (
"135 0 LINE",
"135 507.169 LINE",
"114 507.169 LINE",
"602 0 LINE",
"636 0 LINE",
"636 559.065 LINE",
"597 559.065 LINE",
"597 51.896 LINE",
"619 51.896 LINE",
"131 559.065 LINE",
"96 559.065 LINE",
"96 0 LINE"
);
}
);
width = 732;
},
{
anchors = (
{
name = bottom;
position = "{366, 0}";
},
{
name = top;
position = "{366, 850.708}";
}
);
layerId = "E44A8709-89A6-4355-8E1B-0C9D43FBEF88";
paths = (
{
closed = 1;
nodes = (
"135 0 LINE",
"135 818.635 LINE",
"114 818.635 LINE",
"602 0 LINE",
"636 0 LINE",
"636 850.708 LINE",
"597 850.708 LINE",
"597 32.073 LINE",
"619 32.073 LINE",
"131 850.708 LINE",
"96 850.708 LINE",
"96 0 LINE"
);
}
);
width = 732;
},
{
anchors = (
{
name = bottom;
position = "{382, 0}";
},
{
name = top;
position = "{381, 562.447}";
}
);
layerId = "55E98211-8D07-4C6F-9443-D57FA90BECD2";
paths = (
{
closed = 1;
nodes = (
"257 0 LINE",
"257 247.845 LINE",
"227 247.845 LINE",
"549 0 LINE",
"706 0 LINE",
"706 562.447 LINE",
"506 562.447 LINE",
"506 314.603 LINE",
"536 314.603 LINE",
"214 562.447 LINE",
"57 562.447 LINE",
"57 0 LINE"
);
}
);
width = 763;
},
{
anchors = (
{
name = bottom;
position = "{382, 0}";
},
{
name = top;
position = "{381, 847.732}";
}
);
layerId = "E57D9CFB-71CF-4090-BA17-28A43A9C1B36";
paths = (
{
closed = 1;
nodes = (
"257 0 LINE",
"257 543.268 LINE",
"227 543.268 LINE",
"549 0 LINE",
"706 0 LINE",
"706 847.732 LINE",
"506 847.732 LINE",
"506 304.464 LINE",
"536 304.464 LINE",
"214 847.732 LINE",
"57 847.732 LINE",
"57 0 LINE"
);
}
);
width = 763;
}
);
leftKerningGroup = H;
leftMetricsKey = H;
rightKerningGroup = H;
rightMetricsKey = H;
unicode = 004E;
userData = {
anchors = (
);
b = {
};
com.typemytype.robofont.layerData = {
b = {
anchors = (
);
components = (
);
contours = (
);
lib = {
};
name = N;
unicodes = (
);
width = 1499;
};
};
components = (
);
contours = (
);
lib = {
};
name = N;
unicodes = (
);
width = 1557;
};
},
{
glyphname = Eng;
lastChange = "2019-09-19 11:05:06 +0000";
layers = (
{
anchors = (
{
name = bottom;
position = "{366, 0}";
},
{
name = top;
position = "{366, 705}";
}
);
background = {
anchors = (
{
name = bottom;
position = "{366, 0}";
},
{
name = top;
position = "{366, 705}";
}
);
paths = (
{
closed = 1;
nodes = (
"1336 705 LINE",
"1297 705 LINE",
"1297 42 LINE",
"1319 42 LINE",
"831 705 LINE",
"796 705 LINE",
"796 0 LINE",
"835 0 LINE",
"835 663 LINE",
"814 663 LINE",
"1302 0 LINE",
"1297 25 LINE",
"1297 -22 LINE SMOOTH",
"1297 -102 OFFCURVE",
"1259 -147 OFFCURVE",
"1189 -152 CURVE SMOOTH",
"1148 -155 LINE",
"1151 -193 LINE",
"1194 -190 LINE SMOOTH",
"1284 -184 OFFCURVE",
"1336 -124 OFFCURVE",
"1336 -21 CURVE SMOOTH"
);
},
{
closed = 1;
nodes = (
"135 0 LINE",
"135 663 LINE",
"114 663 LINE",
"602 0 LINE",
"636 0 LINE",
"636 705 LINE",
"597 705 LINE",
"597 42 LINE",
"619 42 LINE",
"131 705 LINE",
"96 705 LINE",
"96 0 LINE"
);
}
);
};
layerId = "F1F93986-3ED8-4AAE-84C4-CA3EEECDDFA0";
paths = (
{
closed = 1;
nodes = (
"636 705 LINE",
"597 705 LINE",
"597 42 LINE",
"619 42 LINE",
"131 705 LINE",
"96 705 LINE",
"96 0 LINE",
"135 0 LINE",
"135 663 LINE",
"114 663 LINE",
"602 0 LINE",
"597 25 LINE",
"597 -22 LINE SMOOTH",
"597 -102 OFFCURVE",
"559 -147 OFFCURVE",
"489 -152 CURVE SMOOTH",
"448 -155 LINE",
"451 -193 LINE",
"494 -190 LINE SMOOTH",
"584 -184 OFFCURVE",
"636 -124 OFFCURVE",
"636 -21 CURVE SMOOTH"
);
}
);
width = 732;
},
{
anchors = (
{
name = bottom;
position = "{382, 0}";
},
{
name = top;
position = "{381, 705}";
}
);
background = {
anchors = (
{
name = bottom;
position = "{382, 0}";
},
{
name = top;
position = "{381, 705}";
}
);
paths = (
{
closed = 1;
nodes = (
"1506 705 LINE",
"1306 705 LINE",
"1306 314 LINE",
"1334 314 LINE",
"1012 705 LINE",
"857 705 LINE",
"857 0 LINE",
"1057 0 LINE",
"1057 391 LINE",
"1028 391 LINE",
"1347 0 LINE",
"1307 76 LINE",
"1307 8 LINE SMOOTH",
"1307 -24 OFFCURVE",
"1290 -38 OFFCURVE",
"1254 -42 CURVE SMOOTH",
"1199 -48 LINE",
"1213 -193 LINE",
"1257 -190 LINE SMOOTH",
"1447 -177 OFFCURVE",
"1506 -120 OFFCURVE",
"1506 39 CURVE SMOOTH"
);
},
{
closed = 1;
nodes = (
"257 0 LINE",
"257 390 LINE",
"227 390 LINE",
"549 0 LINE",
"706 0 LINE",
"706 705 LINE",
"506 705 LINE",
"506 315 LINE",
"536 315 LINE",
"214 705 LINE",
"57 705 LINE",
"57 0 LINE"
);
}
);
};
layerId = "4121B50C-FD42-45C5-8FBE-41E76D98F91E";
paths = (
{
closed = 1;
nodes = (
"706 705 LINE",
"506 705 LINE",
"506 315 LINE",
"536 315 LINE",
"214 705 LINE",
"57 705 LINE",
"57 0 LINE",
"257 0 LINE",
"257 390 LINE",
"227 390 LINE",
"549 0 LINE",
"507 76 LINE",
"507 8 LINE SMOOTH",
"507 -24 OFFCURVE",
"490 -38 OFFCURVE",
"454 -42 CURVE SMOOTH",
"399 -48 LINE",
"413 -193 LINE",
"457 -190 LINE SMOOTH",
"647 -177 OFFCURVE",
"706 -120 OFFCURVE",
"706 39 CURVE SMOOTH"
);
}
);
width = 763;
},
{
anchors = (
{
name = bottom;
position = "{366, 0}";
},
{
name = top;
position = "{366, 559.065}";
}
);
layerId = master01;
paths = (
{
closed = 1;
nodes = (
"636 559.065 LINE",
"597 559.065 LINE",
"597 51.896 LINE",
"619 51.896 LINE",
"131 559.065 LINE",
"96 559.065 LINE",
"96 0 LINE",
"135 0 LINE",
"135 507.169 LINE",
"114 507.169 LINE",
"602 0 LINE",
"597 23.298 LINE",
"597 -15.403 LINE SMOOTH",
"597 -75.574 OFFCURVE",
"559 -109.148 OFFCURVE",
"489 -113.045 CURVE SMOOTH",
"448 -115.629 LINE",
"451 -153.049 LINE",
"494 -150.67 LINE SMOOTH",
"584 -145.435 OFFCURVE",
"636 -98.06 OFFCURVE",
"636 -12.567 CURVE SMOOTH"
);
}
);
width = 732;
},
{
anchors = (
{
name = bottom;
position = "{366, 0}";
},
{
name = top;
position = "{366, 850.708}";
}
);
layerId = "E44A8709-89A6-4355-8E1B-0C9D43FBEF88";
paths = (
{
closed = 1;
nodes = (
"636 850.708 LINE",
"597 850.708 LINE",
"597 32.073 LINE",
"619 32.073 LINE",
"131 850.708 LINE",
"96 850.708 LINE",
"96 0 LINE",
"135 0 LINE",
"135 818.635 LINE",
"114 818.635 LINE",
"602 0 LINE",
"597 26.691 LINE",
"597 -28.592 LINE SMOOTH",
"597 -128.398 OFFCURVE",
"559 -184.811 OFFCURVE",
"489 -190.913 CURVE SMOOTH",
"448 -194.328 LINE",
"451 -232.889 LINE",
"494 -229.269 LINE SMOOTH",
"584 -222.506 OFFCURVE",
"636 -149.901 OFFCURVE",
"636 -29.43 CURVE SMOOTH"
);
}
);
width = 732;
},
{
anchors = (
{
name = bottom;
position = "{382, 0}";
},
{
name = top;
position = "{381, 562.447}";
}
);
layerId = "55E98211-8D07-4C6F-9443-D57FA90BECD2";
paths = (
{
closed = 1;
nodes = (
"706 562.447 LINE",
"506 562.447 LINE",
"506 314.603 LINE",
"536 314.603 LINE",
"214 562.447 LINE",
"57 562.447 LINE",
"57 0 LINE",
"257 0 LINE",
"257 247.845 LINE",
"227 247.845 LINE",
"549 0 LINE",
"507 72.457 LINE",
"507 13.338 LINE SMOOTH",
"507 -1.062 OFFCURVE",
"490 -5.044 OFFCURVE",
"454 -8.003 CURVE SMOOTH",
"399 -13.486 LINE",
"413 -153.975 LINE",
"457 -151.582 LINE SMOOTH",
"647 -139.587 OFFCURVE",
"706 -94.808 OFFCURVE",
"706 45.025 CURVE SMOOTH"
);
}
);
width = 763;
},
{
anchors = (
{
name = bottom;
position = "{382, 0}";
},
{
name = top;
position = "{381, 847.732}";
}
);
layerId = "E57D9CFB-71CF-4090-BA17-28A43A9C1B36";
paths = (
{
closed = 1;
nodes = (
"706 847.732 LINE",
"506 847.732 LINE",
"506 304.464 LINE",
"536 304.464 LINE",
"214 847.732 LINE",
"57 847.732 LINE",
"57 0 LINE",
"257 0 LINE",
"257 543.268 LINE",
"227 543.268 LINE",
"549 0 LINE",
"507 77.505 LINE",
"507 1.454 LINE SMOOTH",
"507 -50.09 OFFCURVE",
"490 -75.363 OFFCURVE",
"454 -80.445 CURVE SMOOTH",
"399 -86.843 LINE",
"413 -232.074 LINE",
"457 -228.467 LINE SMOOTH",
"647 -214.74 OFFCURVE",
"706 -145.384 OFFCURVE",
"706 30.564 CURVE SMOOTH"
);
}
);
width = 763;
}
);
leftKerningGroup = H;
leftMetricsKey = N;
widthMetricsKey = N;
rightKerningGroup = H;
unicode = 014A;
userData = {
com.typemytype.robofont.layerData = {
b = {
anchors = (
);
components = (
);
contours = (
);
lib = {
};
name = Eng;
unicodes = (
);
width = 1495;
};
};
};
},
{
glyphname = O;
lastChange = "2019-09-19 11:05:06 +0000";
layers = (
{
anchors = (
{
name = Qtail;
position = "{375, -8}";
},
{
name = bottom;
position = "{375, 0}";
},
{
name = center;
position = "{376, 353}";
},
{
name = ogonek;
position = "{430, 0}";
},
{
name = top;
position = "{375, 705}";
},
{
name = topleft;
position = "{26, 705}";
},
{
name = topright;
position = "{448, 705}";
}
);
background = {
anchors = (
{
name = Qtail;
position = "{375, -8}";
},
{
name = bottom;
position = "{375, 0}";
},
{
name = center;
position = "{376, 353}";
},
{
name = ogonek;
position = "{430, 0}";
},
{
name = top;
position = "{375, 705}";
},
{
name = topleft;
position = "{26, 705}";
},
{
name = topright;
position = "{449, 705}";
}
);
paths = (
{
closed = 1;
nodes = (
"566 -8 OFFCURVE",
"684 130 OFFCURVE",
"684 353 CURVE SMOOTH",
"684 576 OFFCURVE",
"567 713 OFFCURVE",
"375 713 CURVE SMOOTH",
"183 713 OFFCURVE",
"67 576 OFFCURVE",
"67 352 CURVE SMOOTH",
"67 130 OFFCURVE",
"185 -8 OFFCURVE",
"375 -8 CURVE SMOOTH"
);
},
{
closed = 1;
nodes = (
"208 33 OFFCURVE",
"112 151 OFFCURVE",
"112 353 CURVE SMOOTH",
"112 555 OFFCURVE",
"208 672 OFFCURVE",
"375 672 CURVE SMOOTH",
"544 672 OFFCURVE",
"639 556 OFFCURVE",
"639 353 CURVE SMOOTH",
"639 150 OFFCURVE",
"543 33 OFFCURVE",
"375 33 CURVE SMOOTH"
);
}
);
};
layerId = "F1F93986-3ED8-4AAE-84C4-CA3EEECDDFA0";
paths = (
{
closed = 1;
nodes = (
"566 -8 OFFCURVE",
"684 130 OFFCURVE",
"684 354 CURVE SMOOTH",
"684 576 OFFCURVE",
"567 713 OFFCURVE",
"375 713 CURVE SMOOTH",
"183 713 OFFCURVE",
"67 576 OFFCURVE",
"67 353 CURVE SMOOTH",
"67 130 OFFCURVE",
"185 -8 OFFCURVE",
"375 -8 CURVE SMOOTH"
);
},
{
closed = 1;
nodes = (
"208 33 OFFCURVE",
"112 151 OFFCURVE",
"112 353 CURVE SMOOTH",
"112 555 OFFCURVE",
"208 672 OFFCURVE",
"375 672 CURVE SMOOTH",
"544 672 OFFCURVE",
"639 556 OFFCURVE",
"639 353 CURVE SMOOTH",
"639 150 OFFCURVE",
"543 33 OFFCURVE",
"375 33 CURVE SMOOTH"
);
}
);
width = 751;
},
{
anchors = (
{
name = Qtail;
position = "{409, -12}";
},
{
name = bottom;
position = "{409, 0}";
},
{
name = center;
position = "{409, 353}";
},
{
name = ogonek;
position = "{473, 0}";
},
{
name = top;
position = "{408, 705}";
},
{
name = topleft;
position = "{26, 705}";
},
{
name = topright;
position = "{473, 705}";
}
);
background = {
paths = (
{
closed = 1;
nodes = (
"631 -12 OFFCURVE",
"779 136 OFFCURVE",
"779 354 CURVE SMOOTH",
"779 572 OFFCURVE",
"632 717 OFFCURVE",
"411 717 CURVE SMOOTH",
"190 717 OFFCURVE",
"43 571 OFFCURVE",
"43 353 CURVE SMOOTH",
"43 134 OFFCURVE",
"191 -12 OFFCURVE",
"411 -12 CURVE SMOOTH"
);
},
{
closed = 1;
nodes = (
"319 167 OFFCURVE",
"264 237 OFFCURVE",
"264 353 CURVE SMOOTH",
"264 469 OFFCURVE",
"319 538 OFFCURVE",
"410 538 CURVE SMOOTH",
"502 538 OFFCURVE",
"556 470 OFFCURVE",
"556 353 CURVE SMOOTH",
"556 236 OFFCURVE",
"501 167 OFFCURVE",
"410 167 CURVE SMOOTH"
);
}
);
};
layerId = "4121B50C-FD42-45C5-8FBE-41E76D98F91E";
paths = (
{
closed = 1;
nodes = (
"629 -12 OFFCURVE",
"779 135 OFFCURVE",
"779 353 CURVE SMOOTH",
"779 571 OFFCURVE",
"629 717 OFFCURVE",
"410 717 CURVE SMOOTH",
"191 717 OFFCURVE",
"41 571 OFFCURVE",
"41 353 CURVE SMOOTH",
"41 136 OFFCURVE",
"191 -12 OFFCURVE",
"410 -12 CURVE SMOOTH"
);
},
{
closed = 1;
nodes = (
"319 167 OFFCURVE",
"264 236 OFFCURVE",
"264 353 CURVE SMOOTH",
"264 470 OFFCURVE",
"319 538 OFFCURVE",
"410 538 CURVE SMOOTH",
"501 538 OFFCURVE",
"556 469 OFFCURVE",
"556 353 CURVE SMOOTH",
"556 237 OFFCURVE",
"501 167 OFFCURVE",
"410 167 CURVE SMOOTH"
);
}
);
width = 820;
},
{
anchors = (
{
name = Qtail;
position = "{375, -6.616}";
},
{
name = bottom;
position = "{375, 0}";
},
{
name = center;
position = "{376, 279.929}";
},
{
name = ogonek;
position = "{430, 0}";
},
{
name = top;
position = "{375, 559.065}";
},
{
name = topleft;
position = "{26, 559.065}";
},
{
name = topright;
position = "{448, 559.065}";
}
);
layerId = master01;
paths = (
{
closed = 1;
nodes = (
"566 -6.616 OFFCURVE",
"684 103.43 OFFCURVE",
"684 280.654 CURVE SMOOTH",
"684 456.428 OFFCURVE",
"567 565.681 OFFCURVE",
"375 565.681 CURVE SMOOTH",
"183 565.681 OFFCURVE",
"67 456.428 OFFCURVE",
"67 279.929 CURVE SMOOTH",
"67 103.499 OFFCURVE",
"185 -6.616 OFFCURVE",
"375 -6.616 CURVE SMOOTH"
);
},
{
closed = 1;
nodes = (
"208 35.294 OFFCURVE",
"112 125.531 OFFCURVE",
"112 279.929 CURVE SMOOTH",
"112 434.327 OFFCURVE",
"208 523.771 OFFCURVE",
"375 523.771 CURVE SMOOTH",
"544 523.771 OFFCURVE",
"639 434.984 OFFCURVE",
"639 279.929 CURVE SMOOTH",
"639 124.874 OFFCURVE",
"543 35.294 OFFCURVE",
"375 35.294 CURVE SMOOTH"
);
}
);
width = 751;
},
{
anchors = (
{
name = Qtail;
position = "{375, -9.381}";
},
{
name = bottom;
position = "{375, 0}";
},
{
name = center;
position = "{376, 425.957}";
},
{
name = ogonek;
position = "{430, 0}";
},
{
name = top;
position = "{375, 850.708}";
},
{
name = topleft;
position = "{26, 850.708}";
},
{
name = topright;
position = "{448, 850.708}";
}
);
layerId = "E44A8709-89A6-4355-8E1B-0C9D43FBEF88";
paths = (
{
closed = 1;
nodes = (
"566 -9.381 OFFCURVE",
"684 156.527 OFFCURVE",
"684 427.232 CURVE SMOOTH",
"684 695.387 OFFCURVE",
"567 860.088 OFFCURVE",
"375 860.088 CURVE SMOOTH",
"183 860.088 OFFCURVE",
"67 695.387 OFFCURVE",
"67 425.957 CURVE SMOOTH",
"67 156.459 OFFCURVE",
"185 -9.381 OFFCURVE",
"375 -9.381 CURVE SMOOTH"
);
},
{
closed = 1;
nodes = (
"208 30.687 OFFCURVE",
"112 176.415 OFFCURVE",
"112 425.957 CURVE SMOOTH",
"112 675.5 OFFCURVE",
"208 820.021 OFFCURVE",
"375 820.021 CURVE SMOOTH",
"544 820.021 OFFCURVE",
"639 676.843 OFFCURVE",
"639 425.957 CURVE SMOOTH",
"639 175.072 OFFCURVE",
"543 30.687 OFFCURVE",
"375 30.687 CURVE SMOOTH"
);
}
);
width = 751;
},
{
anchors = (
{
name = Qtail;
position = "{409, -10.501}";
},
{
name = bottom;
position = "{409, 0}";
},
{
name = center;
position = "{409, 281.623}";
},
{
name = ogonek;
position = "{473, 0}";
},
{
name = top;
position = "{408, 562.447}";
},
{
name = topleft;
position = "{26, 562.447}";
},
{
name = topright;
position = "{473, 562.447}";
}
);
layerId = "55E98211-8D07-4C6F-9443-D57FA90BECD2";
paths = (
{
closed = 1;
nodes = (
"629 -10.501 OFFCURVE",
"779 108.862 OFFCURVE",
"779 281.391 CURVE SMOOTH",
"779 454.383 OFFCURVE",
"629 572.948 OFFCURVE",
"410 572.948 CURVE SMOOTH",
"191 572.948 OFFCURVE",
"41 454.383 OFFCURVE",
"41 281.623 CURVE SMOOTH",
"41 109.892 OFFCURVE",
"191 -10.501 OFFCURVE",
"410 -10.501 CURVE SMOOTH"
);
},
{
closed = 1;
nodes = (
"319 164.301 OFFCURVE",
"264 207.988 OFFCURVE",
"264 281.623 CURVE SMOOTH",
"264 355.257 OFFCURVE",
"319 398.147 OFFCURVE",
"410 398.147 CURVE SMOOTH",
"501 398.147 OFFCURVE",
"556 353.996 OFFCURVE",
"556 281.623 CURVE SMOOTH",
"556 209.249 OFFCURVE",
"501 164.301 OFFCURVE",
"410 164.301 CURVE SMOOTH"
);
}
);
width = 820;
},
{
anchors = (
{
name = Qtail;
position = "{409, -13.341}";
},
{
name = bottom;
position = "{409, 0}";
},
{
name = center;
position = "{409, 424.467}";
},
{
name = ogonek;
position = "{473, 0}";
},
{
name = top;
position = "{408, 847.732}";
},
{
name = topleft;
position = "{26, 847.732}";
},
{
name = topright;
position = "{473, 847.732}";
}
);
layerId = "E57D9CFB-71CF-4090-BA17-28A43A9C1B36";
paths = (
{
closed = 1;
nodes = (
"629 -13.341 OFFCURVE",
"779 160.971 OFFCURVE",
"779 424.74 CURVE SMOOTH",
"779 687.964 OFFCURVE",
"629 861.073 OFFCURVE",
"410 861.073 CURVE SMOOTH",
"191 861.073 OFFCURVE",
"41 687.964 OFFCURVE",
"41 424.467 CURVE SMOOTH",
"41 161.901 OFFCURVE",
"191 -13.341 OFFCURVE",
"410 -13.341 CURVE SMOOTH"
);
},
{
closed = 1;
nodes = (
"319 164.336 OFFCURVE",
"264 260.643 OFFCURVE",
"264 424.467 CURVE SMOOTH",
"264 588.292 OFFCURVE",
"319 683.396 OFFCURVE",
"410 683.396 CURVE SMOOTH",
"501 683.396 OFFCURVE",
"556 587.633 OFFCURVE",
"556 424.467 CURVE SMOOTH",
"556 261.301 OFFCURVE",
"501 164.336 OFFCURVE",
"410 164.336 CURVE SMOOTH"
);
}
);
width = 820;
}
);
leftKerningGroup = O;
rightKerningGroup = O;
rightMetricsKey = "=|";
unicode = 004F;
userData = {
anchors = (
);
b = {
};
com.typemytype.robofont.guides = (
);
com.typemytype.robofont.layerData = {
b = {
anchors = (
);
components = (
);
contours = (
);
lib = {
};
name = O;
unicodes = (
);
width = 1597;
};
};
components = (
);
contours = (
);
lib = {
};
name = O;
unicodes = (
);
width = 1604;
};
},
{
glyphname = OE;
lastChange = "2019-09-19 11:05:06 +0000";
layers = (
{
anchors = (
{
name = bottom;
position = "{585, 0}";
},
{
name = top;
position = "{585, 705}";
}
);
background = {
anchors = (
{
name = bottom;
position = "{587, 0}";
},
{
name = top;
position = "{587, 705}";
}
);
paths = (
{
closed = 1;
nodes = (
"629 705 LINE",
"412 705 LINE SMOOTH",
"191 705 OFFCURVE",
"67 579 OFFCURVE",
"67 353 CURVE SMOOTH",
"67 127 OFFCURVE",
"191 0 OFFCURVE",
"412 0 CURVE SMOOTH",
"629 0 LINE"
);
},
{
closed = 1;
nodes = (
"416 39 LINE SMOOTH",
"213 39 OFFCURVE",
"112 145 OFFCURVE",
"112 353 CURVE SMOOTH",
"112 561 OFFCURVE",
"213 666 OFFCURVE",
"416 666 CURVE SMOOTH",
"587 666 LINE",
"587 39 LINE"
);
},
{
closed = 1;
nodes = (
"998 705 LINE",
"574 705 LINE",
"574 0 LINE",
"998 0 LINE",
"998 39 LINE",
"616 39 LINE",
"616 338 LINE",
"978 338 LINE",
"978 377 LINE",
"616 377 LINE",
"616 666 LINE",
"998 666 LINE"
);
}
);
};
layerId = "F1F93986-3ED8-4AAE-84C4-CA3EEECDDFA0";
paths = (
{
closed = 1;
nodes = (
"988 705 LINE",
"412 705 LINE SMOOTH",
"191 705 OFFCURVE",
"67 583 OFFCURVE",
"67 353 CURVE SMOOTH",
"67 123 OFFCURVE",
"191 0 OFFCURVE",
"412 0 CURVE SMOOTH",
"988 0 LINE",
"988 39 LINE",
"606 39 LINE",
"606 338 LINE",
"968 338 LINE",
"968 377 LINE",
"606 377 LINE",
"606 666 LINE",
"988 666 LINE"
);
},
{
closed = 1;
nodes = (
"416 39 LINE SMOOTH",
"213 39 OFFCURVE",
"112 145 OFFCURVE",
"112 353 CURVE SMOOTH",
"112 561 OFFCURVE",
"213 666 OFFCURVE",
"416 666 CURVE SMOOTH",
"564 666 LINE",
"564 39 LINE"
);
}
);
width = 1038;
},
{
anchors = (
{
name = bottom;
position = "{610, 0}";
},
{
name = top;
position = "{610, 705}";
}
);
background = {
anchors = (
{
name = bottom;
position = "{609, 0}";
},
{
name = top;
position = "{609, 705}";
}
);
paths = (
{
closed = 1;
nodes = (
"743 705 LINE",
"435 705 LINE SMOOTH",
"185 705 OFFCURVE",
"41 575 OFFCURVE",
"41 353 CURVE SMOOTH",
"41 130 OFFCURVE",
"185 0 OFFCURVE",
"435 0 CURVE SMOOTH",
"743 0 LINE"
);
},
{
closed = 1;
nodes = (
"448 174 LINE SMOOTH",
"323 174 OFFCURVE",
"264 231 OFFCURVE",
"264 353 CURVE SMOOTH",
"264 475 OFFCURVE",
"324 531 OFFCURVE",
"448 531 CURVE SMOOTH",
"528 531 LINE",
"528 174 LINE"
);
},
{
closed = 1;
nodes = (
"1018 705 LINE",
"504 705 LINE",
"504 0 LINE",
"1018 0 LINE",
"1018 164 LINE",
"709 164 LINE",
"709 276 LINE",
"995 276 LINE",
"995 440 LINE",
"709 440 LINE",
"709 541 LINE",
"1018 541 LINE"
);
}
);
};
layerId = "4121B50C-FD42-45C5-8FBE-41E76D98F91E";
paths = (
{
closed = 1;
nodes = (
"1021 705 LINE",
"435 705 LINE SMOOTH",
"185 705 OFFCURVE",
"41 575 OFFCURVE",
"41 353 CURVE SMOOTH",
"41 130 OFFCURVE",
"185 0 OFFCURVE",
"435 0 CURVE SMOOTH",
"1021 0 LINE",
"1021 164 LINE",
"712 164 LINE",
"712 276 LINE",
"998 276 LINE",
"998 440 LINE",
"712 440 LINE",
"712 541 LINE",
"1021 541 LINE"
);
},
{
closed = 1;
nodes = (
"447 174 LINE SMOOTH",
"323 174 OFFCURVE",
"264 231 OFFCURVE",
"264 353 CURVE SMOOTH",
"264 475 OFFCURVE",
"324 531 OFFCURVE",
"447 531 CURVE SMOOTH",
"507 531 LINE",
"507 174 LINE"
);
}
);
width = 1074;
},
{
anchors = (
{
name = bottom;
position = "{585, 0}";
},
{
name = top;
position = "{585, 559.065}";
}
);
layerId = master01;
paths = (
{
closed = 1;
nodes = (
"988 559.065 LINE",
"412 559.065 LINE SMOOTH",
"191 559.065 OFFCURVE",
"67 461.774 OFFCURVE",
"67 279.929 CURVE SMOOTH",
"67 98.016 OFFCURVE",
"191 0 OFFCURVE",
"412 0 CURVE SMOOTH",
"988 0 LINE",
"988 39.439 LINE",
"606 39.439 LINE",
"606 263.812 LINE",
"968 263.812 LINE",
"968 303.251 LINE",
"606 303.251 LINE",
"606 519.626 LINE",
"988 519.626 LINE"
);
},
{
closed = 1;
nodes = (
"416 40.12 LINE SMOOTH",
"213 40.12 OFFCURVE",
"112 120.841 OFFCURVE",
"112 279.929 CURVE SMOOTH",
"112 439.017 OFFCURVE",
"213 518.945 OFFCURVE",
"416 518.945 CURVE SMOOTH",
"564 518.945 LINE",
"564 40.12 LINE"
);
}
);
width = 1038;
},
{
anchors = (
{
name = bottom;
position = "{585, 0}";
},
{
name = top;
position = "{585, 850.708}";
}
);
layerId = "E44A8709-89A6-4355-8E1B-0C9D43FBEF88";
paths = (
{
closed = 1;
nodes = (
"988 850.708 LINE",
"412 850.708 LINE SMOOTH",
"191 850.708 OFFCURVE",
"67 704.038 OFFCURVE",
"67 425.957 CURVE SMOOTH",
"67 147.944 OFFCURVE",
"191 0 OFFCURVE",
"412 0 CURVE SMOOTH",
"988 0 LINE",
"988 38.54 LINE",
"606 38.54 LINE",
"606 412.083 LINE",
"968 412.083 LINE",
"968 450.623 LINE",
"606 450.623 LINE",
"606 812.167 LINE",
"988 812.167 LINE"
);
},
{
closed = 1;
nodes = (
"416 37.859 LINE SMOOTH",
"213 37.859 OFFCURVE",
"112 169.106 OFFCURVE",
"112 425.957 CURVE SMOOTH",
"112 682.808 OFFCURVE",
"213 812.849 OFFCURVE",
"416 812.849 CURVE SMOOTH",
"564 812.849 LINE",
"564 37.859 LINE"
);
}
);
width = 1038;
},
{
anchors = (
{
name = bottom;
position = "{610, 0}";
},
{
name = top;
position = "{610, 562.447}";
}
);
layerId = "55E98211-8D07-4C6F-9443-D57FA90BECD2";
paths = (
{
closed = 1;
nodes = (
"1021 562.447 LINE",
"435 562.447 LINE SMOOTH",
"185 562.447 OFFCURVE",
"41 456.879 OFFCURVE",
"41 281.623 CURVE SMOOTH",
"41 105.337 OFFCURVE",
"185 0 OFFCURVE",
"435 0 CURVE SMOOTH",
"1021 0 LINE",
"1021 159.821 LINE",
"712 159.821 LINE",
"712 205.817 LINE",
"998 205.817 LINE",
"998 365.638 LINE",
"712 365.638 LINE",
"712 402.627 LINE",
"1021 402.627 LINE"
);
},
{
closed = 1;
nodes = (
"447 170.117 LINE SMOOTH",
"323 170.117 OFFCURVE",
"264 204.231 OFFCURVE",
"264 281.623 CURVE SMOOTH",
"264 359.014 OFFCURVE",
"324 392.33 OFFCURVE",
"447 392.33 CURVE SMOOTH",
"507 392.33 LINE",
"507 170.117 LINE"
);
}
);
width = 1074;
},
{
anchors = (
{
name = bottom;
position = "{610, 0}";
},
{
name = top;
position = "{610, 847.732}";
}
);
layerId = "E57D9CFB-71CF-4090-BA17-28A43A9C1B36";
paths = (
{
closed = 1;
nodes = (
"1021 847.732 LINE",
"435 847.732 LINE SMOOTH",
"185 847.732 OFFCURVE",
"41 693.59 OFFCURVE",
"41 424.467 CURVE SMOOTH",
"41 154.414 OFFCURVE",
"185 0 OFFCURVE",
"435 0 CURVE SMOOTH",
"1021 0 LINE",
"1021 163.178 LINE",
"712 163.178 LINE",
"712 348.754 LINE",
"998 348.754 LINE",
"998 511.933 LINE",
"712 511.933 LINE",
"712 684.554 LINE",
"1021 684.554 LINE"
);
},
{
closed = 1;
nodes = (
"447 172.481 LINE SMOOTH",
"323 172.481 OFFCURVE",
"264 254.359 OFFCURVE",
"264 424.467 CURVE SMOOTH",
"264 594.576 OFFCURVE",
"324 675.251 OFFCURVE",
"447 675.251 CURVE SMOOTH",
"507 675.251 LINE",
"507 172.481 LINE"
);
}
);
width = 1074;
}
);
leftKerningGroup = O;
leftMetricsKey = O;
rightKerningGroup = E;
rightMetricsKey = E;
unicode = 0152;
},
{
glyphname = P;
lastChange = "2019-09-19 11:05:06 +0000";
layers = (
{
anchors = (
{
name = bottom;
position = "{316, 0}";
},
{
name = top;
position = "{316, 705}";
}
);
background = {
anchors = (
{
name = bottom;
position = "{316, 0}";
},
{
name = top;
position = "{316, 705}";
}
);
paths = (
{
closed = 1;
nodes = (
"96 705 LINE",
"96 0 LINE",
"138 0 LINE",
"138 303 LINE",
"350 303 LINE SMOOTH",
"497 303 OFFCURVE",
"579 376 OFFCURVE",
"579 505 CURVE SMOOTH",
"579 634 OFFCURVE",
"498 705 OFFCURVE",
"350 705 CURVE SMOOTH"
);
},
{
closed = 1;
nodes = (
"138 342 LINE",
"138 666 LINE",
"349 666 LINE SMOOTH",
"473 666 OFFCURVE",
"535 611 OFFCURVE",
"535 505 CURVE SMOOTH",
"535 399 OFFCURVE",
"473 342 OFFCURVE",
"349 342 CURVE SMOOTH"
);
}
);
};
layerId = "F1F93986-3ED8-4AAE-84C4-CA3EEECDDFA0";
paths = (
{
closed = 1;
nodes = (
"96 705 LINE",
"96 0 LINE",
"138 0 LINE",
"138 297 LINE",
"351 297 LINE SMOOTH",
"499 297 OFFCURVE",
"580 370 OFFCURVE",
"580 501 CURVE SMOOTH",
"580 632 OFFCURVE",
"499 705 OFFCURVE",
"351 705 CURVE SMOOTH"
);
},
{
closed = 1;
nodes = (
"138 336 LINE",
"138 666 LINE",
"350 666 LINE SMOOTH",
"474 666 OFFCURVE",
"536 609 OFFCURVE",
"536 501 CURVE SMOOTH",
"536 393 OFFCURVE",
"474 336 OFFCURVE",
"350 336 CURVE SMOOTH"
);
}
);
width = 616;
},
{
anchors = (
{
name = bottom;
position = "{348, 0}";
},
{
name = top;
position = "{347, 705}";
}
);
background = {
anchors = (
{
name = bottom;
position = "{348, 0}";
},
{
name = top;
position = "{347, 705}";
}
);
paths = (
{
closed = 1;
nodes = (
"57 705 LINE",
"57 0 LINE",
"272 0 LINE",
"272 240 LINE",
"417 240 LINE SMOOTH",
"574 240 OFFCURVE",
"668 327 OFFCURVE",
"668 471 CURVE SMOOTH",
"668 617 OFFCURVE",
"575 705 OFFCURVE",
"417 705 CURVE SMOOTH"
);
},
{
closed = 1;
nodes = (
"272 400 LINE",
"272 545 LINE",
"387 545 LINE SMOOTH",
"442 545 OFFCURVE",
"468 523 OFFCURVE",
"468 471 CURVE SMOOTH",
"468 421 OFFCURVE",
"441 400 OFFCURVE",
"387 400 CURVE SMOOTH"
);
}
);
};
layerId = "4121B50C-FD42-45C5-8FBE-41E76D98F91E";
paths = (
{
closed = 1;
nodes = (
"57 705 LINE",
"57 0 LINE",
"272 0 LINE",
"272 231 LINE",
"415 231 LINE SMOOTH",
"577 231 OFFCURVE",
"670 321 OFFCURVE",
"670 468 CURVE SMOOTH",
"670 615 OFFCURVE",
"577 705 OFFCURVE",
"415 705 CURVE SMOOTH"
);
},
{
closed = 1;
nodes = (
"272 395 LINE",
"272 541 LINE",
"375 541 LINE SMOOTH",
"433 541 OFFCURVE",
"466 518 OFFCURVE",
"466 468 CURVE SMOOTH",
"466 418 OFFCURVE",
"433 395 OFFCURVE",
"375 395 CURVE SMOOTH"
);
}
);
width = 689;
},
{
anchors = (
{
name = bottom;
position = "{316, 0}";
},
{
name = top;
position = "{316, 559.065}";
}
);
layerId = master01;
paths = (
{
closed = 1;
nodes = (
"96 559.065 LINE",
"96 0 LINE",
"138 0 LINE",
"138 231.027 LINE",
"351 231.027 LINE SMOOTH",
"499 231.027 OFFCURVE",
"580 290.073 OFFCURVE",
"580 395.046 CURVE SMOOTH",
"580 500.018 OFFCURVE",
"499 559.065 OFFCURVE",
"351 559.065 CURVE SMOOTH"
);
},
{
closed = 1;
nodes = (
"138 270.466 LINE",
"138 519.626 LINE",
"350 519.626 LINE SMOOTH",
"474 519.626 OFFCURVE",
"536 476.74 OFFCURVE",
"536 395.046 CURVE SMOOTH",
"536 313.351 OFFCURVE",
"474 270.466 OFFCURVE",
"350 270.466 CURVE SMOOTH"
);
}
);
width = 616;
},
{
anchors = (
{
name = bottom;
position = "{316, 0}";
},
{
name = top;
position = "{316, 850.708}";
}
);
layerId = "E44A8709-89A6-4355-8E1B-0C9D43FBEF88";
paths = (
{
closed = 1;
nodes = (
"96 850.708 LINE",
"96 0 LINE",
"138 0 LINE",
"138 362.882 LINE",
"351 362.882 LINE SMOOTH",
"499 362.882 OFFCURVE",
"580 449.811 OFFCURVE",
"580 606.795 CURVE SMOOTH",
"580 763.779 OFFCURVE",
"499 850.708 OFFCURVE",
"351 850.708 CURVE SMOOTH"
);
},
{
closed = 1;
nodes = (
"138 401.422 LINE",
"138 812.167 LINE",
"350 812.167 LINE SMOOTH",
"474 812.167 OFFCURVE",
"536 741.069 OFFCURVE",
"536 606.795 CURVE SMOOTH",
"536 472.52 OFFCURVE",
"474 401.422 OFFCURVE",
"350 401.422 CURVE SMOOTH"
);
}
);
width = 616;
},
{
anchors = (
{
name = bottom;
position = "{348, 0}";
},
{
name = top;
position = "{347, 562.447}";
}
);
layerId = "55E98211-8D07-4C6F-9443-D57FA90BECD2";
paths = (
{
closed = 1;
nodes = (
"57 562.447 LINE",
"57 0 LINE",
"272 0 LINE",
"272 168.989 LINE",
"415 168.989 LINE SMOOTH",
"577 168.989 OFFCURVE",
"670 244.732 OFFCURVE",
"670 365.718 CURVE SMOOTH",
"670 486.704 OFFCURVE",
"577 562.447 OFFCURVE",
"415 562.447 CURVE SMOOTH"
);
},
{
closed = 1;
nodes = (
"272 328.81 LINE",
"272 402.627 LINE",
"375 402.627 LINE SMOOTH",
"433 402.627 OFFCURVE",
"466 392.16 OFFCURVE",
"466 365.718 CURVE SMOOTH",
"466 339.276 OFFCURVE",
"433 328.81 OFFCURVE",
"375 328.81 CURVE SMOOTH"
);
}
);
width = 689;
},
{
anchors = (
{
name = bottom;
position = "{348, 0}";
},
{
name = top;
position = "{347, 847.732}";
}
);
layerId = "E57D9CFB-71CF-4090-BA17-28A43A9C1B36";
paths = (
{
closed = 1;
nodes = (
"57 847.732 LINE",
"57 0 LINE",
"272 0 LINE",
"272 295.733 LINE",
"415 295.733 LINE SMOOTH",
"577 295.733 OFFCURVE",
"670 399.326 OFFCURVE",
"670 571.732 CURVE SMOOTH",
"670 744.138 OFFCURVE",
"577 847.732 OFFCURVE",
"415 847.732 CURVE SMOOTH"
);
},
{
closed = 1;
nodes = (
"272 458.911 LINE",
"272 684.554 LINE",
"375 684.554 LINE SMOOTH",
"433 684.554 OFFCURVE",
"466 647.643 OFFCURVE",
"466 571.732 CURVE SMOOTH",
"466 495.822 OFFCURVE",
"433 458.911 OFFCURVE",
"375 458.911 CURVE SMOOTH"
);
}
);
width = 689;
}
);
leftKerningGroup = H;
leftMetricsKey = H;
rightKerningGroup = P;
unicode = 0050;
userData = {
anchors = (
);
b = {
};
com.typemytype.robofont.layerData = {
b = {
anchors = (
);
components = (
);
contours = (
{
points = (
{
segmentType = curve;
smooth = 1;
x = 266;
y = 0;
},
{
segmentType = line;
smooth = 1;
x = 1035;
y = 0;
},
{
smooth = 0;
x = 1084;
y = 0;
},
{
smooth = 0;
x = 1108;
y = 34;
},
{
segmentType = curve;
smooth = 1;
x = 1108;
y = 71;
},
{
smooth = 0;
x = 1108;
y = 107;
},
{
smooth = 0;
x = 1084;
y = 141;
},
{
segmentType = curve;
smooth = 1;
x = 1035;
y = 141;
},
{
segmentType = line;
smooth = 0;
x = 356;
y = 141;
},
{
segmentType = line;
smooth = 0;
x = 356;
y = 665;
},
{
segmentType = line;
smooth = 1;
x = 975;
y = 665;
},
{
smooth = 0;
x = 1024;
y = 665;
},
{
smooth = 0;
x = 1049;
y = 698;
},
{
segmentType = curve;
smooth = 1;
x = 1049;
y = 734;
},
{
smooth = 0;
x = 1049;
y = 770;
},
{
smooth = 0;
x = 1026;
y = 803;
},
{
segmentType = curve;
smooth = 1;
x = 975;
y = 803;
},
{
segmentType = line;
smooth = 0;
x = 356;
y = 803;
},
{
segmentType = line;
smooth = 0;
x = 356;
y = 1285;
},
{
segmentType = line;
smooth = 1;
x = 1007;
y = 1285;
},
{
smooth = 0;
x = 1056;
y = 1285;
},
{
smooth = 0;
x = 1080;
y = 1319;
},
{
segmentType = curve;
smooth = 1;
x = 1080;
y = 1356;
},
{
smooth = 0;
x = 1080;
y = 1392;
},
{
smooth = 0;
x = 1056;
y = 1426;
},
{
segmentType = curve;
smooth = 1;
x = 1007;
y = 1426;
},
{
segmentType = line;
smooth = 1;
x = 261;
y = 1426;
},
{
smooth = 0;
x = 213;
y = 1426;
},
{
smooth = 0;
x = 178;
y = 1383;
},
{
segmentType = curve;
smooth = 1;
x = 178;
y = 1340;
},
{
segmentType = line;
smooth = 1;
x = 178;
y = 86;
},
{
smooth = 0;
x = 178;
y = 41;
},
{
smooth = 0;
x = 222;
y = 0;
}
);
}
);
lib = {
};
name = P;
unicodes = (
);
width = 1201;
};
};
components = (
);
contours = (
);
lib = {
};
name = P;
unicodes = (
);
width = 1319;
};
},
{
glyphname = Thorn;
lastChange = "2019-09-19 11:05:06 +0000";
layers = (
{
anchors = (
{
name = bottom;
position = "{316, 0}";
},
{
name = top;
position = "{316, 705}";
}
);
background = {
anchors = (
{
name = bottom;
position = "{316, 0}";
},
{
name = top;
position = "{316, 705}";
}
);
paths = (
{
closed = 1;
nodes = (
"738 566 LINE",
"738 705 LINE",
"696 705 LINE",
"696 0 LINE",
"738 0 LINE",
"738 164 LINE",
"950 164 LINE SMOOTH",
"1097 164 OFFCURVE",
"1179 237 OFFCURVE",
"1179 366 CURVE SMOOTH",
"1179 495 OFFCURVE",
"1098 566 OFFCURVE",
"950 566 CURVE SMOOTH"
);
},
{
closed = 1;
nodes = (
"738 203 LINE",
"738 527 LINE",
"949 527 LINE SMOOTH",
"1073 527 OFFCURVE",
"1135 472 OFFCURVE",
"1135 366 CURVE SMOOTH",
"1135 260 OFFCURVE",
"1073 203 OFFCURVE",
"949 203 CURVE SMOOTH"
);
},
{
closed = 1;
nodes = (
"96 569 LINE",
"96 -136 LINE",
"138 -136 LINE",
"138 161 LINE",
"351 161 LINE SMOOTH",
"499 161 OFFCURVE",
"580 234 OFFCURVE",
"580 365 CURVE SMOOTH",
"580 496 OFFCURVE",
"499 569 OFFCURVE",
"351 569 CURVE SMOOTH"
);
},
{
closed = 1;
nodes = (
"138 200 LINE",
"138 530 LINE",
"350 530 LINE SMOOTH",
"474 530 OFFCURVE",
"536 473 OFFCURVE",
"536 365 CURVE SMOOTH",
"536 257 OFFCURVE",
"474 200 OFFCURVE",
"350 200 CURVE SMOOTH"
);
}
);
};
layerId = "F1F93986-3ED8-4AAE-84C4-CA3EEECDDFA0";
paths = (
{
closed = 1;
nodes = (
"138 569 LINE",
"138 705 LINE",
"96 705 LINE",
"96 0 LINE",
"138 0 LINE",
"138 161 LINE",
"351 161 LINE SMOOTH",
"499 161 OFFCURVE",
"580 234 OFFCURVE",
"580 365 CURVE SMOOTH",
"580 496 OFFCURVE",
"499 569 OFFCURVE",
"351 569 CURVE SMOOTH"
);
},
{
closed = 1;
nodes = (
"138 200 LINE",
"138 530 LINE",
"350 530 LINE SMOOTH",
"474 530 OFFCURVE",
"536 473 OFFCURVE",
"536 365 CURVE SMOOTH",
"536 257 OFFCURVE",
"474 200 OFFCURVE",
"350 200 CURVE SMOOTH"
);
}
);
width = 616;
},
{
anchors = (
{
name = bottom;
position = "{352, 0}";
},
{
name = top;
position = "{351, 705}";
}
);
background = {
anchors = (
{
name = bottom;
position = "{352, 0}";
},
{
name = top;
position = "{351, 705}";
}
);
paths = (
{
closed = 1;
nodes = (
"1072 600 LINE",
"1072 705 LINE",
"861 705 LINE",
"861 0 LINE",
"1072 0 LINE",
"1072 135 LINE",
"1221 135 LINE SMOOTH",
"1378 135 OFFCURVE",
"1472 222 OFFCURVE",
"1472 366 CURVE SMOOTH",
"1472 512 OFFCURVE",
"1379 600 OFFCURVE",
"1221 600 CURVE SMOOTH"
);
},
{
closed = 1;
nodes = (
"1072 295 LINE",
"1072 440 LINE",
"1191 440 LINE SMOOTH",
"1246 440 OFFCURVE",
"1272 418 OFFCURVE",
"1272 366 CURVE SMOOTH",
"1272 316 OFFCURVE",
"1245 295 OFFCURVE",
"1191 295 CURVE SMOOTH"
);
},
{
closed = 1;
nodes = (
"61 605 LINE",
"61 -100 LINE",
"276 -100 LINE",
"276 131 LINE",
"419 131 LINE SMOOTH",
"581 131 OFFCURVE",
"674 221 OFFCURVE",
"674 368 CURVE SMOOTH",
"674 515 OFFCURVE",
"581 605 OFFCURVE",
"419 605 CURVE SMOOTH"
);
},
{
closed = 1;
nodes = (
"276 295 LINE",
"276 441 LINE",
"379 441 LINE SMOOTH",
"437 441 OFFCURVE",
"470 418 OFFCURVE",
"470 368 CURVE SMOOTH",
"470 318 OFFCURVE",
"437 295 OFFCURVE",
"379 295 CURVE SMOOTH"
);
}
);
};
layerId = "4121B50C-FD42-45C5-8FBE-41E76D98F91E";
paths = (
{
closed = 1;
nodes = (
"272 605 LINE",
"272 705 LINE",
"57 705 LINE",
"57 0 LINE",
"272 0 LINE",
"272 131 LINE",
"419 131 LINE SMOOTH",
"581 131 OFFCURVE",
"674 221 OFFCURVE",
"674 368 CURVE SMOOTH",
"674 515 OFFCURVE",
"581 605 OFFCURVE",
"419 605 CURVE SMOOTH"
);
},
{
closed = 1;
nodes = (
"272 295 LINE",
"272 441 LINE",
"379 441 LINE SMOOTH",
"437 441 OFFCURVE",
"470 418 OFFCURVE",
"470 368 CURVE SMOOTH",
"470 318 OFFCURVE",
"437 295 OFFCURVE",
"379 295 CURVE SMOOTH"
);
}
);
width = 693;
},
{
anchors = (
{
name = bottom;
position = "{316, 0}";
},
{
name = top;
position = "{316, 559.065}";
}
);
layerId = master01;
paths = (
{
closed = 1;
nodes = (
"138 453.668 LINE",
"138 559.065 LINE",
"96 559.065 LINE",
"96 0 LINE",
"138 0 LINE",
"138 125.63 LINE",
"351 125.63 LINE SMOOTH",
"499 125.63 OFFCURVE",
"580 184.677 OFFCURVE",
"580 289.649 CURVE SMOOTH",
"580 394.622 OFFCURVE",
"499 453.668 OFFCURVE",
"351 453.668 CURVE SMOOTH"
);
},
{
closed = 1;
nodes = (
"138 165.069 LINE",
"138 414.229 LINE",
"350 414.229 LINE SMOOTH",
"474 414.229 OFFCURVE",
"536 371.344 OFFCURVE",
"536 289.649 CURVE SMOOTH",
"536 207.955 OFFCURVE",
"474 165.069 OFFCURVE",
"350 165.069 CURVE SMOOTH"
);
}
);
width = 616;
},
{
anchors = (
{
name = bottom;
position = "{316, 0}";
},
{
name = top;
position = "{316, 850.708}";
}
);
layerId = "E44A8709-89A6-4355-8E1B-0C9D43FBEF88";
paths = (
{
closed = 1;
nodes = (
"138 684.146 LINE",
"138 850.708 LINE",
"96 850.708 LINE",
"96 0 LINE",
"138 0 LINE",
"138 196.32 LINE",
"351 196.32 LINE SMOOTH",
"499 196.32 OFFCURVE",
"580 283.249 OFFCURVE",
"580 440.233 CURVE SMOOTH",
"580 597.217 OFFCURVE",
"499 684.146 OFFCURVE",
"351 684.146 CURVE SMOOTH"
);
},
{
closed = 1;
nodes = (
"138 234.86 LINE",
"138 645.605 LINE",
"350 645.605 LINE SMOOTH",
"474 645.605 OFFCURVE",
"536 574.507 OFFCURVE",
"536 440.233 CURVE SMOOTH",
"536 305.958 OFFCURVE",
"474 234.86 OFFCURVE",
"350 234.86 CURVE SMOOTH"
);
}
);
width = 616;
},
{
anchors = (
{
name = bottom;
position = "{352, 0}";
},
{
name = top;
position = "{351, 562.447}";
}
);
layerId = "55E98211-8D07-4C6F-9443-D57FA90BECD2";
paths = (
{
closed = 1;
nodes = (
"272 491.014 LINE",
"272 562.447 LINE",
"57 562.447 LINE",
"57 0 LINE",
"272 0 LINE",
"272 97.556 LINE",
"419 97.556 LINE SMOOTH",
"581 97.556 OFFCURVE",
"674 173.299 OFFCURVE",
"674 294.285 CURVE SMOOTH",
"674 415.271 OFFCURVE",
"581 491.014 OFFCURVE",
"419 491.014 CURVE SMOOTH"
);
},
{
closed = 1;
nodes = (
"272 257.377 LINE",
"272 331.194 LINE",
"379 331.194 LINE SMOOTH",
"437 331.194 OFFCURVE",
"470 320.727 OFFCURVE",
"470 294.285 CURVE SMOOTH",
"470 267.843 OFFCURVE",
"437 257.377 OFFCURVE",
"379 257.377 CURVE SMOOTH"
);
}
);
width = 693;
},
{
anchors = (
{
name = bottom;
position = "{352, 0}";
},
{
name = top;
position = "{351, 847.732}";
}
);
layerId = "E57D9CFB-71CF-4090-BA17-28A43A9C1B36";
paths = (
{
closed = 1;
nodes = (
"272 717.687 LINE",
"272 847.732 LINE",
"57 847.732 LINE",
"57 0 LINE",
"272 0 LINE",
"272 165.688 LINE",
"419 165.688 LINE SMOOTH",
"581 165.688 OFFCURVE",
"674 269.282 OFFCURVE",
"674 441.688 CURVE SMOOTH",
"674 614.094 OFFCURVE",
"581 717.687 OFFCURVE",
"419 717.687 CURVE SMOOTH"
);
},
{
closed = 1;
nodes = (
"272 328.866 LINE",
"272 554.509 LINE",
"379 554.509 LINE SMOOTH",
"437 554.509 OFFCURVE",
"470 517.598 OFFCURVE",
"470 441.688 CURVE SMOOTH",
"470 365.777 OFFCURVE",
"437 328.866 OFFCURVE",
"379 328.866 CURVE SMOOTH"
);
}
);
width = 693;
}
);
leftKerningGroup = H;
leftMetricsKey = H;
rightKerningGroup = THORN;
unicode = 00DE;
},
{
glyphname = R;
lastChange = "2019-09-19 11:05:06 +0000";
layers = (
{
anchors = (
{
name = bottom;
position = "{334, 0}";
},
{
name = top;
position = "{334, 705}";
}
);
background = {
anchors = (
{
name = bottom;
position = "{334, 0}";
},
{
name = top;
position = "{334, 705}";
}
);
paths = (
{
closed = 1;
nodes = (
"96 705 LINE",
"96 0 LINE",
"138 0 LINE",
"138 297 LINE",
"351 297 LINE SMOOTH",
"499 297 OFFCURVE",
"580 370 OFFCURVE",
"580 501 CURVE SMOOTH",
"580 632 OFFCURVE",
"499 705 OFFCURVE",
"351 705 CURVE SMOOTH"
);
},
{
closed = 1;
nodes = (
"138 336 LINE",
"138 666 LINE",
"350 666 LINE SMOOTH",
"474 666 OFFCURVE",
"536 609 OFFCURVE",
"536 501 CURVE SMOOTH",
"536 393 OFFCURVE",
"474 336 OFFCURVE",
"350 336 CURVE SMOOTH"
);
}
);
};
layerId = "F1F93986-3ED8-4AAE-84C4-CA3EEECDDFA0";
paths = (
{
closed = 1;
nodes = (
"138 0 LINE",
"138 312 LINE",
"295 312 LINE SMOOTH",
"373 312 OFFCURVE",
"413 295 OFFCURVE",
"450 226 CURVE SMOOTH",
"572 0 LINE",
"618 0 LINE",
"487 242 LINE SMOOTH",
"455 302 OFFCURVE",
"421 327 OFFCURVE",
"370 327 CURVE SMOOTH",
"362 327 LINE",
"351 315 LINE",
"495 315 OFFCURVE",
"580 385 OFFCURVE",
"580 508 CURVE SMOOTH",
"580 635 OFFCURVE",
"499 705 OFFCURVE",
"351 705 CURVE SMOOTH",
"96 705 LINE",
"96 0 LINE"
);
},
{
closed = 1;
nodes = (
"138 666 LINE",
"347 666 LINE SMOOTH",
"473 666 OFFCURVE",
"536 612 OFFCURVE",
"536 509 CURVE SMOOTH",
"536 405 OFFCURVE",
"473 351 OFFCURVE",
"347 351 CURVE SMOOTH",
"138 351 LINE"
);
}
);
width = 654;
},
{
anchors = (
{
name = bottom;
position = "{363, 0}";
},
{
name = top;
position = "{362, 705}";
}
);
background = {
anchors = (
{
name = bottom;
position = "{363, 0}";
},
{
name = top;
position = "{362, 705}";
}
);
paths = (
{
closed = 1;
nodes = (
"1365 0 LINE",
"1365 252 LINE",
"1402 252 LINE SMOOTH",
"1423 252 OFFCURVE",
"1445 243 OFFCURVE",
"1456 224 CURVE SMOOTH",
"1579 0 LINE",
"1815 0 LINE",
"1707 191 LINE SMOOTH",
"1677 245 OFFCURVE",
"1634 273 OFFCURVE",
"1576 273 CURVE SMOOTH",
"1513 273 LINE",
"1513 260 LINE",
"1676 260 OFFCURVE",
"1771 349 OFFCURVE",
"1771 484 CURVE SMOOTH",
"1771 626 OFFCURVE",
"1686 705 OFFCURVE",
"1507 705 CURVE SMOOTH",
"1157 705 LINE",
"1157 0 LINE"
);
},
{
closed = 1;
nodes = (
"1365 545 LINE",
"1472 545 LINE SMOOTH",
"1544 545 OFFCURVE",
"1571 527 OFFCURVE",
"1571 477 CURVE SMOOTH",
"1571 430 OFFCURVE",
"1545 412 OFFCURVE",
"1472 412 CURVE SMOOTH",
"1365 412 LINE"
);
},
{
closed = 1;
nodes = (
"57 705 LINE",
"272 252 LINE",
"415 252 LINE SMOOTH",
"577 252 OFFCURVE",
"670 338 OFFCURVE",
"670 479 CURVE SMOOTH",
"670 619 OFFCURVE",
"577 705 OFFCURVE",
"415 705 CURVE SMOOTH"
);
},
{
closed = 1;
nodes = (
"279 402 LINE",
"279 541 LINE",
"382 541 LINE SMOOTH",
"440 541 OFFCURVE",
"473 519 OFFCURVE",
"473 472 CURVE SMOOTH",
"473 424 OFFCURVE",
"440 402 OFFCURVE",
"382 402 CURVE SMOOTH"
);
}
);
};
layerId = "4121B50C-FD42-45C5-8FBE-41E76D98F91E";
paths = (
{
closed = 1;
nodes = (
"272 0 LINE",
"272 252 LINE",
"305 252 LINE SMOOTH",
"326 252 OFFCURVE",
"348 243 OFFCURVE",
"359 224 CURVE SMOOTH",
"482 0 LINE",
"718 0 LINE",
"613 191 LINE SMOOTH",
"583 245 OFFCURVE",
"537 273 OFFCURVE",
"479 273 CURVE SMOOTH",
"422 273 LINE",
"415 254 LINE",
"578 254 OFFCURVE",
"670 340 OFFCURVE",
"670 479 CURVE SMOOTH",
"670 619 OFFCURVE",
"577 705 OFFCURVE",
"415 705 CURVE SMOOTH",
"57 705 LINE",
"57 0 LINE"
);
},
{
closed = 1;
nodes = (
"272 541 LINE",
"375 541 LINE SMOOTH",
"433 541 OFFCURVE",
"466 519 OFFCURVE",
"466 472 CURVE SMOOTH",
"466 424 OFFCURVE",
"433 402 OFFCURVE",
"375 402 CURVE SMOOTH",
"272 402 LINE"
);
}
);
width = 718;
},
{
anchors = (
{
name = bottom;
position = "{334, 0}";
},
{
name = top;
position = "{334, 559.065}";
}
);
layerId = master01;
paths = (
{
closed = 1;
nodes = (
"138 0 LINE",
"138 243.33 LINE",
"295 243.33 LINE SMOOTH",
"373 243.33 OFFCURVE",
"413 230.394 OFFCURVE",
"450 179.082 CURVE SMOOTH",
"572 0 LINE",
"618 0 LINE",
"487 188.433 LINE SMOOTH",
"455 235.605 OFFCURVE",
"421 255.634 OFFCURVE",
"370 255.634 CURVE SMOOTH",
"362 255.634 LINE",
"351 245.641 LINE",
"495 245.641 OFFCURVE",
"580 302.241 OFFCURVE",
"580 400.869 CURVE SMOOTH",
"580 502.465 OFFCURVE",
"499 559.065 OFFCURVE",
"351 559.065 CURVE SMOOTH",
"96 559.065 LINE",
"96 0 LINE"
);
},
{
closed = 1;
nodes = (
"138 519.626 LINE",
"347 519.626 LINE SMOOTH",
"473 519.626 OFFCURVE",
"536 478.983 OFFCURVE",
"536 401.117 CURVE SMOOTH",
"536 322.459 OFFCURVE",
"473 281.816 OFFCURVE",
"347 281.816 CURVE SMOOTH",
"138 281.816 LINE"
);
}
);
width = 654;
},
{
anchors = (
{
name = bottom;
position = "{334, 0}";
},
{
name = top;
position = "{334, 850.708}";
}
);
layerId = "E44A8709-89A6-4355-8E1B-0C9D43FBEF88";
paths = (
{
closed = 1;
nodes = (
"138 0 LINE",
"138 380.573 LINE",
"295 380.573 LINE SMOOTH",
"373 380.573 OFFCURVE",
"413 359.514 OFFCURVE",
"450 272.845 CURVE SMOOTH",
"572 0 LINE",
"618 0 LINE",
"487 295.492 LINE SMOOTH",
"455 368.302 OFFCURVE",
"421 398.264 OFFCURVE",
"370 398.264 CURVE SMOOTH",
"362 398.264 LINE",
"351 384.261 LINE",
"495 384.261 OFFCURVE",
"580 467.638 OFFCURVE",
"580 614.969 CURVE SMOOTH",
"580 767.331 OFFCURVE",
"499 850.708 OFFCURVE",
"351 850.708 CURVE SMOOTH",
"96 850.708 LINE",
"96 0 LINE"
);
},
{
closed = 1;
nodes = (
"138 812.167 LINE",
"347 812.167 LINE SMOOTH",
"473 812.167 OFFCURVE",
"536 744.826 OFFCURVE",
"536 616.721 CURVE SMOOTH",
"536 487.409 OFFCURVE",
"473 420.068 OFFCURVE",
"347 420.068 CURVE SMOOTH",
"138 420.068 LINE"
);
}
);
width = 654;
},
{
anchors = (
{
name = bottom;
position = "{363, 0}";
},
{
name = top;
position = "{362, 562.447}";
}
);
layerId = "55E98211-8D07-4C6F-9443-D57FA90BECD2";
paths = (
{
closed = 1;
nodes = (
"272 0 LINE",
"272 187.134 LINE",
"305 187.134 LINE SMOOTH",
"326 187.134 OFFCURVE",
"348 181.808 OFFCURVE",
"359 178.243 CURVE SMOOTH",
"482 0 LINE",
"718 0 LINE",
"613 140.555 LINE SMOOTH",
"583 182.245 OFFCURVE",
"537 205.279 OFFCURVE",
"479 205.279 CURVE SMOOTH",
"422 205.279 LINE",
"415 188.497 LINE",
"578 188.497 OFFCURVE",
"670 260.818 OFFCURVE",
"670 375.421 CURVE SMOOTH",
"670 490.127 OFFCURVE",
"577 562.447 OFFCURVE",
"415 562.447 CURVE SMOOTH",
"57 562.447 LINE",
"57 0 LINE"
);
},
{
closed = 1;
nodes = (
"272 402.627 LINE",
"375 402.627 LINE SMOOTH",
"433 402.627 OFFCURVE",
"466 392.494 OFFCURVE",
"466 367.982 CURVE SMOOTH",
"466 342.671 OFFCURVE",
"433 332.539 OFFCURVE",
"375 332.539 CURVE SMOOTH",
"272 332.539 LINE"
);
}
);
width = 718;
},
{
anchors = (
{
name = bottom;
position = "{363, 0}";
},
{
name = top;
position = "{362, 847.732}";
}
);
layerId = "E57D9CFB-71CF-4090-BA17-28A43A9C1B36";
paths = (
{
closed = 1;
nodes = (
"272 0 LINE",
"272 319.351 LINE",
"305 319.351 LINE SMOOTH",
"326 319.351 OFFCURVE",
"348 306.351 OFFCURVE",
"359 269.895 CURVE SMOOTH",
"482 0 LINE",
"718 0 LINE",
"613 243.551 LINE SMOOTH",
"583 310.117 OFFCURVE",
"537 342.969 OFFCURVE",
"479 342.969 CURVE SMOOTH",
"422 342.969 LINE",
"415 322.028 LINE",
"578 322.028 OFFCURVE",
"670 421.084 OFFCURVE",
"670 583.871 CURVE SMOOTH",
"670 748.676 OFFCURVE",
"577 847.732 OFFCURVE",
"415 847.732 CURVE SMOOTH",
"57 847.732 LINE",
"57 0 LINE"
);
},
{
closed = 1;
nodes = (
"272 684.554 LINE",
"375 684.554 LINE SMOOTH",
"433 684.554 OFFCURVE",
"466 649.39 OFFCURVE",
"466 577.631 CURVE SMOOTH",
"466 504.67 OFFCURVE",
"433 469.506 OFFCURVE",
"375 469.506 CURVE SMOOTH",
"272 469.506 LINE"
);
}
);
width = 718;
}
);
leftKerningGroup = H;
leftMetricsKey = H;
rightKerningGroup = R;
unicode = 0052;
userData = {
anchors = (
);
b = {
};
com.typemytype.robofont.guides = (
);
com.typemytype.robofont.layerData = {
b = {
anchors = (
);
components = (
);
contours = (
{
points = (
{
segmentType = curve;
smooth = 1;
x = 267;
y = 0;
},
{
smooth = 0;
x = 311;
y = 0;
},
{
smooth = 0;
x = 356;
y = 27;
},
{
segmentType = curve;
smooth = 1;
x = 356;
y = 84;
},
{
segmentType = line;
smooth = 0;
x = 356;
y = 628;
},
{
segmentType = line;
smooth = 1;
x = 669;
y = 628;
},
{
smooth = 0;
x = 962;
y = 628;
},
{
smooth = 0;
x = 1182;
y = 722;
},
{
segmentType = curve;
smooth = 1;
x = 1182;
y = 1026;
},
{
smooth = 0;
x = 1182;
y = 1324;
},
{
smooth = 0;
x = 993;
y = 1426;
},
{
segmentType = curve;
smooth = 1;
x = 684;
y = 1426;
},
{
segmentType = line;
smooth = 1;
x = 268;
y = 1426;
},
{
smooth = 0;
x = 217;
y = 1426;
},
{
smooth = 0;
x = 178;
y = 1387;
},
{
segmentType = curve;
smooth = 1;
x = 178;
y = 1339;
},
{
segmentType = line;
smooth = 1;
x = 178;
y = 84;
},
{
smooth = 0;
x = 178;
y = 28;
},
{
smooth = 0;
x = 222;
y = 0;
}
);
},
{
points = (
{
segmentType = line;
smooth = 0;
x = 356;
y = 764;
},
{
segmentType = line;
smooth = 0;
x = 356;
y = 1285;
},
{
segmentType = line;
smooth = 1;
x = 684;
y = 1285;
},
{
smooth = 0;
x = 914;
y = 1285;
},
{
smooth = 0;
x = 1008;
y = 1210;
},
{
segmentType = curve;
smooth = 1;
x = 1008;
y = 1026;
},
{
smooth = 0;
x = 1008;
y = 838;
},
{
smooth = 0;
x = 901;
y = 764;
},
{
segmentType = curve;
smooth = 1;
x = 670;
y = 764;
}
);
}
);
lib = {
};
name = R;
unicodes = (
);
width = 1363;
};
};
components = (
);
contours = (
);
lib = {
};
name = R;
unicodes = (
);
width = 1408;
};
},
{
glyphname = S;
lastChange = "2019-09-19 11:05:06 +0000";
layers = (
{
anchors = (
{
name = bottom;
position = "{310, 0}";
},
{
name = top;
position = "{304, 705}";
}
);
background = {
paths = (
{
closed = 1;
nodes = (
"462 -8 OFFCURVE",
"554 69 OFFCURVE",
"554 180 CURVE SMOOTH",
"554 275 OFFCURVE",
"491 325 OFFCURVE",
"355 353 CURVE SMOOTH",
"256 373 LINE SMOOTH",
"155 393 OFFCURVE",
"111 435 OFFCURVE",
"111 513 CURVE SMOOTH",
"111 609 OFFCURVE",
"190 672 OFFCURVE",
"308 672 CURVE SMOOTH",
"393 672 OFFCURVE",
"456 647 OFFCURVE",
"519 586 CURVE",
"539 622 LINE",
"482 682 OFFCURVE",
"403 713 OFFCURVE",
"308 713 CURVE SMOOTH",
"167 713 OFFCURVE",
"69 632 OFFCURVE",
"69 513 CURVE SMOOTH",
"69 413 OFFCURVE",
"129 356 OFFCURVE",
"254 331 CURVE SMOOTH",
"353 311 LINE SMOOTH",
"465 288 OFFCURVE",
"512 251 OFFCURVE",
"512 179 CURVE SMOOTH",
"512 91 OFFCURVE",
"443 33 OFFCURVE",
"310 33 CURVE SMOOTH",
"205 33 OFFCURVE",
"142 58 OFFCURVE",
"72 115 CURVE",
"52 79 LINE",
"116 22 OFFCURVE",
"200 -8 OFFCURVE",
"310 -8 CURVE SMOOTH"
);
}
);
};
layerId = "F1F93986-3ED8-4AAE-84C4-CA3EEECDDFA0";
paths = (
{
closed = 1;
nodes = (
"462 -8 OFFCURVE",
"555 69 OFFCURVE",
"555 180 CURVE SMOOTH",
"555 275 OFFCURVE",
"491 325 OFFCURVE",
"355 353 CURVE SMOOTH",
"256 373 LINE SMOOTH",
"155 393 OFFCURVE",
"112 435 OFFCURVE",
"112 513 CURVE SMOOTH",
"112 609 OFFCURVE",
"190 672 OFFCURVE",
"308 672 CURVE SMOOTH",
"393 672 OFFCURVE",
"456 647 OFFCURVE",
"519 586 CURVE",
"539 622 LINE",
"482 682 OFFCURVE",
"403 713 OFFCURVE",
"308 713 CURVE SMOOTH",
"167 713 OFFCURVE",
"68 632 OFFCURVE",
"68 513 CURVE SMOOTH",
"68 413 OFFCURVE",
"129 356 OFFCURVE",
"254 331 CURVE SMOOTH",
"353 311 LINE SMOOTH",
"465 288 OFFCURVE",
"511 251 OFFCURVE",
"511 179 CURVE SMOOTH",
"511 91 OFFCURVE",
"443 33 OFFCURVE",
"310 33 CURVE SMOOTH",
"205 33 OFFCURVE",
"142 58 OFFCURVE",
"72 115 CURVE",
"52 79 LINE",
"116 22 OFFCURVE",
"200 -8 OFFCURVE",
"310 -8 CURVE SMOOTH"
);
}
);
width = 600;
},
{
anchors = (
{
name = bottom;
position = "{335, 0}";
},
{
name = top;
position = "{345, 705}";
}
);
background = {
paths = (
{
closed = 1;
nodes = (
"1324 -12 OFFCURVE",
"1442 72 OFFCURVE",
"1442 218 CURVE SMOOTH",
"1442 321 OFFCURVE",
"1380 383 OFFCURVE",
"1236 422 CURVE SMOOTH",
"1147 446 LINE SMOOTH",
"1071 467 OFFCURVE",
"1060 475 OFFCURVE",
"1060 498 CURVE SMOOTH",
"1060 527 OFFCURVE",
"1090 553 OFFCURVE",
"1153 553 CURVE SMOOTH",
"1218 553 OFFCURVE",
"1286 532 OFFCURVE",
"1352 492 CURVE",
"1415 643 LINE",
"1360 686 OFFCURVE",
"1252 717 OFFCURVE",
"1152 717 CURVE SMOOTH",
"976 717 OFFCURVE",
"849 618 OFFCURVE",
"849 480 CURVE SMOOTH",
"849 371 OFFCURVE",
"907 317 OFFCURVE",
"1064 275 CURVE SMOOTH",
"1153 251 LINE SMOOTH",
"1222 232 OFFCURVE",
"1231 220 OFFCURVE",
"1231 201 CURVE SMOOTH",
"1231 168 OFFCURVE",
"1202 152 OFFCURVE",
"1125 152 CURVE SMOOTH",
"1052 152 OFFCURVE",
"969 175 OFFCURVE",
"901 213 CURVE",
"837 62 LINE",
"901 19 OFFCURVE",
"1020 -12 OFFCURVE",
"1122 -12 CURVE SMOOTH"
);
},
{
closed = 1;
nodes = (
"518 -12 OFFCURVE",
"640 81 OFFCURVE",
"640 224 CURVE SMOOTH",
"640 328 OFFCURVE",
"577 396 OFFCURVE",
"449 424 CURVE SMOOTH",
"329 450 LINE SMOOTH",
"278 461 OFFCURVE",
"263 473 OFFCURVE",
"263 491 CURVE SMOOTH",
"263 521 OFFCURVE",
"299 538 OFFCURVE",
"359 538 CURVE SMOOTH",
"434 538 OFFCURVE",
"504 518 OFFCURVE",
"552 485 CURVE",
"610 644 LINE",
"556 688 OFFCURVE",
"459 717 OFFCURVE",
"362 717 CURVE SMOOTH",
"174 717 OFFCURVE",
"51 623 OFFCURVE",
"51 480 CURVE SMOOTH",
"51 373 OFFCURVE",
"113 304 OFFCURVE",
"242 276 CURVE SMOOTH",
"362 250 LINE SMOOTH",
"412 239 OFFCURVE",
"428 227 OFFCURVE",
"428 209 CURVE SMOOTH",
"428 183 OFFCURVE",
"401 167 OFFCURVE",
"330 167 CURVE SMOOTH",
"250 167 OFFCURVE",
"157 193 OFFCURVE",
"97 230 CURVE",
"39 61 LINE",
"106 17 OFFCURVE",
"218 -12 OFFCURVE",
"330 -12 CURVE SMOOTH"
);
}
);
};
layerId = "4121B50C-FD42-45C5-8FBE-41E76D98F91E";
paths = (
{
closed = 1;
nodes = (
"518 -12 OFFCURVE",
"640 81 OFFCURVE",
"640 224 CURVE SMOOTH",
"640 328 OFFCURVE",
"577 395 OFFCURVE",
"449 423 CURVE SMOOTH",
"329 449 LINE SMOOTH",
"276 460 OFFCURVE",
"261 473 OFFCURVE",
"261 491 CURVE SMOOTH",
"261 521 OFFCURVE",
"294 542 OFFCURVE",
"359 542 CURVE SMOOTH",
"434 542 OFFCURVE",
"504 521 OFFCURVE",
"552 488 CURVE",
"610 644 LINE",
"556 688 OFFCURVE",
"459 717 OFFCURVE",
"362 717 CURVE SMOOTH",
"176 717 OFFCURVE",
"51 623 OFFCURVE",
"51 480 CURVE SMOOTH",
"51 373 OFFCURVE",
"113 305 OFFCURVE",
"242 277 CURVE SMOOTH",
"362 251 LINE SMOOTH",
"414 240 OFFCURVE",
"430 227 OFFCURVE",
"430 206 CURVE SMOOTH",
"430 183 OFFCURVE",
"407 163 OFFCURVE",
"330 163 CURVE SMOOTH",
"250 163 OFFCURVE",
"157 190 OFFCURVE",
"97 227 CURVE",
"39 61 LINE",
"106 17 OFFCURVE",
"218 -12 OFFCURVE",
"330 -12 CURVE SMOOTH"
);
}
);
width = 663;
},
{
anchors = (
{
name = bottom;
position = "{310, 0}";
},
{
name = top;
position = "{304, 559.065}";
}
);
layerId = master01;
paths = (
{
closed = 1;
nodes = (
"462 -6.616 OFFCURVE",
"555 55.534 OFFCURVE",
"555 145.736 CURVE SMOOTH",
"555 221.684 OFFCURVE",
"491 262.492 OFFCURVE",
"355 284.696 CURVE SMOOTH",
"256 300.964 LINE SMOOTH",
"155 316.211 OFFCURVE",
"112 347.543 OFFCURVE",
"112 405.311 CURVE SMOOTH",
"112 476.945 OFFCURVE",
"190 524.043 OFFCURVE",
"308 524.043 CURVE SMOOTH",
"393 524.043 OFFCURVE",
"456 504.491 OFFCURVE",
"519 458.025 CURVE",
"539 494.744 LINE",
"482 541.235 OFFCURVE",
"403 565.681 OFFCURVE",
"308 565.681 CURVE SMOOTH",
"167 565.681 OFFCURVE",
"68 500.563 OFFCURVE",
"68 404.562 CURVE SMOOTH",
"68 324.785 OFFCURVE",
"129 278.835 OFFCURVE",
"254 258.806 CURVE SMOOTH",
"353 242.537 LINE SMOOTH",
"465 225.115 OFFCURVE",
"511 197.409 OFFCURVE",
"511 143.786 CURVE SMOOTH",
"511 78.428 OFFCURVE",
"443 35.022 OFFCURVE",
"310 35.022 CURVE SMOOTH",
"205 35.022 OFFCURVE",
"142 54.983 OFFCURVE",
"72 98.822 CURVE",
"52 61.421 LINE",
"116 17.106 OFFCURVE",
"200 -6.616 OFFCURVE",
"310 -6.616 CURVE SMOOTH"
);
}
);
width = 600;
},
{
anchors = (
{
name = bottom;
position = "{310, 0}";
},
{
name = top;
position = "{304, 850.708}";
}
);
layerId = "E44A8709-89A6-4355-8E1B-0C9D43FBEF88";
paths = (
{
closed = 1;
nodes = (
"462 -9.381 OFFCURVE",
"555 82.443 OFFCURVE",
"555 214.203 CURVE SMOOTH",
"555 328.224 OFFCURVE",
"491 387.399 OFFCURVE",
"355 421.186 CURVE SMOOTH",
"256 444.911 LINE SMOOTH",
"155 469.658 OFFCURVE",
"112 522.315 OFFCURVE",
"112 620.525 CURVE SMOOTH",
"112 740.865 OFFCURVE",
"190 819.748 OFFCURVE",
"308 819.748 CURVE SMOOTH",
"393 819.748 OFFCURVE",
"456 789.309 OFFCURVE",
"519 713.793 CURVE",
"539 749.054 LINE",
"482 822.545 OFFCURVE",
"403 860.088 OFFCURVE",
"308 860.088 CURVE SMOOTH",
"167 860.088 OFFCURVE",
"68 763.234 OFFCURVE",
"68 621.275 CURVE SMOOTH",
"68 501.084 OFFCURVE",
"129 433.053 OFFCURVE",
"254 403.091 CURVE SMOOTH",
"353 379.366 LINE SMOOTH",
"465 350.795 OFFCURVE",
"511 304.512 OFFCURVE",
"511 214.155 CURVE SMOOTH",
"511 103.537 OFFCURVE",
"443 30.96 OFFCURVE",
"310 30.96 CURVE SMOOTH",
"205 30.96 OFFCURVE",
"142 60.99 OFFCURVE",
"72 131.134 CURVE",
"52 96.554 LINE",
"116 26.888 OFFCURVE",
"200 -9.381 OFFCURVE",
"310 -9.381 CURVE SMOOTH"
);
}
);
width = 600;
},
{
anchors = (
{
name = bottom;
position = "{335, 0}";
},
{
name = top;
position = "{345, 562.447}";
}
);
layerId = "55E98211-8D07-4C6F-9443-D57FA90BECD2";
paths = (
{
closed = 1;
nodes = (
"518 -10.501 OFFCURVE",
"640 67.404 OFFCURVE",
"640 188.908 CURVE SMOOTH",
"640 273.966 OFFCURVE",
"577 331.36 OFFCURVE",
"449 353.698 CURVE SMOOTH",
"329 375.832 LINE SMOOTH",
"276 382.521 OFFCURVE",
"261 386.169 OFFCURVE",
"261 386.618 CURVE SMOOTH",
"261 395.249 OFFCURVE",
"294 402.265 OFFCURVE",
"359 402.265 CURVE SMOOTH",
"434 402.265 OFFCURVE",
"504 386.439 OFFCURVE",
"552 366.603 CURVE",
"610 518.883 LINE",
"556 550.276 OFFCURVE",
"459 572.948 OFFCURVE",
"362 572.948 CURVE SMOOTH",
"176 572.948 OFFCURVE",
"51 494.941 OFFCURVE",
"51 375.292 CURVE SMOOTH",
"51 288.304 OFFCURVE",
"113 231.504 OFFCURVE",
"242 208.47 CURVE SMOOTH",
"362 186.336 LINE SMOOTH",
"414 180.342 OFFCURVE",
"430 175.536 OFFCURVE",
"430 170.606 CURVE SMOOTH",
"430 167.328 OFFCURVE",
"407 160.182 OFFCURVE",
"330 160.182 CURVE SMOOTH",
"250 160.182 OFFCURVE",
"157 182.186 OFFCURVE",
"97 207.068 CURVE",
"39 44.492 LINE",
"106 12.403 OFFCURVE",
"218 -10.501 OFFCURVE",
"330 -10.501 CURVE SMOOTH"
);
}
);
width = 663;
},
{
anchors = (
{
name = bottom;
position = "{335, 0}";
},
{
name = top;
position = "{345, 847.732}";
}
);
layerId = "E57D9CFB-71CF-4090-BA17-28A43A9C1B36";
paths = (
{
closed = 1;
nodes = (
"518 -13.341 OFFCURVE",
"640 94.133 OFFCURVE",
"640 257.374 CURVE SMOOTH",
"640 379.979 OFFCURVE",
"577 455.917 OFFCURVE",
"449 489.585 CURVE SMOOTH",
"329 519.216 LINE SMOOTH",
"276 534.893 OFFCURVE",
"261 558.419 OFFCURVE",
"261 596.395 CURVE SMOOTH",
"261 650.433 OFFCURVE",
"294 687.117 OFFCURVE",
"359 687.117 CURVE SMOOTH",
"434 687.117 OFFCURVE",
"504 660.777 OFFCURVE",
"552 613.474 CURVE",
"610 768.394 LINE",
"556 825.657 OFFCURVE",
"459 861.073 OFFCURVE",
"362 861.073 CURVE SMOOTH",
"176 861.073 OFFCURVE",
"51 751.58 OFFCURVE",
"51 586.162 CURVE SMOOTH",
"51 459.404 OFFCURVE",
"113 380.631 OFFCURVE",
"242 347.779 CURVE SMOOTH",
"362 318.149 LINE SMOOTH",
"414 301.655 OFFCURVE",
"430 279.49 OFFCURVE",
"430 240.357 CURVE SMOOTH",
"430 195.007 OFFCURVE",
"407 160.615 OFFCURVE",
"330 160.615 CURVE SMOOTH",
"250 160.615 OFFCURVE",
"157 192.537 OFFCURVE",
"97 242.472 CURVE",
"39 78.249 LINE",
"106 21.803 OFFCURVE",
"218 -13.341 OFFCURVE",
"330 -13.341 CURVE SMOOTH"
);
}
);
width = 663;
}
);
leftKerningGroup = S;
rightKerningGroup = S;
unicode = 0053;
userData = {
anchors = (
);
b = {
};
com.typemytype.robofont.layerData = {
b = {
anchors = (
);
components = (
);
contours = (
);
lib = {
};
name = S;
unicodes = (
);
width = 1274;
};
};
components = (
);
contours = (
);
lib = {
};
name = S;
unicodes = (
);
width = 1317;
};
},
{
glyphname = Germandbls;
lastChange = "2019-09-19 11:05:06 +0000";
layers = (
{
background = {
paths = (
{
closed = 1;
nodes = (
"1038 0 LINE",
"1038 457 LINE SMOOTH",
"1038 604 OFFCURVE",
"1118 672 OFFCURVE",
"1257 672 CURVE SMOOTH",
"1374 672 OFFCURVE",
"1443 619 OFFCURVE",
"1443 529 CURVE SMOOTH",
"1443 430 OFFCURVE",
"1377 377 OFFCURVE",
"1275 377 CURVE SMOOTH",
"1155 377 LINE",
"1155 338 LINE",
"1302 338 LINE SMOOTH",
"1422 338 OFFCURVE",
"1488 288 OFFCURVE",
"1488 192 CURVE SMOOTH",
"1488 96 OFFCURVE",
"1423 33 OFFCURVE",
"1313 33 CURVE SMOOTH",
"1243 33 OFFCURVE",
"1190 50 OFFCURVE",
"1138 97 CURVE",
"1116 62 LINE",
"1162 16 OFFCURVE",
"1232 -7 OFFCURVE",
"1310 -7 CURVE SMOOTH",
"1447 -7 OFFCURVE",
"1526 72 OFFCURVE",
"1526 191 CURVE SMOOTH",
"1526 290 OFFCURVE",
"1471 353 OFFCURVE",
"1354 371 CURVE",
"1354 358 LINE",
"1432 375 OFFCURVE",
"1485 440 OFFCURVE",
"1485 529 CURVE SMOOTH",
"1485 643 OFFCURVE",
"1394 713 OFFCURVE",
"1256 713 CURVE SMOOTH",
"1094 713 OFFCURVE",
"996 630 OFFCURVE",
"996 464 CURVE SMOOTH",
"996 0 LINE"
);
},
{
closed = 1;
nodes = (
"138 0 LINE",
"138 467 LINE SMOOTH",
"138 604 OFFCURVE",
"219 673 OFFCURVE",
"359 673 CURVE SMOOTH",
"478 673 OFFCURVE",
"544 619 OFFCURVE",
"544 529 CURVE SMOOTH",
"544 430 OFFCURVE",
"477 374 OFFCURVE",
"375 374 CURVE SMOOTH",
"255 374 LINE",
"255 335 LINE",
"402 335 LINE SMOOTH",
"522 335 OFFCURVE",
"582 288 OFFCURVE",
"582 192 CURVE SMOOTH",
"582 96 OFFCURVE",
"523 33 OFFCURVE",
"413 33 CURVE SMOOTH",
"343 33 OFFCURVE",
"290 50 OFFCURVE",
"238 97 CURVE",
"216 62 LINE",
"262 17 OFFCURVE",
"332 -7 OFFCURVE",
"410 -7 CURVE SMOOTH",
"547 -7 OFFCURVE",
"626 72 OFFCURVE",
"626 191 CURVE SMOOTH",
"626 290 OFFCURVE",
"570 350 OFFCURVE",
"456 368 CURVE",
"457 355 LINE",
"535 372 OFFCURVE",
"588 440 OFFCURVE",
"588 529 CURVE SMOOTH",
"588 643 OFFCURVE",
"498 713 OFFCURVE",
"358 713 CURVE SMOOTH",
"195 713 OFFCURVE",
"96 630 OFFCURVE",
"96 474 CURVE SMOOTH",
"96 0 LINE"
);
}
);
};
layerId = "F1F93986-3ED8-4AAE-84C4-CA3EEECDDFA0";
paths = (
{
closed = 1;
nodes = (
"138 0 LINE",
"138 467 LINE SMOOTH",
"138 604 OFFCURVE",
"215 673 OFFCURVE",
"359 673 CURVE SMOOTH",
"478 673 OFFCURVE",
"544 621 OFFCURVE",
"544 524 CURVE SMOOTH",
"544 427 OFFCURVE",
"478 374 OFFCURVE",
"375 374 CURVE SMOOTH",
"255 374 LINE",
"255 335 LINE",
"402 335 LINE SMOOTH",
"523 335 OFFCURVE",
"582 281 OFFCURVE",
"582 186 CURVE SMOOTH",
"582 91 OFFCURVE",
"523 33 OFFCURVE",
"413 33 CURVE SMOOTH",
"343 33 OFFCURVE",
"290 50 OFFCURVE",
"238 97 CURVE",
"216 62 LINE",
"262 17 OFFCURVE",
"332 -7 OFFCURVE",
"413 -7 CURVE SMOOTH",
"547 -7 OFFCURVE",
"626 62 OFFCURVE",
"626 186 CURVE SMOOTH",
"626 290 OFFCURVE",
"560 354 OFFCURVE",
"456 367 CURVE",
"456 353 LINE",
"537 370 OFFCURVE",
"588 440 OFFCURVE",
"588 529 CURVE SMOOTH",
"588 643 OFFCURVE",
"498 713 OFFCURVE",
"358 713 CURVE SMOOTH",
"195 713 OFFCURVE",
"96 630 OFFCURVE",
"96 470 CURVE SMOOTH",
"96 0 LINE"
);
}
);
width = 697;
},
{
background = {
paths = (
{
closed = 1;
nodes = (
"1168 0 LINE",
"1168 441 LINE SMOOTH",
"1168 520 OFFCURVE",
"1213 553 OFFCURVE",
"1291 553 CURVE SMOOTH",
"1354 553 OFFCURVE",
"1383 533 OFFCURVE",
"1383 493 CURVE SMOOTH",
"1383 457 OFFCURVE",
"1365 432 OFFCURVE",
"1306 432 CURVE SMOOTH",
"1228 432 LINE",
"1228 271 LINE",
"1318 271 LINE SMOOTH",
"1394 271 OFFCURVE",
"1421 254 OFFCURVE",
"1421 203 CURVE SMOOTH",
"1421 163 OFFCURVE",
"1402 142 OFFCURVE",
"1356 142 CURVE SMOOTH",
"1314 142 OFFCURVE",
"1282 157 OFFCURVE",
"1243 180 CURVE",
"1188 38 LINE",
"1248 1 OFFCURVE",
"1301 -12 OFFCURVE",
"1387 -12 CURVE SMOOTH",
"1523 -12 OFFCURVE",
"1621 77 OFFCURVE",
"1621 195 CURVE SMOOTH",
"1621 293 OFFCURVE",
"1554 358 OFFCURVE",
"1464 368 CURVE",
"1464 354 LINE",
"1531 382 OFFCURVE",
"1583 439 OFFCURVE",
"1583 520 CURVE SMOOTH",
"1583 636 OFFCURVE",
"1486 716 OFFCURVE",
"1297 716 CURVE SMOOTH",
"1073 716 OFFCURVE",
"957 609 OFFCURVE",
"957 430 CURVE SMOOTH",
"957 0 LINE"
);
},
{
closed = 1;
nodes = (
"656 379 OFFCURVE",
"705 441 OFFCURVE",
"705 523 CURVE SMOOTH",
"705 633 OFFCURVE",
"617 705 OFFCURVE",
"463 705 CURVE SMOOTH",
"105 705 LINE",
"105 0 LINE",
"472 0 LINE SMOOTH",
"627 0 OFFCURVE",
"724 79 OFFCURVE",
"724 202 CURVE SMOOTH",
"724 294 OFFCURVE",
"672 355 OFFCURVE",
"577 375 CURVE",
"577 358 LINE"
);
},
{
closed = 1;
nodes = (
"479 549 OFFCURVE",
"501 533 OFFCURVE",
"501 493 CURVE SMOOTH",
"501 453 OFFCURVE",
"479 437 OFFCURVE",
"423 437 CURVE SMOOTH",
"310 437 LINE",
"310 549 LINE",
"423 549 LINE SMOOTH"
);
},
{
closed = 1;
nodes = (
"310 156 LINE",
"310 279 LINE",
"442 279 LINE SMOOTH",
"498 279 OFFCURVE",
"521 259 OFFCURVE",
"521 218 CURVE SMOOTH",
"521 177 OFFCURVE",
"498 156 OFFCURVE",
"442 156 CURVE SMOOTH"
);
}
);
};
layerId = "4121B50C-FD42-45C5-8FBE-41E76D98F91E";
paths = (
{
closed = 1;
nodes = (
"272 0 LINE",
"272 430 LINE SMOOTH",
"272 511 OFFCURVE",
"311 548 OFFCURVE",
"396 548 CURVE SMOOTH",
"460 548 OFFCURVE",
"491 529 OFFCURVE",
"491 490 CURVE SMOOTH",
"491 452 OFFCURVE",
"464 432 OFFCURVE",
"412 432 CURVE SMOOTH",
"354 432 LINE",
"354 271 LINE",
"424 271 LINE SMOOTH",
"496 271 OFFCURVE",
"527 253 OFFCURVE",
"527 211 CURVE SMOOTH",
"527 177 OFFCURVE",
"502 154 OFFCURVE",
"464 154 CURVE SMOOTH",
"426 154 OFFCURVE",
"394 164 OFFCURVE",
"353 188 CURVE",
"298 38 LINE",
"356 1 OFFCURVE",
"409 -12 OFFCURVE",
"490 -12 CURVE SMOOTH",
"640 -12 OFFCURVE",
"730 67 OFFCURVE",
"730 195 CURVE SMOOTH",
"730 293 OFFCURVE",
"667 365 OFFCURVE",
"573 375 CURVE",
"573 354 LINE",
"651 384 OFFCURVE",
"694 444 OFFCURVE",
"694 520 CURVE SMOOTH",
"694 641 OFFCURVE",
"585 716 OFFCURVE",
"410 716 CURVE SMOOTH",
"180 716 OFFCURVE",
"57 617 OFFCURVE",
"57 430 CURVE SMOOTH",
"57 0 LINE"
);
}
);
width = 764;
},
{
layerId = master01;
paths = (
{
closed = 1;
nodes = (
"138 0 LINE",
"138 367.811 LINE SMOOTH",
"138 472.639 OFFCURVE",
"215 525.177 OFFCURVE",
"359 525.177 CURVE SMOOTH",
"478 525.177 OFFCURVE",
"544 486.188 OFFCURVE",
"544 413.217 CURVE SMOOTH",
"544 340.313 OFFCURVE",
"478 300.532 OFFCURVE",
"375 300.532 CURVE SMOOTH",
"255 300.532 LINE",
"255 261.297 LINE",
"402 261.297 LINE SMOOTH",
"523 261.297 OFFCURVE",
"582 220.926 OFFCURVE",
"582 149.2 CURVE SMOOTH",
"582 78.019 OFFCURVE",
"523 34.409 OFFCURVE",
"413 34.409 CURVE SMOOTH",
"343 34.409 OFFCURVE",
"290 47.413 OFFCURVE",
"238 83.118 CURVE",
"216 47.532 LINE",
"262 12.391 OFFCURVE",
"332 -5.891 OFFCURVE",
"413 -5.891 CURVE SMOOTH",
"547 -5.891 OFFCURVE",
"626 49.506 OFFCURVE",
"626 148.111 CURVE SMOOTH",
"626 230.174 OFFCURVE",
"560 281.471 OFFCURVE",
"456 291.576 CURVE",
"456 279.997 LINE",
"537 294.363 OFFCURVE",
"588 349.192 OFFCURVE",
"588 418.884 CURVE SMOOTH",
"588 509.763 OFFCURVE",
"498 565.613 OFFCURVE",
"358 565.613 CURVE SMOOTH",
"195 565.613 OFFCURVE",
"96 498.705 OFFCURVE",
"96 369.986 CURVE SMOOTH",
"96 0 LINE"
);
}
);
width = 697;
},
{
layerId = "E44A8709-89A6-4355-8E1B-0C9D43FBEF88";
paths = (
{
closed = 1;
nodes = (
"138 0 LINE",
"138 566.04 LINE SMOOTH",
"138 735.172 OFFCURVE",
"215 820.614 OFFCURVE",
"359 820.614 CURVE SMOOTH",
"478 820.614 OFFCURVE",
"544 755.617 OFFCURVE",
"544 634.616 CURVE SMOOTH",
"544 513.547 OFFCURVE",
"478 447.344 OFFCURVE",
"375 447.344 CURVE SMOOTH",
"255 447.344 LINE",
"255 408.599 LINE",
"402 408.599 LINE SMOOTH",
"523 408.599 OFFCURVE",
"582 340.985 OFFCURVE",
"582 222.738 CURVE SMOOTH",
"582 103.946 OFFCURVE",
"523 31.573 OFFCURVE",
"413 31.573 CURVE SMOOTH",
"343 31.573 OFFCURVE",
"290 52.564 OFFCURVE",
"238 110.845 CURVE",
"216 76.45 LINE",
"262 21.604 OFFCURVE",
"332 -8.106 OFFCURVE",
"413 -8.106 CURVE SMOOTH",
"547 -8.106 OFFCURVE",
"626 74.473 OFFCURVE",
"626 223.829 CURVE SMOOTH",
"626 349.732 OFFCURVE",
"560 426.414 OFFCURVE",
"456 442.305 CURVE",
"456 425.889 LINE",
"537 445.516 OFFCURVE",
"588 530.665 OFFCURVE",
"588 638.946 CURVE SMOOTH",
"588 776.03 OFFCURVE",
"498 860.157 OFFCURVE",
"358 860.157 CURVE SMOOTH",
"195 860.157 OFFCURVE",
"96 761.093 OFFCURVE",
"96 569.865 CURVE SMOOTH",
"96 0 LINE"
);
}
);
width = 697;
},
{
layerId = "55E98211-8D07-4C6F-9443-D57FA90BECD2";
paths = (
{
closed = 1;
nodes = (
"272 0 LINE",
"272 334.474 LINE SMOOTH",
"272 386.112 OFFCURVE",
"311 408.211 OFFCURVE",
"396 408.211 CURVE SMOOTH",
"460 408.211 OFFCURVE",
"491 400.704 OFFCURVE",
"491 383.038 CURVE SMOOTH",
"491 366.401 OFFCURVE",
"464 358.096 OFFCURVE",
"412 358.096 CURVE SMOOTH",
"354 358.096 LINE",
"354 201.364 LINE",
"424 201.364 LINE SMOOTH",
"496 201.364 OFFCURVE",
"527 195.351 OFFCURVE",
"527 174.132 CURVE SMOOTH",
"527 161.15 OFFCURVE",
"502 150.915 OFFCURVE",
"464 150.915 CURVE SMOOTH",
"426 150.915 OFFCURVE",
"394 157.27 OFFCURVE",
"353 171.085 CURVE",
"298 24.752 LINE",
"356 -2.912 OFFCURVE",
"409 -10.733 OFFCURVE",
"490 -10.733 CURVE SMOOTH",
"640 -10.733 OFFCURVE",
"730 54.612 OFFCURVE",
"730 157.657 CURVE SMOOTH",
"730 234.45 OFFCURVE",
"667 293.747 OFFCURVE",
"573 301.029 CURVE",
"573 282.652 LINE",
"651 309.6 OFFCURVE",
"694 355.15 OFFCURVE",
"694 412.768 CURVE SMOOTH",
"694 510.925 OFFCURVE",
"585 571.919 OFFCURVE",
"410 571.919 CURVE SMOOTH",
"180 571.919 OFFCURVE",
"57 489.227 OFFCURVE",
"57 333.779 CURVE SMOOTH",
"57 0 LINE"
);
}
);
width = 764;
},
{
layerId = "E57D9CFB-71CF-4090-BA17-28A43A9C1B36";
paths = (
{
closed = 1;
nodes = (
"272 0 LINE",
"272 527.128 LINE SMOOTH",
"272 639.77 OFFCURVE",
"311 692.971 OFFCURVE",
"396 692.971 CURVE SMOOTH",
"460 692.971 OFFCURVE",
"491 661.142 OFFCURVE",
"491 598.459 CURVE SMOOTH",
"491 536.706 OFFCURVE",
"464 503.674 OFFCURVE",
"412 503.674 CURVE SMOOTH",
"354 503.674 LINE",
"354 343.286 LINE",
"424 343.286 LINE SMOOTH",
"496 343.286 OFFCURVE",
"527 311.843 OFFCURVE",
"527 246.913 CURVE SMOOTH",
"527 189.426 OFFCURVE",
"502 152.242 OFFCURVE",
"464 152.242 CURVE SMOOTH",
"426 152.242 OFFCURVE",
"394 166.172 OFFCURVE",
"353 201.292 CURVE",
"298 52.226 LINE",
"356 5.558 OFFCURVE",
"409 -13.068 OFFCURVE",
"490 -13.068 CURVE SMOOTH",
"640 -13.068 OFFCURVE",
"730 79.204 OFFCURVE",
"730 232.029 CURVE SMOOTH",
"730 351.503 OFFCURVE",
"667 435.903 OFFCURVE",
"573 448.744 CURVE",
"573 425.398 LINE",
"651 457.933 OFFCURVE",
"694 532.802 OFFCURVE",
"694 627.727 CURVE SMOOTH",
"694 771.319 OFFCURVE",
"585 860.143 OFFCURVE",
"410 860.143 CURVE SMOOTH",
"180 860.143 OFFCURVE",
"57 745.455 OFFCURVE",
"57 527.944 CURVE SMOOTH",
"57 0 LINE"
);
}
);
width = 764;
}
);
leftKerningGroup = H;
leftMetricsKey = H;
rightKerningGroup = Germandbls;
rightMetricsKey = B;
unicode = 1E9E;
},
{
glyphname = Schwa;
lastChange = "2019-09-19 11:05:06 +0000";
layers = (
{
anchors = (
{
name = bottom;
position = "{371, 0}";
},
{
name = top;
position = "{371, 705}";
}
);
background = {
paths = (
{
closed = 1;
nodes = (
"566 -8 OFFCURVE",
"684 130 OFFCURVE",
"684 353 CURVE SMOOTH",
"684 576 OFFCURVE",
"567 713 OFFCURVE",
"375 713 CURVE SMOOTH",
"183 713 OFFCURVE",
"67 576 OFFCURVE",
"67 352 CURVE SMOOTH",
"67 130 OFFCURVE",
"185 -8 OFFCURVE",
"375 -8 CURVE SMOOTH"
);
},
{
closed = 1;
nodes = (
"208 33 OFFCURVE",
"112 151 OFFCURVE",
"112 353 CURVE SMOOTH",
"112 555 OFFCURVE",
"208 672 OFFCURVE",
"375 672 CURVE SMOOTH",
"544 672 OFFCURVE",
"639 556 OFFCURVE",
"639 353 CURVE SMOOTH",
"639 150 OFFCURVE",
"543 33 OFFCURVE",
"375 33 CURVE SMOOTH"
);
}
);
};
layerId = "F1F93986-3ED8-4AAE-84C4-CA3EEECDDFA0";
paths = (
{
closed = 1;
nodes = (
"566 -8 OFFCURVE",
"684 129 OFFCURVE",
"684 353 CURVE SMOOTH",
"684 577 OFFCURVE",
"558 713 OFFCURVE",
"355 713 CURVE SMOOTH",
"244 713 OFFCURVE",
"158 681 OFFCURVE",
"93 618 CURVE",
"114 583 LINE",
"182 646 OFFCURVE",
"248 672 OFFCURVE",
"354 672 CURVE SMOOTH",
"535 672 OFFCURVE",
"639 556 OFFCURVE",
"639 353 CURVE SMOOTH",
"639 151 OFFCURVE",
"541 33 OFFCURVE",
"379 33 CURVE SMOOTH",
"199 33 OFFCURVE",
"111 146 OFFCURVE",
"111 353 CURVE",
"99 337 LINE",
"644 337 LINE",
"644 376 LINE",
"67 376 LINE",
"67 348 LINE SMOOTH",
"67 132 OFFCURVE",
"170 -8 OFFCURVE",
"380 -8 CURVE SMOOTH"
);
}
);
width = 751;
},
{
anchors = (
{
name = bottom;
position = "{415, 0}";
},
{
name = top;
position = "{415, 705}";
}
);
background = {
paths = (
{
closed = 1;
nodes = (
"629 -12 OFFCURVE",
"779 135 OFFCURVE",
"779 354 CURVE SMOOTH",
"779 572 OFFCURVE",
"629 717 OFFCURVE",
"410 717 CURVE SMOOTH",
"191 717 OFFCURVE",
"41 572 OFFCURVE",
"41 354 CURVE SMOOTH",
"41 136 OFFCURVE",
"191 -12 OFFCURVE",
"410 -12 CURVE SMOOTH"
);
},
{
closed = 1;
nodes = (
"319 167 OFFCURVE",
"264 236 OFFCURVE",
"264 353 CURVE SMOOTH",
"264 470 OFFCURVE",
"319 538 OFFCURVE",
"410 538 CURVE SMOOTH",
"501 538 OFFCURVE",
"556 469 OFFCURVE",
"556 353 CURVE SMOOTH",
"556 237 OFFCURVE",
"501 167 OFFCURVE",
"410 167 CURVE SMOOTH"
);
}
);
};
layerId = "4121B50C-FD42-45C5-8FBE-41E76D98F91E";
paths = (
{
closed = 1;
nodes = (
"628 -12 OFFCURVE",
"779 132 OFFCURVE",
"779 351 CURVE SMOOTH",
"779 577 OFFCURVE",
"620 717 OFFCURVE",
"385 717 CURVE SMOOTH",
"259 717 OFFCURVE",
"148 688 OFFCURVE",
"73 646 CURVE",
"141 484 LINE",
"206 519 OFFCURVE",
"284 538 OFFCURVE",
"356 538 CURVE SMOOTH",
"490 538 OFFCURVE",
"556 476 OFFCURVE",
"556 353 CURVE SMOOTH",
"556 218 OFFCURVE",
"505 158 OFFCURVE",
"408 158 CURVE SMOOTH",
"311 158 OFFCURVE",
"259 218 OFFCURVE",
"259 353 CURVE",
"203 271 LINE",
"612 271 LINE",
"612 432 LINE",
"41 432 LINE",
"41 370 LINE SMOOTH",
"41 146 OFFCURVE",
"174 -12 OFFCURVE",
"419 -12 CURVE SMOOTH"
);
}
);
width = 820;
},
{
anchors = (
{
name = bottom;
position = "{371, 0}";
},
{
name = top;
position = "{371, 559.065}";
}
);
layerId = master01;
paths = (
{
closed = 1;
nodes = (
"566 -6.616 OFFCURVE",
"684 102.501 OFFCURVE",
"684 279.793 CURVE SMOOTH",
"684 457.561 OFFCURVE",
"558 565.681 OFFCURVE",
"355 565.681 CURVE SMOOTH",
"244 565.681 OFFCURVE",
"158 540.51 OFFCURVE",
"93 491.981 CURVE",
"114 455.577 LINE",
"182 503.63 OFFCURVE",
"248 523.771 OFFCURVE",
"354 523.771 CURVE SMOOTH",
"535 523.771 OFFCURVE",
"639 435.46 OFFCURVE",
"639 279.929 CURVE SMOOTH",
"639 124.305 OFFCURVE",
"541 34.681 OFFCURVE",
"379 34.681 CURVE SMOOTH",
"199 34.681 OFFCURVE",
"111 120.681 OFFCURVE",
"111 279.929 CURVE",
"99 262.747 LINE",
"644 262.747 LINE",
"644 301.981 LINE",
"67 301.981 LINE",
"67 277.462 LINE SMOOTH",
"67 105.629 OFFCURVE",
"170 -6.616 OFFCURVE",
"380 -6.616 CURVE SMOOTH"
);
}
);
width = 751;
},
{
anchors = (
{
name = bottom;
position = "{371, 0}";
},
{
name = top;
position = "{371, 850.708}";
}
);
layerId = "E44A8709-89A6-4355-8E1B-0C9D43FBEF88";
paths = (
{
closed = 1;
nodes = (
"566 -9.381 OFFCURVE",
"684 155.457 OFFCURVE",
"684 426.093 CURVE SMOOTH",
"684 696.253 OFFCURVE",
"558 860.088 OFFCURVE",
"355 860.088 CURVE SMOOTH",
"244 860.088 OFFCURVE",
"158 821.27 OFFCURVE",
"93 743.818 CURVE",
"114 710.241 LINE",
"182 788.17 OFFCURVE",
"248 820.021 OFFCURVE",
"354 820.021 CURVE SMOOTH",
"535 820.021 OFFCURVE",
"639 676.366 OFFCURVE",
"639 425.957 CURVE SMOOTH",
"639 177.642 OFFCURVE",
"541 31.3 OFFCURVE",
"379 31.3 CURVE SMOOTH",
"199 31.3 OFFCURVE",
"111 171.267 OFFCURVE",
"111 425.957 CURVE",
"99 411.149 LINE",
"644 411.149 LINE",
"644 449.894 LINE",
"67 449.894 LINE",
"67 418.424 LINE SMOOTH",
"67 158.327 OFFCURVE",
"170 -9.381 OFFCURVE",
"380 -9.381 CURVE SMOOTH"
);
}
);
width = 751;
},
{
anchors = (
{
name = bottom;
position = "{415, 0}";
},
{
name = top;
position = "{415, 562.447}";
}
);
layerId = "55E98211-8D07-4C6F-9443-D57FA90BECD2";
paths = (
{
closed = 1;
nodes = (
"628 -10.501 OFFCURVE",
"779 106.005 OFFCURVE",
"779 279.563 CURVE SMOOTH",
"779 460.329 OFFCURVE",
"620 572.948 OFFCURVE",
"385 572.948 CURVE SMOOTH",
"259 572.948 OFFCURVE",
"148 550.508 OFFCURVE",
"73 521.869 CURVE",
"141 363.18 LINE",
"206 384.611 OFFCURVE",
"284 398.147 OFFCURVE",
"356 398.147 CURVE SMOOTH",
"490 398.147 OFFCURVE",
"556 361.203 OFFCURVE",
"556 281.623 CURVE SMOOTH",
"556 189.454 OFFCURVE",
"505 155.034 OFFCURVE",
"408 155.034 CURVE SMOOTH",
"311 155.034 OFFCURVE",
"259 190.613 OFFCURVE",
"259 281.623 CURVE",
"203 200.901 LINE",
"612 200.901 LINE",
"612 357.633 LINE",
"41 357.633 LINE",
"41 300.286 LINE SMOOTH",
"41 119.724 OFFCURVE",
"174 -10.501 OFFCURVE",
"419 -10.501 CURVE SMOOTH"
);
}
);
width = 820;
},
{
anchors = (
{
name = bottom;
position = "{415, 0}";
},
{
name = top;
position = "{415, 847.732}";
}
);
layerId = "E57D9CFB-71CF-4090-BA17-28A43A9C1B36";
paths = (
{
closed = 1;
nodes = (
"628 -13.341 OFFCURVE",
"779 157.908 OFFCURVE",
"779 422.607 CURVE SMOOTH",
"779 693.818 OFFCURVE",
"620 861.073 OFFCURVE",
"385 861.073 CURVE SMOOTH",
"259 861.073 OFFCURVE",
"148 825.385 OFFCURVE",
"73 769.166 CURVE",
"141 608.937 LINE",
"206 658.644 OFFCURVE",
"284 683.396 OFFCURVE",
"356 683.396 CURVE SMOOTH",
"490 683.396 OFFCURVE",
"556 594.145 OFFCURVE",
"556 424.467 CURVE SMOOTH",
"556 243.898 OFFCURVE",
"505 155.964 OFFCURVE",
"408 155.964 CURVE SMOOTH",
"311 155.964 OFFCURVE",
"259 242.537 OFFCURVE",
"259 424.467 CURVE",
"203 343.831 LINE",
"612 343.831 LINE",
"612 504.218 LINE",
"41 504.218 LINE",
"41 438.921 LINE SMOOTH",
"41 171.748 OFFCURVE",
"174 -13.341 OFFCURVE",
"419 -13.341 CURVE SMOOTH"
);
}
);
width = 820;
}
);
leftKerningGroup = O;
leftMetricsKey = O;
rightKerningGroup = O;
rightMetricsKey = O;
unicode = 018F;
},
{
glyphname = T;
lastChange = "2019-09-19 11:05:06 +0000";
layers = (
{
anchors = (
{
name = bottom;
position = "{293, 0}";
},
{
name = center;
position = "{293, 358}";
},
{
name = top;
position = "{293, 705}";
}
);
background = {
anchors = (
{
name = bottom;
position = "{293, 0}";
},
{
name = center;
position = "{293, 358}";
},
{
name = top;
position = "{293, 705}";
}
);
paths = (
{
closed = 1;
nodes = (
"314 0 LINE",
"314 666 LINE",
"573 666 LINE",
"573 705 LINE",
"13 705 LINE",
"13 666 LINE",
"272 666 LINE",
"272 0 LINE"
);
}
);
};
layerId = "F1F93986-3ED8-4AAE-84C4-CA3EEECDDFA0";
paths = (
{
closed = 1;
nodes = (
"314 0 LINE",
"314 666 LINE",
"583 666 LINE",
"583 705 LINE",
"3 705 LINE",
"3 666 LINE",
"272 666 LINE",
"272 0 LINE"
);
}
);
width = 586;
},
{
anchors = (
{
name = bottom;
position = "{329, 0}";
},
{
name = center;
position = "{328, 358}";
},
{
name = top;
position = "{328, 705}";
}
);
background = {
anchors = (
{
name = bottom;
position = "{329, 0}";
},
{
name = center;
position = "{328, 358}";
},
{
name = top;
position = "{328, 705}";
}
);
paths = (
{
closed = 1;
nodes = (
"436 0 LINE",
"436 531 LINE",
"637 531 LINE",
"637 705 LINE",
"20 705 LINE",
"20 531 LINE",
"221 531 LINE",
"221 0 LINE"
);
}
);
};
layerId = "4121B50C-FD42-45C5-8FBE-41E76D98F91E";
paths = (
{
closed = 1;
nodes = (
"436 0 LINE",
"436 531 LINE",
"650 531 LINE",
"650 705 LINE",
"7 705 LINE",
"7 531 LINE",
"221 531 LINE",
"221 0 LINE"
);
}
);
width = 657;
},
{
anchors = (
{
name = bottom;
position = "{293, 0}";
},
{
name = center;
position = "{293, 283.894}";
},
{
name = top;
position = "{293, 559.065}";
}
);
layerId = master01;
paths = (
{
closed = 1;
nodes = (
"314 0 LINE",
"314 518.945 LINE",
"583 518.945 LINE",
"583 559.065 LINE",
"3 559.065 LINE",
"3 518.945 LINE",
"272 518.945 LINE",
"272 0 LINE"
);
}
);
width = 586;
},
{
anchors = (
{
name = bottom;
position = "{293, 0}";
},
{
name = center;
position = "{293, 431.991}";
},
{
name = top;
position = "{293, 850.708}";
}
);
layerId = "E44A8709-89A6-4355-8E1B-0C9D43FBEF88";
paths = (
{
closed = 1;
nodes = (
"314 0 LINE",
"314 812.849 LINE",
"583 812.849 LINE",
"583 850.708 LINE",
"3 850.708 LINE",
"3 812.849 LINE",
"272 812.849 LINE",
"272 0 LINE"
);
}
);
width = 586;
},
{
anchors = (
{
name = bottom;
position = "{329, 0}";
},
{
name = center;
position = "{328, 285.612}";
},
{
name = top;
position = "{328, 562.447}";
}
);
layerId = "55E98211-8D07-4C6F-9443-D57FA90BECD2";
paths = (
{
closed = 1;
nodes = (
"436 0 LINE",
"436 392.33 LINE",
"650 392.33 LINE",
"650 562.447 LINE",
"7 562.447 LINE",
"7 392.33 LINE",
"221 392.33 LINE",
"221 0 LINE"
);
}
);
width = 657;
},
{
anchors = (
{
name = bottom;
position = "{329, 0}";
},
{
name = center;
position = "{328, 430.48}";
},
{
name = top;
position = "{328, 847.732}";
}
);
layerId = "E57D9CFB-71CF-4090-BA17-28A43A9C1B36";
paths = (
{
closed = 1;
nodes = (
"436 0 LINE",
"436 675.251 LINE",
"650 675.251 LINE",
"650 847.732 LINE",
"7 847.732 LINE",
"7 675.251 LINE",
"221 675.251 LINE",
"221 0 LINE"
);
}
);
width = 657;
}
);
leftKerningGroup = T;
rightKerningGroup = T;
unicode = 0054;
userData = {
anchors = (
);
b = {
};
com.typemytype.robofont.layerData = {
b = {
anchors = (
);
components = (
);
contours = (
{
points = (
{
segmentType = curve;
smooth = 1;
x = 581;
y = 0;
},
{
segmentType = line;
smooth = 1;
x = 1350;
y = 0;
},
{
smooth = 0;
x = 1399;
y = 0;
},
{
smooth = 0;
x = 1423;
y = 34;
},
{
segmentType = curve;
smooth = 1;
x = 1423;
y = 71;
},
{
smooth = 0;
x = 1423;
y = 107;
},
{
smooth = 0;
x = 1399;
y = 141;
},
{
segmentType = curve;
smooth = 1;
x = 1350;
y = 141;
},
{
segmentType = line;
smooth = 0;
x = 671;
y = 141;
},
{
segmentType = line;
smooth = 0;
x = 671;
y = 665;
},
{
segmentType = line;
smooth = 1;
x = 1290;
y = 665;
},
{
smooth = 0;
x = 1339;
y = 665;
},
{
smooth = 0;
x = 1364;
y = 698;
},
{
segmentType = curve;
smooth = 1;
x = 1364;
y = 734;
},
{
smooth = 0;
x = 1364;
y = 770;
},
{
smooth = 0;
x = 1341;
y = 803;
},
{
segmentType = curve;
smooth = 1;
x = 1290;
y = 803;
},
{
segmentType = line;
smooth = 0;
x = 671;
y = 803;
},
{
segmentType = line;
smooth = 0;
x = 671;
y = 1285;
},
{
segmentType = line;
smooth = 1;
x = 1322;
y = 1285;
},
{
smooth = 0;
x = 1371;
y = 1285;
},
{
smooth = 0;
x = 1395;
y = 1319;
},
{
segmentType = curve;
smooth = 1;
x = 1395;
y = 1356;
},
{
smooth = 0;
x = 1395;
y = 1392;
},
{
smooth = 0;
x = 1371;
y = 1426;
},
{
segmentType = curve;
smooth = 1;
x = 1322;
y = 1426;
},
{
segmentType = line;
smooth = 1;
x = 576;
y = 1426;
},
{
smooth = 0;
x = 528;
y = 1426;
},
{
smooth = 0;
x = 493;
y = 1383;
},
{
segmentType = curve;
smooth = 1;
x = 493;
y = 1340;
},
{
segmentType = line;
smooth = 1;
x = 493;
y = 86;
},
{
smooth = 0;
x = 493;
y = 41;
},
{
smooth = 0;
x = 537;
y = 0;
}
);
}
);
lib = {
};
name = T;
unicodes = (
);
width = 1158;
};
};
components = (
);
contours = (
);
lib = {
};
name = T;
unicodes = (
);
width = 1199;
};
},
{
glyphname = U;
lastChange = "2019-09-19 11:05:06 +0000";
layers = (
{
anchors = (
{
name = bottom;
position = "{360, 0}";
},
{
name = ogonek;
position = "{417, 0}";
},
{
name = top;
position = "{360, 705}";
},
{
name = topright;
position = "{588, 705}";
}
);
background = {
anchors = (
{
name = bottom;
position = "{358, 0}";
},
{
name = ogonek;
position = "{415, 0}";
},
{
name = top;
position = "{358, 705}";
},
{
name = topright;
position = "{584, 705}";
}
);
paths = (
{
closed = 1;
nodes = (
"533 -8 OFFCURVE",
"625 86 OFFCURVE",
"625 267 CURVE SMOOTH",
"625 705 LINE",
"583 705 LINE",
"583 260 LINE SMOOTH",
"583 109 OFFCURVE",
"506 33 OFFCURVE",
"358 33 CURVE SMOOTH",
"208 33 OFFCURVE",
"133 109 OFFCURVE",
"133 260 CURVE SMOOTH",
"133 705 LINE",
"91 705 LINE",
"91 267 LINE SMOOTH",
"91 86 OFFCURVE",
"182 -8 OFFCURVE",
"358 -8 CURVE SMOOTH"
);
}
);
};
layerId = "F1F93986-3ED8-4AAE-84C4-CA3EEECDDFA0";
paths = (
{
closed = 1;
nodes = (
"536 -8 OFFCURVE",
"629 90 OFFCURVE",
"629 271 CURVE SMOOTH",
"629 705 LINE",
"587 705 LINE",
"587 277 LINE SMOOTH",
"587 113 OFFCURVE",
"510 33 OFFCURVE",
"360 33 CURVE SMOOTH",
"210 33 OFFCURVE",
"133 113 OFFCURVE",
"133 277 CURVE SMOOTH",
"133 705 LINE",
"91 705 LINE",
"91 271 LINE SMOOTH",
"91 90 OFFCURVE",
"184 -8 OFFCURVE",
"360 -8 CURVE SMOOTH"
);
}
);
width = 720;
},
{
anchors = (
{
name = bottom;
position = "{379, 0}";
},
{
name = ogonek;
position = "{437, 0}";
},
{
name = top;
position = "{379, 705}";
},
{
name = topright;
position = "{557, 705}";
}
);
background = {
paths = (
{
closed = 1;
nodes = (
"587 -12 OFFCURVE",
"701 92 OFFCURVE",
"701 287 CURVE SMOOTH",
"701 705 LINE",
"490 705 LINE",
"490 280 LINE SMOOTH",
"490 201 OFFCURVE",
"449 157 OFFCURVE",
"379 157 CURVE SMOOTH",
"307 157 OFFCURVE",
"267 199 OFFCURVE",
"267 280 CURVE SMOOTH",
"267 705 LINE",
"56 705 LINE",
"56 287 LINE SMOOTH",
"56 89 OFFCURVE",
"167 -12 OFFCURVE",
"379 -12 CURVE SMOOTH"
);
}
);
};
layerId = "4121B50C-FD42-45C5-8FBE-41E76D98F91E";
paths = (
{
closed = 1;
nodes = (
"591 -12 OFFCURVE",
"702 93 OFFCURVE",
"702 307 CURVE SMOOTH",
"702 705 LINE",
"491 705 LINE",
"491 303 LINE SMOOTH",
"491 213 OFFCURVE",
"451 167 OFFCURVE",
"379 167 CURVE SMOOTH",
"307 167 OFFCURVE",
"267 213 OFFCURVE",
"267 303 CURVE SMOOTH",
"267 705 LINE",
"52 705 LINE",
"52 307 LINE SMOOTH",
"52 93 OFFCURVE",
"167 -12 OFFCURVE",
"379 -12 CURVE SMOOTH"
);
}
);
width = 754;
},
{
anchors = (
{
name = bottom;
position = "{360, 0}";
},
{
name = ogonek;
position = "{417, 0}";
},
{
name = top;
position = "{360, 559.065}";
},
{
name = topright;
position = "{588, 559.065}";
}
);
layerId = master01;
paths = (
{
closed = 1;
nodes = (
"536 -6.616 OFFCURVE",
"629 71.574 OFFCURVE",
"629 217.354 CURVE SMOOTH",
"629 559.065 LINE",
"587 559.065 LINE",
"587 221.432 LINE SMOOTH",
"587 96.419 OFFCURVE",
"510 35.294 OFFCURVE",
"360 35.294 CURVE SMOOTH",
"210 35.294 OFFCURVE",
"133 96.419 OFFCURVE",
"133 221.432 CURVE SMOOTH",
"133 559.065 LINE",
"91 559.065 LINE",
"91 217.354 LINE SMOOTH",
"91 71.574 OFFCURVE",
"184 -6.616 OFFCURVE",
"360 -6.616 CURVE SMOOTH"
);
}
);
width = 720;
},
{
anchors = (
{
name = bottom;
position = "{360, 0}";
},
{
name = ogonek;
position = "{417, 0}";
},
{
name = top;
position = "{360, 850.708}";
},
{
name = topright;
position = "{588, 850.708}";
}
);
layerId = "E44A8709-89A6-4355-8E1B-0C9D43FBEF88";
paths = (
{
closed = 1;
nodes = (
"536 -9.381 OFFCURVE",
"629 108.396 OFFCURVE",
"629 324.556 CURVE SMOOTH",
"629 850.708 LINE",
"587 850.708 LINE",
"587 332.478 LINE SMOOTH",
"587 129.539 OFFCURVE",
"510 30.687 OFFCURVE",
"360 30.687 CURVE SMOOTH",
"210 30.687 OFFCURVE",
"133 129.539 OFFCURVE",
"133 332.478 CURVE SMOOTH",
"133 850.708 LINE",
"91 850.708 LINE",
"91 324.556 LINE SMOOTH",
"91 108.396 OFFCURVE",
"184 -9.381 OFFCURVE",
"360 -9.381 CURVE SMOOTH"
);
}
);
width = 720;
},
{
anchors = (
{
name = bottom;
position = "{379, 0}";
},
{
name = ogonek;
position = "{437, 0}";
},
{
name = top;
position = "{379, 562.447}";
},
{
name = topright;
position = "{557, 562.447}";
}
);
layerId = "55E98211-8D07-4C6F-9443-D57FA90BECD2";
paths = (
{
closed = 1;
nodes = (
"591 -10.501 OFFCURVE",
"702 74.891 OFFCURVE",
"702 253.271 CURVE SMOOTH",
"702 562.447 LINE",
"491 562.447 LINE",
"491 247.761 LINE SMOOTH",
"491 193.116 OFFCURVE",
"451 164.301 OFFCURVE",
"379 164.301 CURVE SMOOTH",
"307 164.301 OFFCURVE",
"267 193.116 OFFCURVE",
"267 247.761 CURVE SMOOTH",
"267 562.447 LINE",
"52 562.447 LINE",
"52 253.271 LINE SMOOTH",
"52 74.891 OFFCURVE",
"167 -10.501 OFFCURVE",
"379 -10.501 CURVE SMOOTH"
);
}
);
width = 754;
},
{
anchors = (
{
name = bottom;
position = "{379, 0}";
},
{
name = ogonek;
position = "{437, 0}";
},
{
name = top;
position = "{379, 847.732}";
},
{
name = topright;
position = "{557, 847.732}";
}
);
layerId = "E57D9CFB-71CF-4090-BA17-28A43A9C1B36";
paths = (
{
closed = 1;
nodes = (
"591 -13.341 OFFCURVE",
"702 111.012 OFFCURVE",
"702 359.355 CURVE SMOOTH",
"702 847.732 LINE",
"491 847.732 LINE",
"491 357.267 LINE SMOOTH",
"491 228.904 OFFCURVE",
"451 164.336 OFFCURVE",
"379 164.336 CURVE SMOOTH",
"307 164.336 OFFCURVE",
"267 228.904 OFFCURVE",
"267 357.267 CURVE SMOOTH",
"267 847.732 LINE",
"52 847.732 LINE",
"52 359.355 LINE SMOOTH",
"52 111.012 OFFCURVE",
"167 -13.341 OFFCURVE",
"379 -13.341 CURVE SMOOTH"
);
}
);
width = 754;
}
);
leftKerningGroup = U;
rightKerningGroup = U;
unicode = 0055;
userData = {
anchors = (
);
b = {
};
com.typemytype.robofont.layerData = {
b = {
anchors = (
);
components = (
);
contours = (
);
lib = {
};
name = U;
unicodes = (
);
width = 1490;
};
};
components = (
);
contours = (
);
lib = {
};
name = U;
unicodes = (
);
width = 1513;
};
},
{
glyphname = V;
lastChange = "2019-09-19 11:05:06 +0000";
layers = (
{
anchors = (
{
name = bottom;
position = "{334, 0}";
},
{
name = top;
position = "{333, 705}";
}
);
background = {
paths = (
{
closed = 1;
nodes = (
"659 705 LINE",
"614 705 LINE",
"322 24 LINE",
"346 24 LINE",
"54 705 LINE",
"8 705 LINE",
"312 0 LINE",
"357 0 LINE"
);
}
);
};
layerId = "F1F93986-3ED8-4AAE-84C4-CA3EEECDDFA0";
paths = (
{
closed = 1;
nodes = (
"356 0 LINE",
"659 705 LINE",
"615 705 LINE",
"323 24 LINE",
"346 24 LINE",
"53 705 LINE",
"8 705 LINE",
"311 0 LINE"
);
}
);
width = 667;
},
{
anchors = (
{
name = bottom;
position = "{380, 0}";
},
{
name = top;
position = "{379, 705}";
}
);
background = {
anchors = (
{
name = bottom;
position = "{380, 0}";
},
{
name = top;
position = "{379, 705}";
}
);
paths = (
{
closed = 1;
nodes = (
"464 0 LINE",
"789 705 LINE",
"571 705 LINE",
"354 203 LINE",
"409 203 LINE",
"193 705 LINE",
"-30 705 LINE",
"295 0 LINE"
);
}
);
};
layerId = "4121B50C-FD42-45C5-8FBE-41E76D98F91E";
paths = (
{
closed = 1;
nodes = (
"464 0 LINE",
"789 705 LINE",
"569 705 LINE",
"352 203 LINE",
"415 203 LINE",
"199 705 LINE",
"-30 705 LINE",
"295 0 LINE"
);
}
);
width = 759;
},
{
anchors = (
{
name = bottom;
position = "{334, 0}";
},
{
name = top;
position = "{333, 559.065}";
}
);
layerId = master01;
paths = (
{
closed = 1;
nodes = (
"356 0 LINE",
"659 559.065 LINE",
"615 559.065 LINE",
"323 31.221 LINE",
"346 31.221 LINE",
"53 559.065 LINE",
"8 559.065 LINE",
"311 0 LINE"
);
}
);
width = 667;
},
{
anchors = (
{
name = bottom;
position = "{334, 0}";
},
{
name = top;
position = "{333, 850.708}";
}
);
layerId = "E44A8709-89A6-4355-8E1B-0C9D43FBEF88";
paths = (
{
closed = 1;
nodes = (
"356 0 LINE",
"659 850.708 LINE",
"615 850.708 LINE",
"323 16.76 LINE",
"346 16.76 LINE",
"53 850.708 LINE",
"8 850.708 LINE",
"311 0 LINE"
);
}
);
width = 667;
},
{
anchors = (
{
name = bottom;
position = "{380, 0}";
},
{
name = top;
position = "{379, 562.447}";
}
);
layerId = "55E98211-8D07-4C6F-9443-D57FA90BECD2";
paths = (
{
closed = 1;
nodes = (
"464 0 LINE",
"789 562.447 LINE",
"569 562.447 LINE",
"352 203.455 LINE",
"415 203.455 LINE",
"199 562.447 LINE",
"-30 562.447 LINE",
"295 0 LINE"
);
}
);
width = 759;
},
{
anchors = (
{
name = bottom;
position = "{380, 0}";
},
{
name = top;
position = "{379, 847.732}";
}
);
layerId = "E57D9CFB-71CF-4090-BA17-28A43A9C1B36";
paths = (
{
closed = 1;
nodes = (
"464 0 LINE",
"789 847.732 LINE",
"569 847.732 LINE",
"352 195.375 LINE",
"415 195.375 LINE",
"199 847.732 LINE",
"-30 847.732 LINE",
"295 0 LINE"
);
}
);
width = 759;
}
);
leftKerningGroup = V;
rightKerningGroup = V;
unicode = 0056;
userData = {
anchors = (
);
b = {
};
com.typemytype.robofont.guides = (
);
com.typemytype.robofont.layerData = {
b = {
anchors = (
);
components = (
);
contours = (
{
points = (
{
segmentType = curve;
smooth = 1;
x = 644;
y = "-5";
},
{
smooth = 0;
x = 712;
y = "-5";
},
{
smooth = 0;
x = 764;
y = 38;
},
{
segmentType = curve;
smooth = 1;
x = 793;
y = 117;
},
{
segmentType = line;
smooth = 1;
x = 1243;
y = 1324;
},
{
smooth = 0;
x = 1247;
y = 1335;
},
{
smooth = 0;
x = 1248;
y = 1342;
},
{
segmentType = curve;
smooth = 1;
x = 1248;
y = 1351;
},
{
smooth = 0;
x = 1248;
y = 1395;
},
{
smooth = 0;
x = 1203;
y = 1427;
},
{
segmentType = curve;
smooth = 1;
x = 1160;
y = 1427;
},
{
smooth = 0;
x = 1125;
y = 1427;
},
{
smooth = 0;
x = 1090;
y = 1408;
},
{
segmentType = curve;
smooth = 1;
x = 1076;
y = 1369;
},
{
segmentType = line;
smooth = 0;
x = 651;
y = 192;
},
{
segmentType = line;
smooth = 0;
x = 650;
y = 190;
},
{
segmentType = line;
smooth = 1;
x = 214;
y = 1370;
},
{
smooth = 0;
x = 200;
y = 1407;
},
{
smooth = 0;
x = 170;
y = 1427;
},
{
segmentType = curve;
smooth = 1;
x = 135;
y = 1427;
},
{
smooth = 0;
x = 90;
y = 1427;
},
{
smooth = 0;
x = 43;
y = 1392;
},
{
segmentType = curve;
smooth = 1;
x = 43;
y = 1344;
},
{
smooth = 0;
x = 43;
y = 1336;
},
{
smooth = 0;
x = 44;
y = 1326;
},
{
segmentType = curve;
smooth = 0;
x = 48;
y = 1318;
},
{
segmentType = line;
smooth = 1;
x = 501;
y = 117;
},
{
smooth = 0;
x = 532;
y = 35;
},
{
smooth = 0;
x = 581;
y = "-5";
}
);
}
);
lib = {
};
name = V;
unicodes = (
);
width = 1289;
};
};
components = (
);
contours = (
);
lib = {
};
name = V;
unicodes = (
);
width = 1365;
};
},
{
glyphname = W;
lastChange = "2019-09-19 11:05:06 +0000";
layers = (
{
anchors = (
{
name = bottom;
position = "{546, 0}";
},
{
name = top;
position = "{545, 705}";
}
);
background = {
anchors = (
{
name = bottom;
position = "{546, 0}";
},
{
name = top;
position = "{545, 705}";
}
);
paths = (
{
closed = 1;
nodes = (
"323 0 LINE",
"555 671 LINE",
"535 671 LINE",
"766 0 LINE",
"809 0 LINE",
"1053 705 LINE",
"1010 705 LINE",
"773 19 LINE",
"801 19 LINE",
"564 705 LINE",
"525 705 LINE",
"288 19 LINE",
"318 19 LINE",
"82 705 LINE",
"38 705 LINE",
"282 0 LINE"
);
}
);
};
layerId = "F1F93986-3ED8-4AAE-84C4-CA3EEECDDFA0";
paths = (
{
closed = 1;
nodes = (
"323 0 LINE",
"555 671 LINE",
"535 671 LINE",
"766 0 LINE",
"809 0 LINE",
"1053 705 LINE",
"1010 705 LINE",
"773 19 LINE",
"801 19 LINE",
"564 705 LINE",
"525 705 LINE",
"288 19 LINE",
"318 19 LINE",
"82 705 LINE",
"38 705 LINE",
"282 0 LINE"
);
}
);
width = 1091;
},
{
anchors = (
{
name = bottom;
position = "{568, 0}";
},
{
name = top;
position = "{569, 705}";
}
);
background = {
paths = (
{
closed = 1;
nodes = (
"434 0 LINE",
"583 412 LINE",
"557 412 LINE",
"702 0 LINE",
"872 0 LINE",
"1126 705 LINE",
"922 705 LINE",
"765 234 LINE",
"803 234 LINE",
"649 705 LINE",
"502 705 LINE",
"335 234 LINE",
"381 234 LINE",
"229 705 LINE",
"11 705 LINE",
"263 0 LINE"
);
}
);
};
layerId = "4121B50C-FD42-45C5-8FBE-41E76D98F91E";
paths = (
{
closed = 1;
nodes = (
"431 0 LINE",
"583 412 LINE",
"557 412 LINE",
"705 0 LINE",
"875 0 LINE",
"1132 705 LINE",
"926 705 LINE",
"766 234 LINE",
"808 234 LINE",
"651 705 LINE",
"500 705 LINE",
"330 234 LINE",
"380 234 LINE",
"225 705 LINE",
"5 705 LINE",
"260 0 LINE"
);
}
);
width = 1136;
},
{
anchors = (
{
name = bottom;
position = "{546, 0}";
},
{
name = top;
position = "{545, 559.065}";
}
);
layerId = master01;
paths = (
{
closed = 1;
nodes = (
"323 0 LINE",
"555 514.466 LINE",
"535 514.466 LINE",
"766 0 LINE",
"809 0 LINE",
"1053 559.065 LINE",
"1010 559.065 LINE",
"773 29.708 LINE",
"801 29.708 LINE",
"564 559.065 LINE",
"525 559.065 LINE",
"288 29.708 LINE",
"318 29.708 LINE",
"82 559.065 LINE",
"38 559.065 LINE",
"282 0 LINE"
);
}
);
width = 1091;
},
{
anchors = (
{
name = bottom;
position = "{546, 0}";
},
{
name = top;
position = "{545, 850.708}";
}
);
layerId = "E44A8709-89A6-4355-8E1B-0C9D43FBEF88";
paths = (
{
closed = 1;
nodes = (
"323 0 LINE",
"555 827.334 LINE",
"535 827.334 LINE",
"766 0 LINE",
"809 0 LINE",
"1053 850.708 LINE",
"1010 850.708 LINE",
"773 8.272 LINE",
"801 8.272 LINE",
"564 850.708 LINE",
"525 850.708 LINE",
"288 8.272 LINE",
"318 8.272 LINE",
"82 850.708 LINE",
"38 850.708 LINE",
"282 0 LINE"
);
}
);
width = 1091;
},
{
anchors = (
{
name = bottom;
position = "{568, 0}";
},
{
name = top;
position = "{569, 562.447}";
}
);
layerId = "55E98211-8D07-4C6F-9443-D57FA90BECD2";
paths = (
{
closed = 1;
nodes = (
"431 0 LINE",
"583 268.642 LINE",
"557 268.642 LINE",
"705 0 LINE",
"875 0 LINE",
"1132 562.447 LINE",
"926 562.447 LINE",
"766 236.534 LINE",
"808 236.534 LINE",
"651 562.447 LINE",
"500 562.447 LINE",
"330 236.534 LINE",
"380 236.534 LINE",
"225 562.447 LINE",
"5 562.447 LINE",
"260 0 LINE"
);
}
);
width = 1136;
},
{
anchors = (
{
name = bottom;
position = "{568, 0}";
},
{
name = top;
position = "{569, 847.732}";
}
);
layerId = "E57D9CFB-71CF-4090-BA17-28A43A9C1B36";
paths = (
{
closed = 1;
nodes = (
"431 0 LINE",
"583 565.911 LINE",
"557 565.911 LINE",
"705 0 LINE",
"875 0 LINE",
"1132 847.732 LINE",
"926 847.732 LINE",
"766 222.853 LINE",
"808 222.853 LINE",
"651 847.732 LINE",
"500 847.732 LINE",
"330 222.853 LINE",
"380 222.853 LINE",
"225 847.732 LINE",
"5 847.732 LINE",
"260 0 LINE"
);
}
);
width = 1136;
}
);
leftKerningGroup = V;
rightKerningGroup = V;
unicode = 0057;
userData = {
anchors = (
);
b = {
};
com.typemytype.robofont.layerData = {
b = {
anchors = (
);
components = (
);
contours = (
);
lib = {
};
name = W;
unicodes = (
);
width = 2126;
};
};
components = (
);
contours = (
);
lib = {
};
name = W;
unicodes = (
);
width = 2070;
};
},
{
glyphname = X;
lastChange = "2019-09-19 11:05:06 +0000";
layers = (
{
anchors = (
{
name = bottom;
position = "{316, 0}";
},
{
name = top;
position = "{316, 705}";
}
);
background = {
paths = (
{
closed = 1;
nodes = (
"592 705 LINE",
"542 705 LINE",
"311 387 LINE",
"323 387 LINE",
"89 705 LINE",
"39 705 LINE",
"295 357 LINE",
"296 368 LINE",
"24 0 LINE",
"75 0 LINE",
"326 342 LINE",
"305 342 LINE",
"556 0 LINE",
"607 0 LINE",
"335 368 LINE",
"336 357 LINE"
);
}
);
};
layerId = "F1F93986-3ED8-4AAE-84C4-CA3EEECDDFA0";
paths = (
{
closed = 1;
nodes = (
"592 705 LINE",
"542 705 LINE",
"311 387 LINE",
"323 387 LINE",
"89 705 LINE",
"39 705 LINE",
"295 357 LINE",
"295 367 LINE",
"24 0 LINE",
"75 0 LINE",
"326 342 LINE",
"305 342 LINE",
"556 0 LINE",
"607 0 LINE",
"336 367 LINE",
"336 357 LINE"
);
}
);
width = 631;
},
{
anchors = (
{
name = bottom;
position = "{358, 0}";
},
{
name = top;
position = "{356, 705}";
}
);
background = {
paths = (
{
closed = 1;
nodes = (
"271 403 LINE",
"-35 0 LINE",
"216 0 LINE",
"390 245 LINE",
"323 245 LINE",
"499 0 LINE",
"748 0 LINE",
"441 404 LINE",
"441 305 LINE",
"745 705 LINE",
"495 705 LINE",
"322 461 LINE",
"392 461 LINE",
"217 705 LINE",
"-33 705 LINE",
"271 307 LINE"
);
}
);
};
layerId = "4121B50C-FD42-45C5-8FBE-41E76D98F91E";
paths = (
{
closed = 1;
nodes = (
"746 705 LINE",
"496 705 LINE",
"321 461 LINE",
"391 461 LINE",
"217 705 LINE",
"-32 705 LINE",
"272 305 LINE",
"272 404 LINE",
"-36 0 LINE",
"214 0 LINE",
"390 245 LINE",
"323 245 LINE",
"499 0 LINE",
"749 0 LINE",
"441 404 LINE",
"441 305 LINE"
);
}
);
width = 713;
},
{
anchors = (
{
name = bottom;
position = "{316, 0}";
},
{
name = top;
position = "{316, 559.065}";
}
);
layerId = master01;
paths = (
{
closed = 1;
nodes = (
"592 559.065 LINE",
"542 559.065 LINE",
"311 311.93 LINE",
"323 311.93 LINE",
"89 559.065 LINE",
"39 559.065 LINE",
"295 279.56 LINE",
"295 293.551 LINE",
"24 0 LINE",
"75 0 LINE",
"326 264.601 LINE",
"305 264.601 LINE",
"556 0 LINE",
"607 0 LINE",
"336 293.551 LINE",
"336 279.56 LINE"
);
}
);
width = 631;
},
{
anchors = (
{
name = bottom;
position = "{316, 0}";
},
{
name = top;
position = "{316, 850.708}";
}
);
layerId = "E44A8709-89A6-4355-8E1B-0C9D43FBEF88";
paths = (
{
closed = 1;
nodes = (
"592 850.708 LINE",
"542 850.708 LINE",
"311 461.94 LINE",
"323 461.94 LINE",
"89 850.708 LINE",
"39 850.708 LINE",
"295 434.328 LINE",
"295 440.329 LINE",
"24 0 LINE",
"75 0 LINE",
"326 419.295 LINE",
"305 419.295 LINE",
"556 0 LINE",
"607 0 LINE",
"336 440.329 LINE",
"336 434.328 LINE"
);
}
);
width = 631;
},
{
anchors = (
{
name = bottom;
position = "{358, 0}";
},
{
name = top;
position = "{356, 562.447}";
}
);
layerId = "55E98211-8D07-4C6F-9443-D57FA90BECD2";
paths = (
{
closed = 1;
nodes = (
"746 562.447 LINE",
"496 562.447 LINE",
"321 384.942 LINE",
"391 384.942 LINE",
"217 562.447 LINE",
"-32 562.447 LINE",
"272 231.272 LINE",
"272 330.889 LINE",
"-36 0 LINE",
"214 0 LINE",
"390 172.97 LINE",
"323 172.97 LINE",
"499 0 LINE",
"749 0 LINE",
"441 330.889 LINE",
"441 231.272 LINE"
);
}
);
width = 713;
},
{
anchors = (
{
name = bottom;
position = "{358, 0}";
},
{
name = top;
position = "{356, 847.732}";
}
);
layerId = "E57D9CFB-71CF-4090-BA17-28A43A9C1B36";
paths = (
{
closed = 1;
nodes = (
"746 847.732 LINE",
"496 847.732 LINE",
"321 534.19 LINE",
"391 534.19 LINE",
"217 847.732 LINE",
"-32 847.732 LINE",
"272 380.904 LINE",
"272 475.721 LINE",
"-36 0 LINE",
"214 0 LINE",
"390 321.005 LINE",
"323 321.005 LINE",
"499 0 LINE",
"749 0 LINE",
"441 475.721 LINE",
"441 380.904 LINE"
);
}
);
width = 713;
}
);
leftKerningGroup = X;
rightKerningGroup = X;
unicode = 0058;
userData = {
anchors = (
);
b = {
};
com.typemytype.robofont.layerData = {
b = {
anchors = (
);
components = (
);
contours = (
{
points = (
{
segmentType = curve;
smooth = 1;
x = 151;
y = 0;
},
{
smooth = 0;
x = 176;
y = 0;
},
{
smooth = 0;
x = 201;
y = 12;
},
{
segmentType = curve;
smooth = 1;
x = 222;
y = 41;
},
{
segmentType = line;
smooth = 0;
x = 641;
y = 616;
},
{
segmentType = line;
smooth = 0;
x = 746;
y = 734;
},
{
segmentType = line;
smooth = 1;
x = 1175;
y = 1310;
},
{
smooth = 0;
x = 1186;
y = 1325;
},
{
smooth = 0;
x = 1190;
y = 1338;
},
{
segmentType = curve;
smooth = 1;
x = 1190;
y = 1353;
},
{
smooth = 0;
x = 1190;
y = 1393;
},
{
smooth = 0;
x = 1153;
y = 1426;
},
{
segmentType = curve;
smooth = 1;
x = 1110;
y = 1426;
},
{
smooth = 0;
x = 1083;
y = 1426;
},
{
smooth = 0;
x = 1058;
y = 1414;
},
{
segmentType = curve;
smooth = 1;
x = 1037;
y = 1385;
},
{
segmentType = line;
smooth = 0;
x = 648;
y = 844;
},
{
segmentType = line;
smooth = 0;
x = 542;
y = 732;
},
{
segmentType = line;
smooth = 1;
x = 84;
y = 121;
},
{
smooth = 0;
x = 73;
y = 106;
},
{
smooth = 0;
x = 68;
y = 91;
},
{
segmentType = curve;
smooth = 1;
x = 68;
y = 76;
},
{
smooth = 0;
x = 68;
y = 35;
},
{
smooth = 0;
x = 108;
y = 0;
}
);
},
{
points = (
{
segmentType = curve;
smooth = 1;
x = 1104;
y = 0;
},
{
smooth = 0;
x = 1151;
y = 0;
},
{
smooth = 0;
x = 1200;
y = 40;
},
{
segmentType = curve;
smooth = 1;
x = 1200;
y = 85;
},
{
smooth = 0;
x = 1200;
y = 98;
},
{
smooth = 0;
x = 1195;
y = 113;
},
{
segmentType = curve;
smooth = 0;
x = 1186;
y = 126;
},
{
segmentType = line;
smooth = 0;
x = 272;
y = 1385;
},
{
smooth = 0;
x = 252;
y = 1414;
},
{
smooth = 0;
x = 225;
y = 1426;
},
{
segmentType = curve;
smooth = 1;
x = 197;
y = 1426;
},
{
smooth = 0;
x = 149;
y = 1426;
},
{
smooth = 0;
x = 100;
y = 1388;
},
{
segmentType = curve;
smooth = 1;
x = 100;
y = 1343;
},
{
smooth = 0;
x = 100;
y = 1328;
},
{
smooth = 0;
x = 105;
y = 1315;
},
{
segmentType = curve;
smooth = 0;
x = 114;
y = 1303;
},
{
segmentType = line;
smooth = 0;
x = 1033;
y = 40;
},
{
smooth = 0;
x = 1052;
y = 13;
},
{
smooth = 0;
x = 1076;
y = 0;
}
);
}
);
lib = {
};
name = X;
unicodes = (
);
width = 1274;
};
};
components = (
);
contours = (
);
lib = {
};
name = X;
unicodes = (
);
width = 1322;
};
},
{
glyphname = Y;
lastChange = "2019-09-19 11:05:06 +0000";
layers = (
{
anchors = (
{
name = bottom;
position = "{288, 0}";
},
{
name = top;
position = "{288, 705}";
},
{
name = topleft;
position = "{17, 705}";
}
);
background = {
anchors = (
{
name = bottom;
position = "{288, 0}";
},
{
name = top;
position = "{288, 705}";
},
{
name = topleft;
position = "{17, 705}";
}
);
paths = (
{
closed = 1;
nodes = (
"309 0 LINE",
"309 367 LINE",
"299 328 LINE",
"577 705 LINE",
"530 705 LINE",
"282 368 LINE",
"297 368 LINE",
"48 705 LINE",
"-1 705 LINE",
"278 328 LINE",
"267 367 LINE",
"267 0 LINE"
);
}
);
};
layerId = "F1F93986-3ED8-4AAE-84C4-CA3EEECDDFA0";
paths = (
{
closed = 1;
nodes = (
"309 0 LINE",
"309 367 LINE",
"299 328 LINE",
"578 705 LINE",
"531 705 LINE",
"282 368 LINE",
"297 368 LINE",
"48 705 LINE",
"-1 705 LINE",
"278 328 LINE",
"267 367 LINE",
"267 0 LINE"
);
}
);
width = 577;
},
{
anchors = (
{
name = bottom;
position = "{331, 0}";
},
{
name = top;
position = "{329, 705}";
},
{
name = topleft;
position = "{16, 705}";
}
);
background = {
paths = (
{
closed = 1;
nodes = (
"437 0 LINE",
"437 367 LINE",
"394 251 LINE",
"742 705 LINE",
"497 705 LINE",
"307 449 LINE",
"348 449 LINE",
"162 705 LINE",
"-80 705 LINE",
"265 251 LINE",
"222 367 LINE",
"222 0 LINE"
);
},
{
closed = 1;
nodes = (
"351 0 LINE",
"351 367 LINE",
"341 328 LINE",
"619 705 LINE",
"572 705 LINE",
"324 368 LINE",
"339 368 LINE",
"90 705 LINE",
"41 705 LINE",
"320 328 LINE",
"309 367 LINE",
"309 0 LINE"
);
}
);
};
layerId = "4121B50C-FD42-45C5-8FBE-41E76D98F91E";
paths = (
{
closed = 1;
nodes = (
"437 0 LINE",
"437 359 LINE",
"394 243 LINE",
"708 705 LINE",
"468 705 LINE",
"312 467 LINE",
"353 467 LINE",
"197 705 LINE",
"-50 705 LINE",
"265 243 LINE",
"222 359 LINE",
"222 0 LINE"
);
}
);
width = 660;
},
{
anchors = (
{
name = bottom;
position = "{288, 0}";
},
{
name = top;
position = "{288, 559.065}";
},
{
name = topleft;
position = "{17, 559.065}";
}
);
layerId = master01;
paths = (
{
closed = 1;
nodes = (
"309 0 LINE",
"309 290.486 LINE",
"299 254.316 LINE",
"578 559.065 LINE",
"531 559.065 LINE",
"282 298.566 LINE",
"297 298.566 LINE",
"48 559.065 LINE",
"-1 559.065 LINE",
"278 254.316 LINE",
"267 290.486 LINE",
"267 0 LINE"
);
}
);
width = 577;
},
{
anchors = (
{
name = bottom;
position = "{288, 0}";
},
{
name = top;
position = "{288, 850.708}";
},
{
name = topleft;
position = "{17, 850.708}";
}
);
layerId = "E44A8709-89A6-4355-8E1B-0C9D43FBEF88";
paths = (
{
closed = 1;
nodes = (
"309 0 LINE",
"309 443.396 LINE",
"299 401.584 LINE",
"578 850.708 LINE",
"531 850.708 LINE",
"282 437.309 LINE",
"297 437.309 LINE",
"48 850.708 LINE",
"-1 850.708 LINE",
"278 401.584 LINE",
"267 443.396 LINE",
"267 0 LINE"
);
}
);
width = 577;
},
{
anchors = (
{
name = bottom;
position = "{331, 0}";
},
{
name = top;
position = "{329, 562.447}";
},
{
name = topleft;
position = "{16, 562.447}";
}
);
layerId = "55E98211-8D07-4C6F-9443-D57FA90BECD2";
paths = (
{
closed = 1;
nodes = (
"437 0 LINE",
"437 284.555 LINE",
"394 174.157 LINE",
"708 562.447 LINE",
"468 562.447 LINE",
"312 395.525 LINE",
"353 395.525 LINE",
"197 562.447 LINE",
"-50 562.447 LINE",
"265 174.157 LINE",
"222 284.555 LINE",
"222 0 LINE"
);
}
);
width = 660;
},
{
anchors = (
{
name = bottom;
position = "{331, 0}";
},
{
name = top;
position = "{329, 847.732}";
},
{
name = topleft;
position = "{16, 847.732}";
}
);
layerId = "E57D9CFB-71CF-4090-BA17-28A43A9C1B36";
paths = (
{
closed = 1;
nodes = (
"437 0 LINE",
"437 433.86 LINE",
"394 315.334 LINE",
"708 847.732 LINE",
"468 847.732 LINE",
"312 534.6 LINE",
"353 534.6 LINE",
"197 847.732 LINE",
"-50 847.732 LINE",
"265 315.334 LINE",
"222 433.86 LINE",
"222 0 LINE"
);
}
);
width = 660;
}
);
leftKerningGroup = Y;
rightKerningGroup = Y;
unicode = 0059;
userData = {
anchors = (
);
b = {
};
com.typemytype.robofont.guides = (
);
com.typemytype.robofont.layerData = {
b = {
anchors = (
);
components = (
);
contours = (
{
points = (
{
segmentType = curve;
smooth = 1;
x = 641;
y = 0;
},
{
smooth = 0;
x = 685;
y = 0;
},
{
smooth = 0;
x = 730;
y = 29;
},
{
segmentType = curve;
smooth = 1;
x = 730;
y = 85;
},
{
segmentType = line;
smooth = 0;
x = 730;
y = 1285;
},
{
segmentType = line;
smooth = 1;
x = 1115;
y = 1285;
},
{
smooth = 0;
x = 1164;
y = 1285;
},
{
smooth = 0;
x = 1190;
y = 1319;
},
{
segmentType = curve;
smooth = 1;
x = 1190;
y = 1355;
},
{
smooth = 0;
x = 1190;
y = 1392;
},
{
smooth = 0;
x = 1166;
y = 1426;
},
{
segmentType = curve;
smooth = 1;
x = 1115;
y = 1426;
},
{
segmentType = line;
smooth = 1;
x = 160;
y = 1426;
},
{
smooth = 0;
x = 111;
y = 1426;
},
{
smooth = 0;
x = 86;
y = 1392;
},
{
segmentType = curve;
smooth = 1;
x = 86;
y = 1355;
},
{
smooth = 0;
x = 86;
y = 1319;
},
{
smooth = 0;
x = 111;
y = 1285;
},
{
segmentType = curve;
smooth = 1;
x = 160;
y = 1285;
},
{
segmentType = line;
smooth = 0;
x = 552;
y = 1285;
},
{
segmentType = line;
smooth = 1;
x = 552;
y = 85;
},
{
smooth = 0;
x = 552;
y = 29;
},
{
smooth = 0;
x = 596;
y = 0;
}
);
}
);
lib = {
};
name = Y;
unicodes = (
);
width = 1278;
};
};
components = (
);
contours = (
);
lib = {
};
name = Y;
unicodes = (
);
width = 1321;
};
},
{
glyphname = Z;
lastChange = "2019-09-19 11:05:06 +0000";
layers = (
{
anchors = (
{
name = bottom;
position = "{301, 0}";
},
{
name = top;
position = "{300, 705}";
}
);
background = {
anchors = (
{
name = bottom;
position = "{304, 0}";
},
{
name = top;
position = "{295, 705}";
}
);
paths = (
{
closed = 1;
nodes = (
"548 0 LINE",
"548 39 LINE",
"88 39 LINE",
"88 16 LINE",
"538 674 LINE",
"538 705 LINE",
"49 705 LINE",
"49 666 LINE",
"499 666 LINE",
"499 689 LINE",
"49 31 LINE",
"49 0 LINE"
);
}
);
};
layerId = "F1F93986-3ED8-4AAE-84C4-CA3EEECDDFA0";
paths = (
{
closed = 1;
nodes = (
"552 0 LINE",
"552 39 LINE",
"88 39 LINE",
"88 16 LINE",
"538 674 LINE",
"538 705 LINE",
"49 705 LINE",
"49 666 LINE",
"499 666 LINE",
"499 689 LINE",
"49 31 LINE",
"49 0 LINE"
);
}
);
width = 575;
},
{
anchors = (
{
name = bottom;
position = "{326, 0}";
},
{
name = top;
position = "{326, 705}";
}
);
background = {
paths = (
{
closed = 1;
nodes = (
"608 0 LINE",
"608 170 LINE",
"242 170 LINE",
"242 114 LINE",
"596 550 LINE",
"596 705 LINE",
"44 705 LINE",
"44 535 LINE",
"395 535 LINE",
"395 591 LINE",
"44 158 LINE",
"44 0 LINE"
);
}
);
};
layerId = "4121B50C-FD42-45C5-8FBE-41E76D98F91E";
paths = (
{
closed = 1;
nodes = (
"616 0 LINE",
"616 176 LINE",
"245 176 LINE",
"245 117 LINE",
"600 547 LINE",
"600 705 LINE",
"44 705 LINE",
"44 529 LINE",
"399 529 LINE",
"399 588 LINE",
"44 158 LINE",
"44 0 LINE"
);
}
);
width = 636;
},
{
anchors = (
{
name = bottom;
position = "{301, 0}";
},
{
name = top;
position = "{300, 559.065}";
}
);
layerId = master01;
paths = (
{
closed = 1;
nodes = (
"552 0 LINE",
"552 40.256 LINE",
"88 40.256 LINE",
"88 19.566 LINE",
"538 525.834 LINE",
"538 559.065 LINE",
"49 559.065 LINE",
"49 518.809 LINE",
"499 518.809 LINE",
"499 539.499 LINE",
"49 33.231 LINE",
"49 0 LINE"
);
}
);
width = 575;
},
{
anchors = (
{
name = bottom;
position = "{301, 0}";
},
{
name = top;
position = "{300, 850.708}";
}
);
layerId = "E44A8709-89A6-4355-8E1B-0C9D43FBEF88";
paths = (
{
closed = 1;
nodes = (
"552 0 LINE",
"552 37.722 LINE",
"88 37.722 LINE",
"88 12.423 LINE",
"538 821.957 LINE",
"538 850.708 LINE",
"49 850.708 LINE",
"49 812.985 LINE",
"499 812.985 LINE",
"499 838.285 LINE",
"49 28.751 LINE",
"49 0 LINE"
);
}
);
width = 575;
},
{
anchors = (
{
name = bottom;
position = "{326, 0}";
},
{
name = top;
position = "{326, 562.447}";
}
);
layerId = "55E98211-8D07-4C6F-9443-D57FA90BECD2";
paths = (
{
closed = 1;
nodes = (
"616 0 LINE",
"616 172.177 LINE",
"245 172.177 LINE",
"245 116.76 LINE",
"600 406.95 LINE",
"600 562.447 LINE",
"44 562.447 LINE",
"44 390.271 LINE",
"399 390.271 LINE",
"399 445.688 LINE",
"44 155.498 LINE",
"44 0 LINE"
);
}
);
width = 636;
},
{
anchors = (
{
name = bottom;
position = "{326, 0}";
},
{
name = top;
position = "{326, 847.732}";
}
);
layerId = "E57D9CFB-71CF-4090-BA17-28A43A9C1B36";
paths = (
{
closed = 1;
nodes = (
"616 0 LINE",
"616 174.341 LINE",
"245 174.341 LINE",
"245 113.196 LINE",
"600 692.313 LINE",
"600 847.732 LINE",
"44 847.732 LINE",
"44 673.391 LINE",
"399 673.391 LINE",
"399 734.537 LINE",
"44 155.419 LINE",
"44 0 LINE"
);
}
);
width = 636;
}
);
leftKerningGroup = Z;
rightKerningGroup = Z;
unicode = 005A;
userData = {
anchors = (
);
b = {
};
com.typemytype.robofont.layerData = {
b = {
anchors = (
);
components = (
);
contours = (
{
points = (
{
segmentType = curve;
smooth = 1;
x = 266;
y = 0;
},
{
segmentType = line;
smooth = 1;
x = 1035;
y = 0;
},
{
smooth = 0;
x = 1084;
y = 0;
},
{
smooth = 0;
x = 1108;
y = 34;
},
{
segmentType = curve;
smooth = 1;
x = 1108;
y = 71;
},
{
smooth = 0;
x = 1108;
y = 107;
},
{
smooth = 0;
x = 1084;
y = 141;
},
{
segmentType = curve;
smooth = 1;
x = 1035;
y = 141;
},
{
segmentType = line;
smooth = 0;
x = 356;
y = 141;
},
{
segmentType = line;
smooth = 0;
x = 356;
y = 665;
},
{
segmentType = line;
smooth = 1;
x = 975;
y = 665;
},
{
smooth = 0;
x = 1024;
y = 665;
},
{
smooth = 0;
x = 1049;
y = 698;
},
{
segmentType = curve;
smooth = 1;
x = 1049;
y = 734;
},
{
smooth = 0;
x = 1049;
y = 770;
},
{
smooth = 0;
x = 1026;
y = 803;
},
{
segmentType = curve;
smooth = 1;
x = 975;
y = 803;
},
{
segmentType = line;
smooth = 0;
x = 356;
y = 803;
},
{
segmentType = line;
smooth = 0;
x = 356;
y = 1285;
},
{
segmentType = line;
smooth = 1;
x = 1007;
y = 1285;
},
{
smooth = 0;
x = 1056;
y = 1285;
},
{
smooth = 0;
x = 1080;
y = 1319;
},
{
segmentType = curve;
smooth = 1;
x = 1080;
y = 1356;
},
{
smooth = 0;
x = 1080;
y = 1392;
},
{
smooth = 0;
x = 1056;
y = 1426;
},
{
segmentType = curve;
smooth = 1;
x = 1007;
y = 1426;
},
{
segmentType = line;
smooth = 1;
x = 261;
y = 1426;
},
{
smooth = 0;
x = 213;
y = 1426;
},
{
smooth = 0;
x = 178;
y = 1383;
},
{
segmentType = curve;
smooth = 1;
x = 178;
y = 1340;
},
{
segmentType = line;
smooth = 1;
x = 178;
y = 86;
},
{
smooth = 0;
x = 178;
y = 41;
},
{
smooth = 0;
x = 222;
y = 0;
}
);
}
);
lib = {
};
name = Z;
unicodes = (
);
width = 1165;
};
};
components = (
);
contours = (
);
lib = {
};
name = Z;
unicodes = (
);
width = 1222;
};
},
